<svg id="Ebene_1" data-name="Ebene 1" xmlns="http://www.w3.org/2000/svg" xmlns:xlink="http://www.w3.org/1999/xlink" viewBox="0 0 1020 174.24"><defs><style>.cls-1,.cls-2{fill:none;}.cls-2{clip-path:url(#clip-path);clip-rule:evenodd;}.cls-3{clip-path:url(#clip-path-7);}.cls-4{fill:#35b2b1;}.cls-5{clip-path:url(#clip-path-8);}.cls-6{fill:#004164;}.cls-7{clip-path:url(#clip-path-9);}.cls-8{fill:#a0e4e3;}.cls-9{clip-path:url(#clip-path-10);}.cls-10{clip-path:url(#clip-path-11);}.cls-11{clip-path:url(#clip-path-12);}</style><clipPath id="clip-path"><rect class="cls-1" y="9.24" width="1020" height="160"/></clipPath><clipPath id="clip-path-7"><path class="cls-2" d="M102.63,9.24H57.37a22.66,22.66,0,0,0-16,6.63L6.63,50.62A22.62,22.62,0,0,0,0,66.62v45.25a22.6,22.6,0,0,0,1.46,7.92L110.54,10.7a22.54,22.54,0,0,0-7.91-1.46"/></clipPath><clipPath id="clip-path-8"><path class="cls-2" d="M153.37,50.62,120,17.24l-32,32,70.54,70.55a22.6,22.6,0,0,0,1.46-7.92V66.62a22.64,22.64,0,0,0-6.63-16"/></clipPath><clipPath id="clip-path-9"><path class="cls-2" d="M102.63,89.24H57.37a22.54,22.54,0,0,0-7.91,1.46L120,161.24l32-32L118.63,95.87a22.64,22.64,0,0,0-16-6.63"/></clipPath><clipPath id="clip-path-10"><polygon class="cls-2" points="40 97.24 8 129.24 40 161.24 72 129.24 40 97.24 40 97.24"/></clipPath><clipPath id="clip-path-11"><path class="cls-2" d="M49.46,167.79a22.54,22.54,0,0,0,7.91,1.45h45.26a22.54,22.54,0,0,0,7.91-1.45L80,137.24,49.46,167.79Z"/></clipPath><clipPath id="clip-path-12"><path class="cls-2" d="M688.17,9.24q18.36,0,28.69,10.33t10.32,28.5v5.48c0,2.82-1.41,4.21-4.23,4.21H707c-2.81,0-4.22-1.39-4.22-4.21V50.31q0-10.7-4.6-15.3c-3.05-3.07-8.16-4.6-15.29-4.6H667.27q-10.68,0-15.27,4.84c-3.08,3.24-4.6,8.76-4.6,16.56V59.5q0,11.2,16.16,15.2,7.19,1.74,15.77,3a133.11,133.11,0,0,1,17.27,3.73A70.91,70.91,0,0,1,712.51,88a30.25,30.25,0,0,1,11.68,12.44q4.48,8.31,4.48,20.28v9.7q0,18.16-10.32,28.49t-28.44,10.32H662.05q-18.15,0-28.58-10.32T623,130.43V124c0-2.81,1.42-4.22,4.24-4.22h15.89c2.82,0,4.24,1.41,4.24,4.22v4.48c0,7,1.52,12,4.6,15s8.15,4.6,15.27,4.6h17.15q10.7,0,15.41-4.84c3.15-3.25,4.73-8.5,4.73-15.81v-5.72a14.86,14.86,0,0,0-6.09-12.55,32.6,32.6,0,0,0-15-6q-9-1.35-19.64-3.84a176.66,176.66,0,0,1-19.64-5.72q-8.92-3.24-15-12.2T623,58.52V48.07q0-18.16,10.31-28.5T661.82,9.24Zm-413.86,0c3.31,0,5.29,1.43,5.95,4.25L323.53,165q1,4.23-2.74,4.23H303.13a4.26,4.26,0,0,1-3.09-.88,6.65,6.65,0,0,1-1.39-3.35l-9.43-32.36H234.54L225.08,165c-.66,2.82-2.14,4.23-4.46,4.23h-17.9q-3.5,0-2.5-4.23L243.47,13.49c.84-2.82,2.82-4.25,6-4.25Zm267.94,0c3.32,0,5.29,1.43,6,4.25L591.47,165q1,4.23-2.74,4.23H571.07a4.26,4.26,0,0,1-3.09-.88A6.57,6.57,0,0,1,566.6,165l-9.43-32.36H502.48L493,165c-.66,2.82-2.14,4.23-4.46,4.23h-17.9q-3.5,0-2.5-4.23L511.41,13.49c.85-2.82,2.82-4.25,6-4.25ZM378,9.25q4.23,0,4.23,4.23V145.1c0,1.66,1,2.49,3,2.49h57.66q4.21,0,4.22,4.48V165q0,4.23-4.22,4.23H362.29c-2.82,0-4.21-1.41-4.21-4.23V13.48c0-2.82,1.39-4.23,4.21-4.23Zm459.1,0q18.13,0,28.35,10.08t10.17,28.49V59.76c0,3-1.47,4.48-4.47,4.48H855.44q-4.23,0-4.23-4.48V48.81q0-18.41-17.89-18.41H811.69q-17.9,0-17.9,18.41v80.87q0,18.4,17.9,18.41h21.63q17.91,0,17.89-18.41v-11q0-4.49,4.23-4.48H871.1c3,0,4.47,1.49,4.47,4.48v11.94q0,18.17-10.17,28.37t-28.35,10.2H808.21q-18.39,0-28.45-10.2t-10.08-28.37V47.82q0-18.42,10.08-28.49T808.21,9.25Zm144.16,0q18.42,0,28.58,10.09T1020,47.81v82.86q0,18.17-10.21,28.36t-28.58,10.2H952.38q-18.4,0-28.47-10.2t-10.06-28.36V47.81q0-18.41,10.06-28.47T952.38,9.25ZM977.48,30.4H955.85Q938,30.4,938,48.81v80.86q0,18.44,17.89,18.42h21.63q18.15,0,18.15-18.42V48.81q0-18.39-18.15-18.41ZM262.36,33.14h-1l-21.89,79.62h45L262.36,33.14Zm267.95,0h-1l-21.89,79.62h45L530.31,33.14Z"/></clipPath></defs><g class="cls-3"><rect class="cls-4" x="-5" y="4.24" width="120.54" height="120.54"/></g><g class="cls-5"><rect class="cls-6" x="83" y="12.24" width="82" height="112.54"/></g><g class="cls-7"><rect class="cls-8" x="44.46" y="84.24" width="112.54" height="82"/></g><g class="cls-9"><rect class="cls-6" x="3" y="92.24" width="74" height="74"/></g><g class="cls-10"><rect class="cls-4" x="44.46" y="132.24" width="71.09" height="42"/></g><g class="cls-11"><rect class="cls-6" x="195" y="4.24" width="830" height="170"/></g></svg>