<?xml version="1.0" encoding="utf-8"?>
<!-- Generator: Adobe Illustrator 26.5.0, SVG Export Plug-In . SVG Version: 6.00 Build 0)  -->
<svg version="1.1" id="Ebene_1" xmlns="http://www.w3.org/2000/svg" xmlns:xlink="http://www.w3.org/1999/xlink" x="0px" y="0px"
	 viewBox="0 0 2374.02 850.39" style="enable-background:new 0 0 2374.02 850.39;" xml:space="preserve">
<style type="text/css">
	.st0{fill-rule:evenodd;clip-rule:evenodd;fill:#11CDD4;}
	.st1{fill-rule:evenodd;clip-rule:evenodd;fill:#004466;}
	.st2{fill-rule:evenodd;clip-rule:evenodd;fill:#A1E6E6;}
</style>
<g>
	<path class="st0" d="M382.98,283.46c-10.63,0-20.83,4.22-28.35,11.74l-61.55,61.56c-7.52,7.52-11.74,17.71-11.74,28.35v80.17
		c0,4.84,0.91,9.58,2.58,14.03l193.26-193.27c-4.45-1.66-9.18-2.58-14.02-2.58H382.98z"/>
	<path class="st1" d="M493.93,297.64l-56.69,56.69l124.98,124.98c1.67-4.45,2.58-9.18,2.58-14.02v-80.18
		c0-10.63-4.22-20.83-11.74-28.35L493.93,297.64z"/>
	<path class="st2" d="M463.16,425.2h-80.18c-4.84,0-9.58,0.92-14.02,2.58l124.98,124.98l56.69-56.69l-59.13-59.13
		C483.99,429.42,473.79,425.2,463.16,425.2z"/>
	
		<rect x="312.11" y="455.98" transform="matrix(0.7071 -0.7071 0.7071 0.7071 -247.6117 394.3389)" class="st1" width="80.18" height="80.18"/>
	<path class="st0" d="M368.96,564.35c4.45,1.67,9.18,2.58,14.02,2.58h80.18c4.84,0,9.58-0.91,14.02-2.58l-54.11-54.11L368.96,564.35
		z"/>
	<path class="st1" d="M1500.53,283.47c21.7,0,38.66,6.1,50.84,18.29c12.18,12.22,18.28,29.04,18.28,50.5v9.7c0,5-2.5,7.47-7.49,7.47
		h-28.18c-4.99,0-7.49-2.47-7.49-7.47v-5.73c0-12.64-2.72-21.7-8.15-27.11c-5.41-5.44-14.46-8.15-27.08-8.15h-27.74
		c-12.62,0-21.65,2.87-27.06,8.57c-5.46,5.75-8.15,15.53-8.15,29.34v13.64c0,13.22,9.52,22.19,28.62,26.91
		c8.49,2.06,17.81,3.82,27.94,5.29c10.13,1.47,20.33,3.67,30.61,6.61c10.28,2.91,19.67,6.81,28.18,11.68
		c8.51,4.85,15.41,12.2,20.7,22.04c5.28,9.82,7.93,21.82,7.93,35.93v17.19c0,21.45-6.09,38.25-18.28,50.47
		c-12.18,12.2-28.99,18.29-50.4,18.29h-49.35c-21.43,0-38.29-6.1-50.64-18.29c-12.33-12.22-18.5-29.02-18.5-50.47v-11.49
		c0-4.97,2.52-7.47,7.51-7.47h28.16c4.99,0,7.51,2.5,7.51,7.47v7.93c0,12.34,2.69,21.26,8.15,26.67c5.41,5.46,14.43,8.15,27.06,8.15
		h30.39c12.62,0,21.73-2.87,27.3-8.57c5.58-5.75,8.37-15.06,8.37-28.02v-10.14c0-9.4-3.6-16.8-10.79-22.24
		c-7.19-5.46-16.05-8.96-26.64-10.6c-10.57-1.59-22.17-3.87-34.79-6.81c-12.6-2.94-24.22-6.32-34.79-10.14
		c-10.54-3.82-19.45-11.02-26.64-21.6c-7.19-10.6-10.79-24.1-10.79-40.55v-18.51c0-21.45,6.09-38.28,18.28-50.5
		c12.18-12.2,29.02-18.29,50.45-18.29H1500.53L1500.53,283.47z M767.32,283.46c5.87,0,9.37,2.52,10.54,7.52l76.65,268.45
		c1.15,5-0.46,7.49-4.84,7.49h-31.29c-2.64,0-4.45-0.51-5.48-1.57c-1.05-1-1.83-2.99-2.45-5.93l-16.71-57.33h-96.88l-16.76,57.33
		c-1.17,5-3.79,7.49-7.9,7.49h-31.71c-4.13,0-5.6-2.5-4.43-7.49l76.63-268.45c1.49-5,4.99-7.52,10.59-7.52H767.32L767.32,283.46z
		 M1242.02,283.46c5.87,0,9.37,2.52,10.54,7.52l76.65,268.45c1.15,5-0.46,7.49-4.84,7.49h-31.29c-2.64,0-4.45-0.51-5.48-1.57
		c-1.05-1-1.84-2.99-2.45-5.93l-16.71-57.33h-96.88l-16.76,57.33c-1.17,5-3.79,7.49-7.9,7.49h-31.71c-4.13,0-5.6-2.5-4.43-7.49
		l76.63-268.45c1.49-5,4.99-7.52,10.59-7.52H1242.02L1242.02,283.46z M950.93,283.48c4.99,0,7.49,2.5,7.49,7.49v233.19
		c0,2.94,1.76,4.41,5.31,4.41h102.14c4.99,0,7.49,2.64,7.49,7.93v22.92c0,5-2.5,7.49-7.49,7.49H923.19c-4.99,0-7.46-2.5-7.46-7.49
		V290.98c0-5,2.47-7.49,7.46-7.49H950.93L950.93,283.48z M1764.29,283.48c21.43,0,38.19,5.95,50.23,17.85
		c12.01,11.9,18.03,28.73,18.03,50.47v21.16c0,5.29-2.62,7.93-7.93,7.93h-27.74c-4.99,0-7.49-2.64-7.49-7.93v-19.4
		c0-21.75-10.54-32.62-31.71-32.62h-38.31c-21.14,0-31.71,10.87-31.71,32.62v143.26c0,21.75,10.57,32.62,31.71,32.62h38.31
		c21.16,0,31.71-10.87,31.71-32.62v-19.4c0-5.29,2.5-7.93,7.49-7.93h27.74c5.31,0,7.93,2.64,7.93,7.93v21.16
		c0,21.45-6.02,38.23-18.03,50.25c-12.04,12.05-28.8,18.07-50.23,18.07h-51.08c-21.73,0-38.53-6.02-50.4-18.07
		c-11.91-12.02-17.86-28.8-17.86-50.25V351.81c0-21.75,5.95-38.57,17.86-50.47c11.87-11.9,28.67-17.85,50.4-17.85H1764.29
		L1764.29,283.48z M2019.7,283.47c21.75,0,38.61,5.95,50.64,17.88c12.04,11.88,18.08,28.7,18.08,50.45v146.79
		c0,21.45-6.04,38.23-18.08,50.25c-12.04,12.05-28.89,18.07-50.64,18.07h-51.08c-21.73,0-38.53-6.02-50.42-18.07
		c-11.89-12.02-17.84-28.8-17.84-50.25V351.8c0-21.75,5.95-38.57,17.84-50.45c11.89-11.93,28.7-17.88,50.42-17.88H2019.7
		L2019.7,283.47z M2013.1,320.94h-38.31c-21.14,0-31.71,10.9-31.71,32.62v143.26c0,21.77,10.57,32.62,31.71,32.62h38.31
		c21.43,0,32.15-10.85,32.15-32.62V353.56C2045.24,331.84,2034.53,320.94,2013.1,320.94L2013.1,320.94z M746.15,325.81h-1.74
		l-38.78,141.06h79.73L746.15,325.81L746.15,325.81z M1220.86,325.81h-1.74l-38.78,141.06h79.73L1220.86,325.81L1220.86,325.81z"/>
</g>
</svg>
