<?xml version="1.0" encoding="utf-8"?>
<!-- Generator: Adobe Illustrator 26.5.0, SVG Export Plug-In . SVG Version: 6.00 Build 0)  -->
<svg version="1.1" id="Ebene_1" xmlns="http://www.w3.org/2000/svg" xmlns:xlink="http://www.w3.org/1999/xlink" x="0px" y="0px"
	 viewBox="0 0 850.39 850.39" style="enable-background:new 0 0 850.39 850.39;" xml:space="preserve">
<style type="text/css">
	.st0{fill-rule:evenodd;clip-rule:evenodd;fill:#11CDD4;}
	.st1{fill-rule:evenodd;clip-rule:evenodd;fill:#004466;}
	.st2{fill-rule:evenodd;clip-rule:evenodd;fill:#A1E6E6;}
</style>
<g>
	<path class="st0" d="M365.06,212.6c-15.95,0-31.24,6.34-42.52,17.61l-92.33,92.34c-11.27,11.27-17.61,26.57-17.61,42.52v120.26
		c0,7.26,1.37,14.36,3.87,21.04l289.9-289.9c-6.67-2.49-13.78-3.87-21.03-3.87H365.06z"/>
	<path class="st1" d="M531.49,233.85l-85.04,85.04l187.47,187.47c2.5-6.67,3.87-13.78,3.87-21.03V365.06
		c0-15.94-6.34-31.24-17.61-42.52L531.49,233.85z"/>
	<path class="st2" d="M485.33,425.2H365.06c-7.26,0-14.36,1.37-21.03,3.87L531.5,616.54l85.04-85.04l-88.69-88.69
		C516.58,431.53,501.28,425.2,485.33,425.2z"/>
	
		<rect x="258.76" y="471.36" transform="matrix(0.7071 -0.7071 0.7071 0.7071 -282.4233 381.1677)" class="st1" width="120.27" height="120.27"/>
	<path class="st0" d="M344.03,633.92c6.67,2.5,13.78,3.87,21.03,3.87h120.27c7.26,0,14.36-1.37,21.03-3.87l-81.16-81.17
		L344.03,633.92z"/>
</g>
</svg>
