<?xml version="1.0" encoding="utf-8"?>
<!-- Generator: Adobe Illustrator 24.1.3, SVG Export Plug-In . SVG Version: 6.00 Build 0)  -->
<svg version="1.1" id="Ebene_1" xmlns="http://www.w3.org/2000/svg" xmlns:xlink="http://www.w3.org/1999/xlink" x="0px" y="0px"
	 viewBox="0 0 500 100" style="enable-background:new 0 0 500 100;" xml:space="preserve">
<style type="text/css">
	.st0{fill:#004164;}
	.st1{clip-path:url(#SVGID_3_);}
	.st2{clip-path:url(#SVGID_4_);fill:#35B2B1;}
	.st3{clip-path:url(#SVGID_7_);}
	.st4{clip-path:url(#SVGID_8_);fill:#004164;}
	.st5{clip-path:url(#SVGID_11_);}
	.st6{clip-path:url(#SVGID_12_);fill:#A0E4E3;}
	.st7{clip-path:url(#SVGID_15_);}
	.st8{clip-path:url(#SVGID_16_);fill:#004164;}
	.st9{clip-path:url(#SVGID_19_);}
	.st10{clip-path:url(#SVGID_20_);fill:#35B2B1;}
	.st11{clip-path:url(#SVGID_23_);}
	.st12{clip-path:url(#SVGID_24_);fill:#004164;}
	.st13{clip-path:url(#SVGID_27_);}
	.st14{clip-path:url(#SVGID_28_);fill:#35B2B1;}
	.st15{clip-path:url(#SVGID_31_);}
	.st16{clip-path:url(#SVGID_32_);fill:#004164;}
	.st17{clip-path:url(#SVGID_35_);}
	.st18{clip-path:url(#SVGID_36_);fill:#A0E4E3;}
	.st19{clip-path:url(#SVGID_39_);}
	.st20{clip-path:url(#SVGID_40_);fill:#004164;}
	.st21{clip-path:url(#SVGID_43_);}
	.st22{clip-path:url(#SVGID_44_);fill:#35B2B1;}
	.st23{clip-path:url(#SVGID_47_);}
	.st24{clip-path:url(#SVGID_48_);fill:#004164;}
	.st25{clip-path:url(#SVGID_51_);}
	.st26{clip-path:url(#SVGID_52_);fill:#35B2B1;}
	.st27{clip-path:url(#SVGID_55_);}
	.st28{clip-path:url(#SVGID_56_);fill:#004164;}
	.st29{clip-path:url(#SVGID_59_);}
	.st30{clip-path:url(#SVGID_60_);fill:#A0E4E3;}
	.st31{clip-path:url(#SVGID_63_);}
	.st32{clip-path:url(#SVGID_64_);fill:#004164;}
	.st33{clip-path:url(#SVGID_67_);}
	.st34{clip-path:url(#SVGID_68_);fill:#35B2B1;}
	.st35{clip-path:url(#SVGID_71_);}
	.st36{clip-path:url(#SVGID_72_);fill:#004164;}
	.st37{clip-path:url(#SVGID_74_);fill:#004164;}
	.st38{clip-path:url(#SVGID_77_);}
	.st39{clip-path:url(#SVGID_78_);fill:#FFFFFF;}
	.st40{clip-path:url(#SVGID_81_);}
	.st41{clip-path:url(#SVGID_82_);fill:#FFFFFF;}
	.st42{clip-path:url(#SVGID_85_);}
	.st43{clip-path:url(#SVGID_86_);fill:#FFFFFF;}
	.st44{clip-path:url(#SVGID_89_);}
	.st45{clip-path:url(#SVGID_90_);fill:#FFFFFF;}
	.st46{clip-path:url(#SVGID_93_);}
	.st47{clip-path:url(#SVGID_94_);fill:#FFFFFF;}
	.st48{clip-path:url(#SVGID_97_);}
	.st49{clip-path:url(#SVGID_98_);fill:#FFFFFF;}
	.st50{fill:#FFFFFF;}
	.st51{clip-path:url(#SVGID_101_);}
	.st52{clip-path:url(#SVGID_102_);fill:#FFFFFF;}
	.st53{clip-path:url(#SVGID_105_);}
	.st54{clip-path:url(#SVGID_106_);fill:#FFFFFF;}
	.st55{clip-path:url(#SVGID_109_);}
	.st56{clip-path:url(#SVGID_110_);fill:#FFFFFF;}
	.st57{clip-path:url(#SVGID_113_);}
	.st58{clip-path:url(#SVGID_114_);fill:#FFFFFF;}
	.st59{clip-path:url(#SVGID_117_);}
	.st60{clip-path:url(#SVGID_118_);fill:#FFFFFF;}
	.st61{clip-path:url(#SVGID_121_);}
	.st62{clip-path:url(#SVGID_122_);fill:#FFFFFF;}
	.st63{clip-path:url(#SVGID_125_);}
	.st64{clip-path:url(#SVGID_126_);fill:#FFFFFF;}
	.st65{clip-path:url(#SVGID_129_);}
	.st66{clip-path:url(#SVGID_130_);fill:#FFFFFF;}
	.st67{clip-path:url(#SVGID_133_);}
	.st68{clip-path:url(#SVGID_134_);fill:#FFFFFF;}
	.st69{clip-path:url(#SVGID_137_);}
	.st70{clip-path:url(#SVGID_138_);fill:#FFFFFF;}
	.st71{clip-path:url(#SVGID_141_);}
	.st72{clip-path:url(#SVGID_142_);fill:#FFFFFF;}
	.st73{clip-path:url(#SVGID_145_);}
	.st74{clip-path:url(#SVGID_146_);fill:#FFFFFF;}
</style>
<g>
	<path class="st0" d="M12.5-33.7v-11H9.4v13.6h8.2v-2.5H12.5L12.5-33.7z M20.9-40.7c-0.6,0.2-1.1,0.6-1.6,1c-0.4,0.4-0.8,0.9-1,1.6
		C18.1-37.5,18-36.8,18-36c0,0.8,0.1,1.5,0.4,2.1c0.2,0.6,0.6,1.1,1,1.6c0.4,0.4,1,0.8,1.6,1c0.6,0.2,1.3,0.3,2,0.3
		c0.7,0,1.4-0.1,2-0.3c0.6-0.2,1.1-0.6,1.5-1c0.4-0.4,0.8-1,1-1.6c0.2-0.6,0.4-1.3,0.4-2.1c0-0.8-0.1-1.5-0.4-2.1
		c-0.2-0.6-0.6-1.1-1-1.6c-0.4-0.4-0.9-0.8-1.5-1c-0.6-0.2-1.3-0.3-2-0.3C22.2-41,21.5-40.9,20.9-40.7L20.9-40.7z M21.4-33.9
		C21.1-34.4,21-35.1,21-36c0-1,0.2-1.7,0.5-2.1c0.3-0.5,0.8-0.7,1.5-0.7c0.7,0,1.2,0.2,1.5,0.7c0.3,0.5,0.5,1.2,0.5,2.1
		c0,1-0.2,1.7-0.5,2.1c-0.3,0.5-0.8,0.7-1.5,0.7C22.3-33.2,21.8-33.4,21.4-33.9L21.4-33.9z"/>
	<path class="st0" d="M32.3-36.6c-0.2-0.1-0.3-0.2-0.4-0.3c-0.1-0.1-0.2-0.2-0.2-0.4c-0.1-0.2-0.1-0.3-0.1-0.5
		c0-0.4,0.1-0.7,0.3-0.9c0.2-0.2,0.6-0.3,1-0.3c0.5,0,0.8,0.1,1,0.3c0.2,0.2,0.3,0.5,0.3,0.9c0,0.4-0.1,0.7-0.3,0.9
		c-0.2,0.2-0.6,0.4-1,0.4C32.7-36.5,32.5-36.6,32.3-36.6L32.3-36.6z M35-30.4c-0.1,0.1-0.2,0.2-0.3,0.3c-0.2,0.1-0.4,0.2-0.6,0.2
		c-0.3,0-0.6,0.1-1,0.1c-0.4,0-0.7,0-1-0.1c-0.3,0-0.5-0.1-0.6-0.2c-0.1-0.1-0.3-0.2-0.3-0.3c-0.1-0.1-0.1-0.2-0.1-0.4
		c0-0.2,0.1-0.4,0.2-0.5c0.1-0.2,0.3-0.3,0.4-0.4c0.4,0,0.8,0.1,1.2,0.1c0.4,0,0.8,0,1.1,0.1c0.3,0,0.6,0.1,0.8,0.2
		c0.2,0.1,0.3,0.3,0.3,0.5C35.1-30.7,35.1-30.6,35-30.4L35-30.4z M35.1-40.6c-0.6-0.3-1.4-0.5-2.2-0.5c-0.6,0-1.1,0.1-1.6,0.2
		c-0.5,0.1-0.9,0.4-1.3,0.6c-0.4,0.3-0.6,0.6-0.8,1c-0.2,0.4-0.3,0.8-0.3,1.3c0,0.6,0.1,1.1,0.4,1.5c0.3,0.4,0.7,0.8,1.2,1.1
		c-0.2,0.1-0.4,0.2-0.6,0.4c-0.2,0.1-0.3,0.3-0.4,0.4c-0.1,0.2-0.2,0.3-0.2,0.5c0,0.2-0.1,0.3-0.1,0.5c0,0.4,0.1,0.6,0.2,0.9
		c0.1,0.2,0.3,0.4,0.6,0.5c-0.4,0.2-0.8,0.4-1,0.7c-0.2,0.3-0.4,0.6-0.4,1.1c0,0.3,0.1,0.6,0.3,0.9c0.2,0.3,0.4,0.6,0.8,0.8
		c0.4,0.2,0.8,0.4,1.4,0.6c0.5,0.1,1.2,0.2,2,0.2c0.8,0,1.5-0.1,2-0.3c0.6-0.2,1.1-0.5,1.5-0.8c0.4-0.3,0.7-0.7,0.9-1.1
		c0.2-0.4,0.3-0.8,0.3-1.3c0-0.5-0.1-0.8-0.3-1.1c-0.2-0.3-0.4-0.5-0.7-0.7c-0.3-0.2-0.6-0.3-1-0.4c-0.4-0.1-0.7-0.1-1.1-0.2
		c-0.4,0-0.7-0.1-1.1-0.1c-0.4,0-0.7,0-1-0.1c-0.3,0-0.5-0.1-0.7-0.1c-0.2-0.1-0.3-0.2-0.3-0.3c0-0.2,0.1-0.3,0.3-0.4
		c0.1,0,0.3,0,0.4,0.1c0.1,0,0.3,0,0.4,0c0.5,0,1.1-0.1,1.5-0.2c0.5-0.1,0.9-0.4,1.2-0.6c0.4-0.3,0.6-0.6,0.8-1
		c0.2-0.4,0.3-0.8,0.3-1.3c0-0.2,0-0.3,0-0.4c0-0.1-0.1-0.3-0.1-0.4l0.7-0.2c0.2,0,0.4-0.1,0.5-0.2c0.1-0.1,0.1-0.2,0.1-0.4v-1.1
		H35.1L35.1-40.6z M41.6-40.7c-0.6,0.2-1.1,0.6-1.6,1c-0.4,0.4-0.8,0.9-1,1.6c-0.2,0.6-0.4,1.3-0.4,2.1c0,0.8,0.1,1.5,0.4,2.1
		c0.2,0.6,0.6,1.1,1,1.6c0.4,0.4,1,0.8,1.6,1c0.6,0.2,1.3,0.3,2,0.3c0.7,0,1.4-0.1,2-0.3c0.6-0.2,1.1-0.6,1.5-1c0.4-0.4,0.8-1,1-1.6
		c0.2-0.6,0.4-1.3,0.4-2.1c0-0.8-0.1-1.5-0.4-2.1c-0.2-0.6-0.6-1.1-1-1.6c-0.4-0.4-0.9-0.8-1.5-1c-0.6-0.2-1.3-0.3-2-0.3
		C42.9-41,42.2-40.9,41.6-40.7L41.6-40.7z M42.1-33.9c-0.3-0.5-0.5-1.2-0.5-2.1c0-1,0.2-1.7,0.5-2.1c0.3-0.5,0.8-0.7,1.5-0.7
		c0.7,0,1.2,0.2,1.5,0.7c0.3,0.5,0.5,1.2,0.5,2.1c0,1-0.2,1.7-0.5,2.1c-0.3,0.5-0.8,0.7-1.5,0.7C42.9-33.2,42.4-33.4,42.1-33.9
		L42.1-33.9z M54.8-31.3c0.5-0.1,0.9-0.3,1.3-0.6l-0.9-1.4c-0.1-0.1-0.1-0.2-0.2-0.2c-0.1,0-0.1-0.1-0.2-0.1c-0.1,0-0.1,0-0.2,0
		c0,0-0.1,0-0.1,0.1c-0.1,0-0.1,0.1-0.2,0.1c-0.1,0-0.2,0-0.3,0c-0.2,0-0.4-0.1-0.5-0.2c-0.1-0.1-0.2-0.3-0.2-0.6v-4.8h2.4v-2h-2.4
		v-2.8h-1.5c-0.3,0-0.6,0.1-0.6,0.4l-0.6,2.4l-1.5,0.3v1.1c0,0.2,0.1,0.3,0.2,0.4c0.1,0.1,0.2,0.1,0.4,0.1h0.8v5
		c0,0.4,0.1,0.8,0.2,1.2c0.1,0.3,0.3,0.6,0.5,0.9c0.2,0.2,0.5,0.4,0.9,0.6c0.4,0.1,0.8,0.2,1.2,0.2C53.9-31,54.3-31.1,54.8-31.3
		L54.8-31.3z M63.8-40.8c-0.2,0-0.3,0-0.5,0.1c-0.1,0.1-0.2,0.2-0.3,0.4l-1.4,4.1c-0.1,0.2-0.1,0.4-0.2,0.6
		c-0.1,0.2-0.1,0.4-0.2,0.6c-0.1-0.4-0.2-0.8-0.4-1.2l-1.6-4.2c-0.1-0.1-0.1-0.3-0.3-0.4c-0.1-0.1-0.3-0.1-0.5-0.1h-2.6l3.9,8.8
		l-1.9,3.9h2.2c0.3,0,0.5,0,0.6-0.1c0.1-0.1,0.2-0.2,0.3-0.4l5.2-12.2H63.8L63.8-40.8z M69.8-37.9c0.2-0.3,0.5-0.5,0.8-0.7
		c0.3-0.2,0.6-0.2,1-0.2c0.2,0,0.4,0,0.6,0.1c0.2,0.1,0.3,0.2,0.5,0.5c0.1,0.2,0.2,0.5,0.3,0.8c0.1,0.3,0.1,0.8,0.1,1.3
		c0,0.5,0,1-0.1,1.4c-0.1,0.4-0.2,0.7-0.4,0.9c-0.2,0.2-0.4,0.4-0.6,0.5c-0.2,0.1-0.5,0.2-0.7,0.2c-0.3,0-0.5,0-0.8-0.1
		c-0.3-0.1-0.5-0.3-0.7-0.5V-37.9L69.8-37.9z M69.4-40.4c-0.1-0.3-0.3-0.5-0.7-0.5H67v12.7h2.9v-3.7c0.3,0.2,0.6,0.4,0.9,0.6
		c0.3,0.1,0.8,0.2,1.3,0.2c0.6,0,1.2-0.1,1.7-0.4c0.5-0.3,0.9-0.6,1.3-1.1c0.4-0.5,0.6-1,0.8-1.6c0.2-0.6,0.3-1.3,0.3-2
		c0-0.8-0.1-1.5-0.3-2.1c-0.2-0.6-0.4-1.1-0.7-1.5c-0.3-0.4-0.7-0.7-1.1-1c-0.4-0.2-0.9-0.3-1.4-0.3c-0.7,0-1.2,0.1-1.7,0.4
		c-0.5,0.3-0.9,0.6-1.3,1L69.4-40.4L69.4-40.4z M80-37.2c0.1-0.6,0.3-1,0.6-1.4c0.3-0.3,0.7-0.5,1.3-0.5c0.3,0,0.6,0.1,0.8,0.2
		c0.2,0.1,0.4,0.2,0.5,0.4c0.1,0.2,0.2,0.4,0.3,0.6c0.1,0.2,0.1,0.4,0.1,0.7H80L80-37.2z M85.5-35.5c0.1,0,0.2,0,0.3,0
		c0.1,0,0.2-0.1,0.2-0.2c0-0.1,0.1-0.2,0.1-0.3c0-0.1,0-0.3,0-0.5c0-0.7-0.1-1.3-0.3-1.9c-0.2-0.5-0.5-1-0.9-1.4
		c-0.4-0.4-0.8-0.7-1.4-0.9c-0.5-0.2-1.1-0.3-1.8-0.3c-0.7,0-1.4,0.1-2,0.4c-0.6,0.3-1.1,0.6-1.5,1c-0.4,0.4-0.7,0.9-0.9,1.5
		c-0.2,0.6-0.3,1.2-0.3,1.8c0,0.9,0.1,1.6,0.4,2.3c0.3,0.6,0.6,1.2,1.1,1.6c0.4,0.4,1,0.8,1.6,1c0.6,0.2,1.2,0.3,1.9,0.3
		c0.3,0,0.7,0,1-0.1c0.4,0,0.7-0.1,1.1-0.3c0.4-0.1,0.7-0.3,1.1-0.5c0.3-0.2,0.7-0.5,1-0.8l-0.8-1C85.2-33.9,85-34,84.8-34
		c-0.2,0-0.3,0-0.5,0.1c-0.2,0.1-0.3,0.2-0.5,0.3c-0.2,0.1-0.4,0.2-0.6,0.3c-0.2,0.1-0.5,0.1-0.9,0.1c-0.6,0-1.1-0.2-1.5-0.5
		c-0.4-0.4-0.6-0.9-0.7-1.8H85.5L85.5-35.5z"/>
	<path class="st0" d="M12.9-13.9H8.2v0.7h1.9v5.3h0.8v-5.3h1.9V-13.9L12.9-13.9z M14.3-14.1h-0.7v6.2h0.7v-3.1
		c0.2-0.2,0.3-0.3,0.5-0.4c0.2-0.1,0.4-0.2,0.6-0.2c0.3,0,0.5,0.1,0.7,0.3c0.1,0.2,0.2,0.4,0.2,0.7v2.7h0.7v-2.7
		c0-0.2,0-0.5-0.1-0.7c-0.1-0.2-0.2-0.4-0.3-0.5c-0.1-0.1-0.3-0.2-0.4-0.3c-0.2-0.1-0.4-0.1-0.6-0.1c-0.3,0-0.5,0.1-0.8,0.2
		c-0.2,0.1-0.4,0.3-0.6,0.5V-14.1L14.3-14.1z M18.8-10.5c0.1-0.4,0.2-0.7,0.4-0.9c0.2-0.2,0.5-0.3,0.8-0.3c0.2,0,0.3,0,0.5,0.1
		c0.1,0.1,0.2,0.1,0.3,0.2c0.1,0.1,0.2,0.2,0.2,0.4c0,0.1,0.1,0.3,0.1,0.5H18.8L18.8-10.5z M21.5-8.8c0,0-0.1-0.1-0.1-0.1
		c0,0-0.1,0-0.2,0.1c-0.1,0-0.1,0.1-0.2,0.1c-0.1,0.1-0.2,0.1-0.3,0.1c-0.1,0-0.3,0.1-0.5,0.1c-0.2,0-0.4,0-0.5-0.1
		c-0.2-0.1-0.3-0.2-0.4-0.3C19-9,18.9-9.1,18.8-9.3c-0.1-0.2-0.1-0.4-0.1-0.7h2.8c0.1,0,0.1,0,0.1-0.1c0,0,0-0.1,0-0.2
		c0-0.3,0-0.6-0.1-0.8c-0.1-0.2-0.2-0.4-0.4-0.6c-0.2-0.2-0.3-0.3-0.6-0.4c-0.2-0.1-0.5-0.1-0.7-0.1c-0.3,0-0.6,0.1-0.8,0.2
		c-0.2,0.1-0.5,0.3-0.6,0.4c-0.2,0.2-0.3,0.4-0.4,0.7C18-10.7,18-10.4,18-10.1c0,0.4,0.1,0.7,0.2,1c0.1,0.3,0.2,0.5,0.4,0.7
		C18.8-8.3,19-8.1,19.2-8c0.2,0.1,0.5,0.1,0.8,0.1c0.2,0,0.3,0,0.5,0c0.2,0,0.3-0.1,0.5-0.1c0.1-0.1,0.3-0.1,0.4-0.2
		c0.1-0.1,0.2-0.2,0.3-0.3L21.5-8.8L21.5-8.8z M24.8-14.1v6.2h0.7v-6.2H24.8L24.8-14.1z M27.7-12.1c-0.2,0.1-0.5,0.2-0.6,0.4
		c-0.2,0.2-0.3,0.4-0.4,0.7c-0.1,0.3-0.1,0.6-0.1,0.9c0,0.3,0,0.6,0.1,0.9c0.1,0.3,0.2,0.5,0.4,0.7c0.2,0.2,0.4,0.3,0.6,0.4
		c0.2,0.1,0.5,0.2,0.8,0.2c0.3,0,0.6-0.1,0.8-0.2c0.2-0.1,0.5-0.2,0.6-0.4c0.2-0.2,0.3-0.4,0.4-0.7c0.1-0.3,0.1-0.6,0.1-0.9
		c0-0.3,0-0.6-0.1-0.9c-0.1-0.3-0.2-0.5-0.4-0.7c-0.2-0.2-0.4-0.3-0.6-0.4c-0.2-0.1-0.5-0.2-0.8-0.2C28.2-12.2,27.9-12.2,27.7-12.1
		L27.7-12.1z M27.6-8.9c-0.2-0.3-0.3-0.7-0.3-1.2c0-0.3,0-0.5,0.1-0.7c0.1-0.2,0.1-0.4,0.2-0.5c0.1-0.1,0.2-0.2,0.4-0.3
		c0.2-0.1,0.3-0.1,0.6-0.1c0.4,0,0.7,0.1,0.9,0.4c0.2,0.3,0.3,0.7,0.3,1.2c0,0.5-0.1,0.9-0.3,1.2c-0.2,0.3-0.5,0.4-0.9,0.4
		C28.1-8.4,27.8-8.6,27.6-8.9L27.6-8.9z M32.6-10.1c-0.1,0-0.2-0.1-0.3-0.2c-0.1-0.1-0.1-0.2-0.2-0.3c0-0.1-0.1-0.2-0.1-0.3
		c0-0.3,0.1-0.5,0.2-0.6c0.2-0.2,0.4-0.2,0.7-0.2c0.3,0,0.5,0.1,0.7,0.2c0.2,0.2,0.2,0.4,0.2,0.6c0,0.1,0,0.2-0.1,0.3
		c0,0.1-0.1,0.2-0.2,0.3c-0.1,0.1-0.2,0.1-0.3,0.2c-0.1,0-0.2,0.1-0.4,0.1C32.8-10,32.7-10,32.6-10.1L32.6-10.1z M34.2-7.4
		c-0.1,0.1-0.1,0.2-0.3,0.2C33.8-7.1,33.7-7,33.5-7c-0.2,0-0.3,0.1-0.5,0.1c-0.2,0-0.4,0-0.5-0.1c-0.2,0-0.3-0.1-0.4-0.1
		c-0.1-0.1-0.2-0.1-0.2-0.2c0-0.1-0.1-0.2-0.1-0.3c0-0.1,0-0.3,0.1-0.4c0.1-0.1,0.2-0.2,0.4-0.3c0.1,0,0.3,0,0.4,0
		c0.2,0,0.3,0,0.4,0c0.1,0,0.3,0,0.4,0c0.1,0,0.2,0,0.3,0.1c0.1,0,0.2,0.1,0.2,0.2c0.1,0.1,0.1,0.1,0.1,0.3
		C34.3-7.6,34.3-7.5,34.2-7.4L34.2-7.4z M33.9-12c-0.1-0.1-0.3-0.1-0.4-0.2c-0.2,0-0.3-0.1-0.5-0.1c-0.2,0-0.5,0-0.6,0.1
		c-0.2,0.1-0.4,0.2-0.5,0.3c-0.1,0.1-0.3,0.3-0.3,0.4c-0.1,0.2-0.1,0.4-0.1,0.6c0,0.3,0.1,0.5,0.2,0.7c0.1,0.2,0.3,0.3,0.5,0.5
		c-0.1,0-0.2,0.1-0.2,0.2c-0.1,0.1-0.1,0.1-0.2,0.2c0,0.1-0.1,0.1-0.1,0.2c0,0.1,0,0.1,0,0.2c0,0.2,0,0.3,0.1,0.4
		c0.1,0.1,0.2,0.2,0.3,0.2c-0.2,0.1-0.4,0.2-0.5,0.3c-0.1,0.1-0.2,0.3-0.2,0.5c0,0.1,0,0.3,0.1,0.4c0.1,0.1,0.2,0.3,0.3,0.4
		c0.2,0.1,0.3,0.2,0.6,0.2c0.2,0.1,0.5,0.1,0.8,0.1s0.6,0,0.8-0.1c0.2-0.1,0.5-0.2,0.6-0.3c0.2-0.1,0.3-0.3,0.4-0.5
		C34.9-7.5,35-7.6,35-7.8c0-0.2,0-0.4-0.1-0.5c-0.1-0.1-0.2-0.2-0.3-0.3c-0.1-0.1-0.3-0.1-0.5-0.2c-0.2,0-0.3-0.1-0.5-0.1
		c-0.2,0-0.4,0-0.5,0c-0.2,0-0.3,0-0.5,0c-0.1,0-0.2-0.1-0.3-0.1c-0.1-0.1-0.1-0.1-0.1-0.2c0-0.1,0-0.1,0.1-0.2
		c0-0.1,0.1-0.1,0.2-0.2c0.2,0,0.4,0.1,0.6,0.1c0.2,0,0.4,0,0.6-0.1c0.2-0.1,0.4-0.2,0.5-0.3c0.1-0.1,0.2-0.3,0.3-0.4
		c0.1-0.2,0.1-0.4,0.1-0.6c0-0.2,0-0.4-0.1-0.6l0.5-0.1c0.1,0,0.2-0.1,0.2-0.2V-12H33.9L33.9-12z M36.8-12.1
		c-0.2,0.1-0.5,0.2-0.6,0.4c-0.2,0.2-0.3,0.4-0.4,0.7c-0.1,0.3-0.1,0.6-0.1,0.9c0,0.3,0,0.6,0.1,0.9c0.1,0.3,0.2,0.5,0.4,0.7
		c0.2,0.2,0.4,0.3,0.6,0.4c0.2,0.1,0.5,0.2,0.8,0.2c0.3,0,0.6-0.1,0.8-0.2c0.2-0.1,0.5-0.2,0.6-0.4c0.2-0.2,0.3-0.4,0.4-0.7
		c0.1-0.3,0.1-0.6,0.1-0.9c0-0.3,0-0.6-0.1-0.9c-0.1-0.3-0.2-0.5-0.4-0.7c-0.2-0.2-0.4-0.3-0.6-0.4c-0.2-0.1-0.5-0.2-0.8-0.2
		C37.3-12.2,37-12.2,36.8-12.1L36.8-12.1z M36.6-8.9c-0.2-0.3-0.3-0.7-0.3-1.2c0-0.3,0-0.5,0.1-0.7c0.1-0.2,0.1-0.4,0.2-0.5
		c0.1-0.1,0.2-0.2,0.4-0.3c0.2-0.1,0.3-0.1,0.6-0.1c0.4,0,0.7,0.1,0.9,0.4c0.2,0.3,0.3,0.7,0.3,1.2c0,0.5-0.1,0.9-0.3,1.2
		c-0.2,0.3-0.5,0.4-0.9,0.4C37.2-8.4,36.9-8.6,36.6-8.9L36.6-8.9z"/>
	<path class="st0" d="M47.8-12.2c-0.1,0-0.1,0-0.1,0c0,0-0.1,0.1-0.1,0.1l-0.8,2.7c0,0.1,0,0.2-0.1,0.3c0,0.1,0,0.2-0.1,0.3
		c0-0.1,0-0.2-0.1-0.3c0-0.1-0.1-0.2-0.1-0.3L45.6-12c0,0,0-0.1-0.1-0.1c0,0-0.1,0-0.1,0H45c-0.1,0-0.1,0-0.1,0c0,0-0.1,0.1-0.1,0.1
		l-0.9,2.7c0,0.1-0.1,0.2-0.1,0.3c0,0.1-0.1,0.2-0.1,0.3c0-0.2-0.1-0.4-0.1-0.6L42.9-12c0,0,0-0.1-0.1-0.1c0,0-0.1,0-0.1,0H42
		l1.4,4.2H44c0.1,0,0.1,0,0.2-0.1l1-2.9c0-0.1,0-0.1,0.1-0.2c0-0.1,0-0.1,0-0.2c0,0.1,0,0.1,0,0.2c0,0.1,0,0.1,0.1,0.2l0.9,2.9
		c0,0.1,0.1,0.1,0.2,0.1H47l1.4-4.2H47.8L47.8-12.2z M49.1-12.2v4.2h0.7v-4.2H49.1L49.1-12.2z M50-13.7c0-0.1-0.1-0.1-0.1-0.2
		c0,0-0.1-0.1-0.2-0.1c-0.1,0-0.1,0-0.2,0c-0.1,0-0.1,0-0.2,0c-0.1,0-0.1,0.1-0.2,0.1c0,0-0.1,0.1-0.1,0.2c0,0.1,0,0.1,0,0.2
		c0,0.1,0,0.1,0,0.2c0,0.1,0.1,0.1,0.1,0.2c0,0,0.1,0.1,0.2,0.1c0.1,0,0.1,0,0.2,0c0.1,0,0.1,0,0.2,0c0.1,0,0.1-0.1,0.2-0.1
		c0,0,0.1-0.1,0.1-0.2c0-0.1,0-0.1,0-0.2C50-13.6,50-13.6,50-13.7L50-13.7z M52.9-8c0.2-0.1,0.3-0.2,0.5-0.3l-0.2-0.4
		c0,0-0.1-0.1-0.1-0.1c0,0,0,0-0.1,0c0,0-0.1,0-0.1,0.1c0,0-0.1,0-0.1,0.1c-0.1,0-0.1,0-0.2,0c-0.1,0-0.2,0-0.3-0.1
		c-0.1-0.1-0.1-0.2-0.1-0.4v-2.5h1.2v-0.5h-1.2v-1.5h-0.4c0,0-0.1,0-0.1,0c0,0,0,0.1-0.1,0.1l-0.2,1.3L50.7-12v0.3
		c0,0.1,0,0.1,0,0.1c0,0,0.1,0,0.1,0h0.5v2.6c0,0.4,0.1,0.6,0.3,0.8C51.8-8,52-7.9,52.4-7.9C52.6-7.9,52.8-7.9,52.9-8L52.9-8z
		 M54.8-14.1h-0.7v6.2h0.7v-3.1c0.2-0.2,0.3-0.3,0.5-0.4c0.2-0.1,0.4-0.2,0.6-0.2c0.3,0,0.5,0.1,0.7,0.3c0.1,0.2,0.2,0.4,0.2,0.7
		v2.7h0.7v-2.7c0-0.2,0-0.5-0.1-0.7c-0.1-0.2-0.2-0.4-0.3-0.5c-0.1-0.1-0.3-0.2-0.4-0.3c-0.2-0.1-0.4-0.1-0.6-0.1
		c-0.3,0-0.5,0.1-0.8,0.2c-0.2,0.1-0.4,0.3-0.6,0.5V-14.1L54.8-14.1z M62.8-8c0.2-0.1,0.3-0.2,0.5-0.3L63-8.6c0,0-0.1-0.1-0.1-0.1
		c0,0,0,0-0.1,0c0,0-0.1,0-0.1,0.1c0,0-0.1,0-0.1,0.1c-0.1,0-0.1,0-0.2,0c-0.1,0-0.2,0-0.3-0.1C62-8.7,61.9-8.8,61.9-9v-2.5h1.2
		v-0.5h-1.2v-1.5h-0.4c0,0-0.1,0-0.1,0c0,0,0,0.1-0.1,0.1l-0.2,1.3L60.5-12v0.3c0,0.1,0,0.1,0,0.1c0,0,0.1,0,0.1,0h0.5v2.6
		c0,0.4,0.1,0.6,0.3,0.8c0.2,0.2,0.4,0.3,0.8,0.3C62.4-7.9,62.6-7.9,62.8-8L62.8-8z M64.7-14.1h-0.7v6.2h0.7v-3.1
		c0.2-0.2,0.3-0.3,0.5-0.4c0.2-0.1,0.4-0.2,0.6-0.2c0.3,0,0.5,0.1,0.7,0.3c0.1,0.2,0.2,0.4,0.2,0.7v2.7h0.7v-2.7
		c0-0.2,0-0.5-0.1-0.7c-0.1-0.2-0.2-0.4-0.3-0.5c-0.1-0.1-0.3-0.2-0.4-0.3c-0.2-0.1-0.4-0.1-0.6-0.1c-0.3,0-0.5,0.1-0.8,0.2
		c-0.2,0.1-0.4,0.3-0.6,0.5V-14.1L64.7-14.1z M69.1-10.5c0.1-0.4,0.2-0.7,0.4-0.9c0.2-0.2,0.5-0.3,0.8-0.3c0.2,0,0.3,0,0.5,0.1
		c0.1,0.1,0.2,0.1,0.3,0.2c0.1,0.1,0.2,0.2,0.2,0.4c0,0.1,0.1,0.3,0.1,0.5H69.1L69.1-10.5z M71.8-8.8c0,0-0.1-0.1-0.1-0.1
		c0,0-0.1,0-0.2,0.1c-0.1,0-0.1,0.1-0.2,0.1c-0.1,0.1-0.2,0.1-0.3,0.1c-0.1,0-0.3,0.1-0.5,0.1c-0.2,0-0.4,0-0.5-0.1
		c-0.2-0.1-0.3-0.2-0.4-0.3c-0.1-0.1-0.2-0.3-0.3-0.5c-0.1-0.2-0.1-0.4-0.1-0.7h2.8c0.1,0,0.1,0,0.1-0.1c0,0,0-0.1,0-0.2
		c0-0.3,0-0.6-0.1-0.8c-0.1-0.2-0.2-0.4-0.4-0.6c-0.2-0.2-0.3-0.3-0.6-0.4c-0.2-0.1-0.5-0.1-0.7-0.1c-0.3,0-0.6,0.1-0.8,0.2
		c-0.2,0.1-0.5,0.3-0.6,0.4c-0.2,0.2-0.3,0.4-0.4,0.7c-0.1,0.3-0.1,0.5-0.1,0.8c0,0.4,0.1,0.7,0.2,1c0.1,0.3,0.2,0.5,0.4,0.7
		c0.2,0.2,0.4,0.3,0.6,0.4c0.2,0.1,0.5,0.1,0.8,0.1c0.2,0,0.3,0,0.5,0C71-7.9,71.1-8,71.3-8c0.1-0.1,0.3-0.1,0.4-0.2
		c0.1-0.1,0.2-0.2,0.3-0.3L71.8-8.8L71.8-8.8z M77.4-9c-0.1,0.1-0.2,0.2-0.3,0.2c-0.1,0.1-0.2,0.1-0.3,0.2c-0.1,0.1-0.2,0.1-0.3,0.1
		c-0.1,0-0.2,0-0.4,0c-0.1,0-0.2,0-0.3,0c-0.1,0-0.2-0.1-0.2-0.1c-0.1-0.1-0.1-0.1-0.1-0.2c0-0.1-0.1-0.2-0.1-0.3
		c0-0.1,0-0.2,0.1-0.3c0.1-0.1,0.2-0.2,0.3-0.2c0.2-0.1,0.3-0.1,0.6-0.2c0.2,0,0.5-0.1,0.9-0.1V-9L77.4-9z M75.2-11.3
		C75.2-11.3,75.2-11.3,75.2-11.3c0.1,0.1,0.2,0.1,0.2,0.1c0.1,0,0.1,0,0.2-0.1c0.1,0,0.1-0.1,0.2-0.2c0.1-0.1,0.2-0.1,0.3-0.2
		c0.1,0,0.3-0.1,0.5-0.1c0.3,0,0.5,0.1,0.6,0.3s0.2,0.4,0.2,0.7v0.3c-0.5,0-0.9,0.1-1.2,0.1c-0.3,0.1-0.6,0.2-0.8,0.3
		c-0.2,0.1-0.4,0.3-0.4,0.4S74.8-9.2,74.8-9c0,0.2,0,0.4,0.1,0.5c0.1,0.1,0.1,0.3,0.3,0.3C75.3-8,75.4-8,75.6-7.9
		c0.1,0,0.3,0.1,0.5,0.1c0.2,0,0.3,0,0.4,0c0.1,0,0.3-0.1,0.4-0.1c0.1-0.1,0.2-0.1,0.3-0.2c0.1-0.1,0.2-0.2,0.3-0.3l0.1,0.4
		C77.6-8,77.6-8,77.7-8c0,0,0.1,0,0.2,0h0.3v-2.7c0-0.2,0-0.5-0.1-0.7c-0.1-0.2-0.2-0.4-0.3-0.5c-0.1-0.1-0.3-0.2-0.5-0.3
		c-0.2-0.1-0.4-0.1-0.6-0.1c-0.3,0-0.6,0.1-0.9,0.2c-0.3,0.1-0.5,0.3-0.8,0.5L75.2-11.3L75.2-11.3z M79.3-14.1v6.2h0.7v-6.2H79.3
		L79.3-14.1z M83.6-9c-0.1,0.1-0.2,0.2-0.3,0.2c-0.1,0.1-0.2,0.1-0.3,0.2c-0.1,0.1-0.2,0.1-0.3,0.1c-0.1,0-0.2,0-0.4,0
		c-0.1,0-0.2,0-0.3,0c-0.1,0-0.2-0.1-0.2-0.1c-0.1-0.1-0.1-0.1-0.1-0.2c0-0.1-0.1-0.2-0.1-0.3c0-0.1,0-0.2,0.1-0.3
		c0.1-0.1,0.2-0.2,0.3-0.2c0.2-0.1,0.3-0.1,0.6-0.2c0.2,0,0.5-0.1,0.9-0.1V-9L83.6-9z M81.3-11.3C81.3-11.3,81.4-11.3,81.3-11.3
		c0.1,0.1,0.2,0.1,0.2,0.1c0.1,0,0.1,0,0.2-0.1c0.1,0,0.1-0.1,0.2-0.2c0.1-0.1,0.2-0.1,0.3-0.2c0.1,0,0.3-0.1,0.5-0.1
		c0.3,0,0.5,0.1,0.6,0.3s0.2,0.4,0.2,0.7v0.3c-0.5,0-0.9,0.1-1.2,0.1c-0.3,0.1-0.6,0.2-0.8,0.3c-0.2,0.1-0.4,0.3-0.4,0.4
		S81-9.2,81-9c0,0.2,0,0.4,0.1,0.5c0.1,0.1,0.1,0.3,0.3,0.3C81.4-8,81.6-8,81.7-7.9c0.1,0,0.3,0.1,0.5,0.1c0.2,0,0.3,0,0.4,0
		C82.7-7.9,82.9-8,83-8c0.1-0.1,0.2-0.1,0.3-0.2c0.1-0.1,0.2-0.2,0.3-0.3l0.1,0.4C83.7-8,83.8-8,83.8-8c0,0,0.1,0,0.2,0h0.3v-2.7
		c0-0.2,0-0.5-0.1-0.7c-0.1-0.2-0.2-0.4-0.3-0.5c-0.1-0.1-0.3-0.2-0.5-0.3c-0.2-0.1-0.4-0.1-0.6-0.1c-0.3,0-0.6,0.1-0.9,0.2
		c-0.3,0.1-0.5,0.3-0.8,0.5L81.3-11.3L81.3-11.3z M88.1-11.7c-0.2-0.2-0.4-0.3-0.6-0.4c-0.2-0.1-0.5-0.1-0.8-0.1
		c-0.2,0-0.5,0-0.6,0.1c-0.2,0.1-0.3,0.2-0.5,0.3c-0.1,0.1-0.2,0.2-0.3,0.4c-0.1,0.1-0.1,0.3-0.1,0.5c0,0.2,0,0.3,0.1,0.5
		c0.1,0.1,0.1,0.2,0.2,0.3c0.1,0.1,0.2,0.2,0.4,0.2c0.1,0.1,0.3,0.1,0.4,0.2c0.1,0,0.3,0.1,0.4,0.1c0.1,0,0.3,0.1,0.4,0.1
		c0.1,0.1,0.2,0.1,0.2,0.2s0.1,0.2,0.1,0.3c0,0.1,0,0.2-0.1,0.3c0,0.1-0.1,0.2-0.2,0.2c-0.1,0.1-0.2,0.1-0.3,0.2
		c-0.1,0-0.2,0.1-0.4,0.1c-0.2,0-0.3,0-0.4-0.1c-0.1,0-0.2-0.1-0.3-0.1c-0.1,0-0.1-0.1-0.2-0.1c-0.1,0-0.1-0.1-0.2-0.1
		c0,0-0.1,0-0.1,0c0,0-0.1,0-0.1,0.1l-0.2,0.3c0.2,0.2,0.4,0.3,0.6,0.4c0.2,0.1,0.5,0.1,0.8,0.1c0.3,0,0.5,0,0.7-0.1
		c0.2-0.1,0.4-0.2,0.5-0.3c0.1-0.1,0.2-0.3,0.3-0.4c0.1-0.2,0.1-0.3,0.1-0.5c0-0.2,0-0.3-0.1-0.4C88-9.8,87.9-9.9,87.8-10
		c-0.1-0.1-0.2-0.2-0.4-0.2c-0.1-0.1-0.3-0.1-0.4-0.2c-0.1,0-0.3-0.1-0.4-0.1c-0.1,0-0.2-0.1-0.4-0.1c-0.1-0.1-0.2-0.1-0.2-0.2
		C86-10.9,86-11,86-11.1c0-0.1,0-0.2,0.1-0.2c0-0.1,0.1-0.1,0.2-0.2c0.1-0.1,0.2-0.1,0.3-0.1c0.1,0,0.2,0,0.3,0c0.1,0,0.3,0,0.4,0
		c0.1,0,0.2,0.1,0.3,0.1c0.1,0,0.1,0.1,0.2,0.1c0.1,0,0.1,0,0.1,0c0.1,0,0.1,0,0.2-0.1L88.1-11.7L88.1-11.7z M92.2-11.7
		c-0.2-0.2-0.4-0.3-0.6-0.4c-0.2-0.1-0.5-0.1-0.8-0.1c-0.3,0-0.6,0.1-0.9,0.2c-0.2,0.1-0.5,0.3-0.6,0.5c-0.2,0.2-0.3,0.4-0.4,0.7
		c-0.1,0.3-0.1,0.6-0.1,0.9c0,0.3,0,0.7,0.1,0.9c0.1,0.3,0.2,0.5,0.4,0.7C89.5-8.3,89.7-8.1,90-8c0.2,0.1,0.5,0.1,0.7,0.1
		c0.2,0,0.3,0,0.5,0c0.1,0,0.3-0.1,0.4-0.1c0.1-0.1,0.3-0.1,0.4-0.2c0.1-0.1,0.2-0.2,0.3-0.3l-0.2-0.3c0,0-0.1-0.1-0.1-0.1
		c-0.1,0-0.1,0-0.2,0.1c-0.1,0-0.1,0.1-0.2,0.1c-0.1,0.1-0.2,0.1-0.3,0.1c-0.1,0-0.3,0.1-0.4,0.1c-0.2,0-0.4,0-0.5-0.1
		c-0.2-0.1-0.3-0.2-0.4-0.3c-0.1-0.1-0.2-0.3-0.2-0.5c-0.1-0.2-0.1-0.4-0.1-0.7c0-0.2,0-0.5,0.1-0.7c0.1-0.2,0.1-0.4,0.2-0.5
		c0.1-0.1,0.2-0.2,0.4-0.3c0.2-0.1,0.3-0.1,0.6-0.1c0.2,0,0.3,0,0.4,0.1c0.1,0,0.2,0.1,0.3,0.1c0.1,0,0.1,0.1,0.2,0.1
		c0.1,0,0.1,0.1,0.1,0.1c0,0,0.1,0,0.1,0c0,0,0,0,0.1-0.1L92.2-11.7L92.2-11.7z M94-12.1c-0.2,0.1-0.5,0.2-0.6,0.4
		c-0.2,0.2-0.3,0.4-0.4,0.7c-0.1,0.3-0.1,0.6-0.1,0.9c0,0.3,0,0.6,0.1,0.9c0.1,0.3,0.2,0.5,0.4,0.7C93.6-8.3,93.8-8.1,94-8
		c0.2,0.1,0.5,0.2,0.8,0.2c0.3,0,0.6-0.1,0.8-0.2c0.2-0.1,0.5-0.2,0.6-0.4c0.2-0.2,0.3-0.4,0.4-0.7c0.1-0.3,0.1-0.6,0.1-0.9
		c0-0.3,0-0.6-0.1-0.9c-0.1-0.3-0.2-0.5-0.4-0.7c-0.2-0.2-0.4-0.3-0.6-0.4c-0.2-0.1-0.5-0.2-0.8-0.2C94.6-12.2,94.3-12.2,94-12.1
		L94-12.1z M93.9-8.9c-0.2-0.3-0.3-0.7-0.3-1.2c0-0.3,0-0.5,0.1-0.7c0.1-0.2,0.1-0.4,0.2-0.5c0.1-0.1,0.2-0.2,0.4-0.3
		c0.2-0.1,0.3-0.1,0.6-0.1c0.4,0,0.7,0.1,0.9,0.4c0.2,0.3,0.3,0.7,0.3,1.2c0,0.5-0.1,0.9-0.3,1.2c-0.2,0.3-0.5,0.4-0.9,0.4
		C94.4-8.4,94.1-8.6,93.9-8.9L93.9-8.9z M101.8-8c0.2-0.1,0.3-0.2,0.5-0.3l-0.2-0.4c0,0-0.1-0.1-0.1-0.1c0,0,0,0-0.1,0
		c0,0-0.1,0-0.1,0.1c0,0-0.1,0-0.1,0.1c-0.1,0-0.1,0-0.2,0c-0.1,0-0.2,0-0.3-0.1C101-8.7,101-8.8,101-9v-2.5h1.2v-0.5H101v-1.5h-0.4
		c0,0-0.1,0-0.1,0c0,0,0,0.1-0.1,0.1l-0.2,1.3L99.6-12v0.3c0,0.1,0,0.1,0,0.1c0,0,0.1,0,0.1,0h0.5v2.6c0,0.4,0.1,0.6,0.3,0.8
		c0.2,0.2,0.4,0.3,0.8,0.3C101.5-7.9,101.7-7.9,101.8-8L101.8-8z M106-12.2c-0.1,0-0.1,0-0.1,0c0,0-0.1,0.1-0.1,0.1l-1.1,2.7
		c0,0.1-0.1,0.2-0.1,0.4c0-0.1-0.1-0.3-0.1-0.4l-1.1-2.7c0,0,0-0.1-0.1-0.1c0,0-0.1,0-0.2,0h-0.6l1.8,4l-0.8,1.7h0.6
		c0.1,0,0.1,0,0.2-0.1c0,0,0.1-0.1,0.1-0.1l2.4-5.5H106L106-12.2z M108-11c0.2-0.2,0.3-0.4,0.5-0.5c0.2-0.1,0.4-0.2,0.6-0.2
		c0.2,0,0.3,0,0.5,0.1c0.1,0.1,0.2,0.2,0.3,0.3c0.1,0.1,0.2,0.3,0.2,0.5c0,0.2,0.1,0.4,0.1,0.7c0,0.5-0.1,0.9-0.3,1.2
		c-0.2,0.3-0.5,0.4-0.9,0.4c-0.2,0-0.4,0-0.5-0.1c-0.2-0.1-0.3-0.2-0.4-0.4V-11L108-11z M107.9-12c0-0.1-0.1-0.2-0.2-0.2h-0.4v5.7
		h0.7v-1.9c0.1,0.2,0.3,0.3,0.5,0.4c0.2,0.1,0.4,0.1,0.7,0.1c0.3,0,0.5-0.1,0.8-0.2c0.2-0.1,0.4-0.3,0.6-0.5
		c0.2-0.2,0.3-0.4,0.4-0.7c0.1-0.3,0.1-0.6,0.1-0.9c0-0.4,0-0.7-0.1-0.9c-0.1-0.3-0.2-0.5-0.3-0.7c-0.1-0.2-0.3-0.3-0.5-0.4
		c-0.2-0.1-0.4-0.1-0.7-0.1c-0.3,0-0.6,0.1-0.8,0.2c-0.2,0.1-0.4,0.3-0.6,0.5L107.9-12L107.9-12z M112.5-10.5
		c0.1-0.4,0.2-0.7,0.4-0.9c0.2-0.2,0.5-0.3,0.8-0.3c0.2,0,0.3,0,0.5,0.1c0.1,0.1,0.2,0.1,0.3,0.2c0.1,0.1,0.2,0.2,0.2,0.4
		c0,0.1,0.1,0.3,0.1,0.5H112.5L112.5-10.5z M115.2-8.8c0,0-0.1-0.1-0.1-0.1c0,0-0.1,0-0.2,0.1c-0.1,0-0.1,0.1-0.2,0.1
		c-0.1,0.1-0.2,0.1-0.3,0.1c-0.1,0-0.3,0.1-0.5,0.1c-0.2,0-0.4,0-0.5-0.1c-0.2-0.1-0.3-0.2-0.4-0.3c-0.1-0.1-0.2-0.3-0.3-0.5
		c-0.1-0.2-0.1-0.4-0.1-0.7h2.8c0.1,0,0.1,0,0.1-0.1c0,0,0-0.1,0-0.2c0-0.3,0-0.6-0.1-0.8c-0.1-0.2-0.2-0.4-0.4-0.6
		c-0.2-0.2-0.3-0.3-0.6-0.4c-0.2-0.1-0.5-0.1-0.7-0.1c-0.3,0-0.6,0.1-0.8,0.2c-0.2,0.1-0.5,0.3-0.6,0.4c-0.2,0.2-0.3,0.4-0.4,0.7
		c-0.1,0.3-0.1,0.5-0.1,0.8c0,0.4,0.1,0.7,0.2,1c0.1,0.3,0.2,0.5,0.4,0.7c0.2,0.2,0.4,0.3,0.6,0.4c0.2,0.1,0.5,0.1,0.8,0.1
		c0.2,0,0.3,0,0.5,0c0.2,0,0.3-0.1,0.5-0.1c0.1-0.1,0.3-0.1,0.4-0.2c0.1-0.1,0.2-0.2,0.3-0.3L115.2-8.8L115.2-8.8z M116.3-8.2
		c0,0.1,0.1,0.1,0.1,0.2c0,0,0.1,0.1,0.2,0.1c0.1,0,0.1,0,0.2,0c0.1,0,0.1,0,0.2,0c0.1,0,0.1-0.1,0.2-0.1c0,0,0.1-0.1,0.1-0.2
		c0-0.1,0-0.1,0-0.2c0-0.1,0-0.1,0-0.2c0-0.1-0.1-0.1-0.1-0.2c0,0-0.1-0.1-0.2-0.1c-0.1,0-0.1,0-0.2,0c-0.1,0-0.1,0-0.2,0
		c-0.1,0-0.1,0.1-0.2,0.1c0,0-0.1,0.1-0.1,0.2c0,0.1,0,0.1,0,0.2C116.3-8.3,116.3-8.2,116.3-8.2L116.3-8.2z"/>
	<g>
		<defs>
			<rect id="SVGID_1_" x="8.1" y="13" width="474.7" height="74.5"/>
		</defs>
		<defs>
			<path id="SVGID_2_" d="M55.8,13H34.8c-2.8,0-5.5,1.1-7.4,3.1L11.1,32.3c-2,2-3.1,4.7-3.1,7.4v21.1c0,1.3,0.2,2.5,0.7,3.7
				l50.8-50.8C58.3,13.3,57.1,13,55.8,13"/>
		</defs>
		<clipPath id="SVGID_3_">
			<use xlink:href="#SVGID_1_"  style="overflow:visible;"/>
		</clipPath>
		<clipPath id="SVGID_4_" class="st1">
			<use xlink:href="#SVGID_2_"  style="overflow:visible;"/>
		</clipPath>
		<rect x="5.7" y="10.7" class="st2" width="56.1" height="56.1"/>
	</g>
	<g>
		<defs>
			<rect id="SVGID_5_" x="8.1" y="13" width="474.7" height="74.5"/>
		</defs>
		<defs>
			<path id="SVGID_6_" d="M79.4,32.3L63.9,16.7L49,31.6l32.8,32.8c0.4-1.2,0.7-2.4,0.7-3.7V39.7C82.5,36.9,81.4,34.2,79.4,32.3"/>
		</defs>
		<clipPath id="SVGID_7_">
			<use xlink:href="#SVGID_5_"  style="overflow:visible;"/>
		</clipPath>
		<clipPath id="SVGID_8_" class="st3">
			<use xlink:href="#SVGID_6_"  style="overflow:visible;"/>
		</clipPath>
		<rect x="46.7" y="14.4" class="st4" width="38.2" height="52.4"/>
	</g>
	<g>
		<defs>
			<rect id="SVGID_9_" x="8.1" y="13" width="474.7" height="74.5"/>
		</defs>
		<defs>
			<path id="SVGID_10_" d="M55.8,50.2H34.8c-1.3,0-2.5,0.2-3.7,0.7l32.8,32.8l14.9-14.9L63.3,53.3C61.3,51.4,58.6,50.2,55.8,50.2"/>
		</defs>
		<clipPath id="SVGID_11_">
			<use xlink:href="#SVGID_9_"  style="overflow:visible;"/>
		</clipPath>
		<clipPath id="SVGID_12_" class="st5">
			<use xlink:href="#SVGID_10_"  style="overflow:visible;"/>
		</clipPath>
		<rect x="28.8" y="47.9" class="st6" width="52.4" height="38.2"/>
	</g>
	<g>
		<defs>
			<rect id="SVGID_13_" x="8.1" y="13" width="474.7" height="74.5"/>
		</defs>
		<defs>
			<polygon id="SVGID_14_" points="26.7,54 11.8,68.9 26.7,83.8 41.6,68.9 26.7,54 			"/>
		</defs>
		<clipPath id="SVGID_15_">
			<use xlink:href="#SVGID_13_"  style="overflow:visible;"/>
		</clipPath>
		<clipPath id="SVGID_16_" class="st7">
			<use xlink:href="#SVGID_14_"  style="overflow:visible;"/>
		</clipPath>
		<rect x="9.5" y="51.6" class="st8" width="34.4" height="34.4"/>
	</g>
	<g>
		<defs>
			<rect id="SVGID_17_" x="8.1" y="13" width="474.7" height="74.5"/>
		</defs>
		<defs>
			<path id="SVGID_18_" d="M31.1,86.8c1.2,0.4,2.4,0.7,3.7,0.7h21.1c1.3,0,2.5-0.2,3.7-0.7L45.3,72.6L31.1,86.8L31.1,86.8z"/>
		</defs>
		<clipPath id="SVGID_19_">
			<use xlink:href="#SVGID_17_"  style="overflow:visible;"/>
		</clipPath>
		<clipPath id="SVGID_20_" class="st9">
			<use xlink:href="#SVGID_18_"  style="overflow:visible;"/>
		</clipPath>
		<rect x="28.8" y="70.3" class="st10" width="33.1" height="19.5"/>
	</g>
	<g>
		<defs>
			<rect id="SVGID_21_" x="8.1" y="13" width="474.7" height="74.5"/>
		</defs>
		<defs>
			<path id="SVGID_22_" d="M328.3,13c5.7,0,10.2,1.6,13.4,4.8c3.2,3.2,4.8,7.6,4.8,13.3v2.5c0,1.3-0.7,2-2,2h-7.4c-1.3,0-2-0.6-2-2
				v-1.5c0-3.3-0.7-5.7-2.1-7.1c-1.4-1.4-3.8-2.1-7.1-2.1h-7.3c-3.3,0-5.7,0.8-7.1,2.3c-1.4,1.5-2.1,4.1-2.1,7.7v3.6
				c0,3.5,2.5,5.8,7.5,7.1c2.2,0.5,4.7,1,7.3,1.4c2.7,0.4,5.3,1,8,1.7c2.7,0.8,5.2,1.8,7.4,3.1c2.2,1.3,4,3.2,5.4,5.8
				c1.4,2.6,2.1,5.7,2.1,9.4v4.5c0,5.6-1.6,10-4.8,13.3c-3.2,3.2-7.6,4.8-13.2,4.8h-13c-5.6,0-10.1-1.6-13.3-4.8
				c-3.2-3.2-4.9-7.6-4.9-13.3v-3c0-1.3,0.7-2,2-2h7.4c1.3,0,2,0.7,2,2v2.1c0,3.2,0.7,5.6,2.1,7c1.4,1.4,3.8,2.1,7.1,2.1h8
				c3.3,0,5.7-0.8,7.2-2.3c1.5-1.5,2.2-4,2.2-7.4v-2.7c0-2.5-0.9-4.4-2.8-5.8c-1.9-1.4-4.2-2.4-7-2.8c-2.8-0.4-5.8-1-9.1-1.8
				c-3.3-0.8-6.4-1.7-9.1-2.7c-2.8-1-5.1-2.9-7-5.7C299,43.8,298,40.3,298,36v-4.9c0-5.6,1.6-10.1,4.8-13.3
				c3.2-3.2,7.6-4.8,13.3-4.8H328.3L328.3,13z M135.7,13c1.5,0,2.5,0.7,2.8,2l20.1,70.5c0.3,1.3-0.1,2-1.3,2h-8.2
				c-0.7,0-1.2-0.1-1.4-0.4c-0.3-0.3-0.5-0.8-0.6-1.6l-4.4-15.1h-25.5l-4.4,15.1c-0.3,1.3-1,2-2.1,2h-8.3c-1.1,0-1.5-0.7-1.2-2
				L121.4,15c0.4-1.3,1.3-2,2.8-2H135.7L135.7,13z M260.4,13c1.5,0,2.5,0.7,2.8,2l20.1,70.5c0.3,1.3-0.1,2-1.3,2h-8.2
				c-0.7,0-1.2-0.1-1.4-0.4c-0.3-0.3-0.5-0.8-0.6-1.6l-4.4-15.1h-25.5l-4.4,15.1c-0.3,1.3-1,2-2.1,2h-8.3c-1.1,0-1.5-0.7-1.2-2
				L246.1,15c0.4-1.3,1.3-2,2.8-2H260.4L260.4,13z M184,13c1.3,0,2,0.7,2,2v61.3c0,0.8,0.5,1.2,1.4,1.2h26.8c1.3,0,2,0.7,2,2.1v6
				c0,1.3-0.7,2-2,2h-37.5c-1.3,0-2-0.7-2-2V15c0-1.3,0.6-2,2-2H184L184,13z M397.6,13c5.6,0,10,1.6,13.2,4.7
				c3.2,3.1,4.7,7.5,4.7,13.3v5.6c0,1.4-0.7,2.1-2.1,2.1h-7.3c-1.3,0-2-0.7-2-2.1v-5.1c0-5.7-2.8-8.6-8.3-8.6h-10.1
				c-5.6,0-8.3,2.9-8.3,8.6v37.6c0,5.7,2.8,8.6,8.3,8.6h10.1c5.6,0,8.3-2.9,8.3-8.6V64c0-1.4,0.7-2.1,2-2.1h7.3
				c1.4,0,2.1,0.7,2.1,2.1v5.6c0,5.6-1.6,10-4.7,13.2c-3.2,3.2-7.6,4.7-13.2,4.7h-13.4c-5.7,0-10.1-1.6-13.2-4.7
				c-3.1-3.2-4.7-7.6-4.7-13.2V31c0-5.7,1.6-10.1,4.7-13.3c3.1-3.1,7.5-4.7,13.2-4.7H397.6L397.6,13z M464.7,13
				c5.7,0,10.1,1.6,13.3,4.7c3.2,3.1,4.7,7.5,4.7,13.3v38.6c0,5.6-1.6,10-4.7,13.2c-3.2,3.2-7.6,4.7-13.3,4.7h-13.4
				c-5.7,0-10.1-1.6-13.2-4.7c-3.1-3.2-4.7-7.6-4.7-13.2V31c0-5.7,1.6-10.1,4.7-13.3c3.1-3.1,7.5-4.7,13.2-4.7H464.7L464.7,13z
				 M463,22.9h-10.1c-5.6,0-8.3,2.9-8.3,8.6v37.6c0,5.7,2.8,8.6,8.3,8.6H463c5.6,0,8.4-2.8,8.4-8.6V31.4
				C471.4,25.7,468.6,22.9,463,22.9L463,22.9z M130.2,24.1h-0.5l-10.2,37.1h20.9L130.2,24.1L130.2,24.1z M254.9,24.1h-0.5
				l-10.2,37.1h20.9L254.9,24.1L254.9,24.1z"/>
		</defs>
		<clipPath id="SVGID_23_">
			<use xlink:href="#SVGID_21_"  style="overflow:visible;"/>
		</clipPath>
		<clipPath id="SVGID_24_" class="st11">
			<use xlink:href="#SVGID_22_"  style="overflow:visible;"/>
		</clipPath>
		<rect x="98.8" y="10.7" class="st12" width="386.3" height="79.1"/>
	</g>
	<g>
		<defs>
			<rect id="SVGID_25_" x="8.1" y="145.2" width="237.4" height="37.2"/>
		</defs>
		<defs>
			<path id="SVGID_26_" d="M31.9,145.2H21.4c-1.4,0-2.7,0.6-3.7,1.5l-8.1,8.1c-1,1-1.5,2.3-1.5,3.7v10.5c0,0.6,0.1,1.3,0.3,1.8
				l25.4-25.4C33.2,145.3,32.6,145.2,31.9,145.2"/>
		</defs>
		<clipPath id="SVGID_27_">
			<use xlink:href="#SVGID_25_"  style="overflow:visible;"/>
		</clipPath>
		<clipPath id="SVGID_28_" class="st13">
			<use xlink:href="#SVGID_26_"  style="overflow:visible;"/>
		</clipPath>
		<rect x="5.7" y="142.9" class="st14" width="30.4" height="30.4"/>
	</g>
	<g>
		<defs>
			<rect id="SVGID_29_" x="8.1" y="145.2" width="237.4" height="37.2"/>
		</defs>
		<defs>
			<path id="SVGID_30_" d="M43.8,154.8L36,147l-7.4,7.4L45,170.9c0.2-0.6,0.3-1.2,0.3-1.8v-10.5C45.3,157.1,44.7,155.8,43.8,154.8"
				/>
		</defs>
		<clipPath id="SVGID_31_">
			<use xlink:href="#SVGID_29_"  style="overflow:visible;"/>
		</clipPath>
		<clipPath id="SVGID_32_" class="st15">
			<use xlink:href="#SVGID_30_"  style="overflow:visible;"/>
		</clipPath>
		<rect x="26.2" y="144.7" class="st16" width="21.4" height="28.5"/>
	</g>
	<g>
		<defs>
			<rect id="SVGID_33_" x="8.1" y="145.2" width="237.4" height="37.2"/>
		</defs>
		<defs>
			<path id="SVGID_34_" d="M31.9,163.8H21.4c-0.6,0-1.3,0.1-1.8,0.3L36,180.6l7.4-7.4l-7.8-7.8C34.7,164.4,33.3,163.8,31.9,163.8"/>
		</defs>
		<clipPath id="SVGID_35_">
			<use xlink:href="#SVGID_33_"  style="overflow:visible;"/>
		</clipPath>
		<clipPath id="SVGID_36_" class="st17">
			<use xlink:href="#SVGID_34_"  style="overflow:visible;"/>
		</clipPath>
		<rect x="17.2" y="161.5" class="st18" width="28.5" height="21.4"/>
	</g>
	<g>
		<defs>
			<rect id="SVGID_37_" x="8.1" y="145.2" width="237.4" height="37.2"/>
		</defs>
		<defs>
			<polygon id="SVGID_38_" points="17.4,165.7 9.9,173.1 17.4,180.6 24.8,173.1 17.4,165.7 			"/>
		</defs>
		<clipPath id="SVGID_39_">
			<use xlink:href="#SVGID_37_"  style="overflow:visible;"/>
		</clipPath>
		<clipPath id="SVGID_40_" class="st19">
			<use xlink:href="#SVGID_38_"  style="overflow:visible;"/>
		</clipPath>
		<rect x="7.6" y="163.3" class="st20" width="19.5" height="19.5"/>
	</g>
	<g>
		<defs>
			<rect id="SVGID_41_" x="8.1" y="145.2" width="237.4" height="37.2"/>
		</defs>
		<defs>
			<path id="SVGID_42_" d="M19.6,182.1c0.6,0.2,1.2,0.3,1.8,0.3h10.5c0.6,0,1.3-0.1,1.8-0.3l-7.1-7.1L19.6,182.1L19.6,182.1z"/>
		</defs>
		<clipPath id="SVGID_43_">
			<use xlink:href="#SVGID_41_"  style="overflow:visible;"/>
		</clipPath>
		<clipPath id="SVGID_44_" class="st21">
			<use xlink:href="#SVGID_42_"  style="overflow:visible;"/>
		</clipPath>
		<rect x="17.2" y="172.6" class="st22" width="18.9" height="12.1"/>
	</g>
	<g>
		<defs>
			<rect id="SVGID_45_" x="8.1" y="145.2" width="237.4" height="37.2"/>
		</defs>
		<defs>
			<path id="SVGID_46_" d="M168.2,145.2c2.9,0,5.1,0.8,6.7,2.4c1.6,1.6,2.4,3.8,2.4,6.6v1.3c0,0.7-0.3,1-1,1h-3.7c-0.7,0-1-0.3-1-1
				v-0.8c0-1.7-0.4-2.8-1.1-3.6c-0.7-0.7-1.9-1.1-3.6-1.1h-3.6c-1.7,0-2.8,0.4-3.6,1.1c-0.7,0.8-1.1,2-1.1,3.9v1.8
				c0,1.7,1.3,2.9,3.8,3.5c1.1,0.3,2.3,0.5,3.7,0.7c1.3,0.2,2.7,0.5,4,0.9c1.3,0.4,2.6,0.9,3.7,1.5c1.1,0.6,2,1.6,2.7,2.9
				c0.7,1.3,1,2.9,1,4.7v2.3c0,2.8-0.8,5-2.4,6.6c-1.6,1.6-3.8,2.4-6.6,2.4h-6.5c-2.8,0-5-0.8-6.7-2.4c-1.6-1.6-2.4-3.8-2.4-6.6
				v-1.5c0-0.7,0.3-1,1-1h3.7c0.7,0,1,0.3,1,1v1c0,1.6,0.4,2.8,1.1,3.5c0.7,0.7,1.9,1.1,3.6,1.1h4c1.7,0,2.9-0.4,3.6-1.1
				c0.7-0.8,1.1-2,1.1-3.7v-1.3c0-1.2-0.5-2.2-1.4-2.9c-0.9-0.7-2.1-1.2-3.5-1.4c-1.4-0.2-2.9-0.5-4.6-0.9c-1.7-0.4-3.2-0.8-4.6-1.3
				c-1.4-0.5-2.6-1.4-3.5-2.8c-0.9-1.4-1.4-3.2-1.4-5.3v-2.4c0-2.8,0.8-5,2.4-6.6c1.6-1.6,3.8-2.4,6.6-2.4H168.2L168.2,145.2z
				 M71.9,145.2c0.8,0,1.2,0.3,1.4,1l10.1,35.3c0.2,0.7-0.1,1-0.6,1h-4.1c-0.3,0-0.6-0.1-0.7-0.2c-0.1-0.1-0.2-0.4-0.3-0.8l-2.2-7.5
				H62.6l-2.2,7.5c-0.2,0.7-0.5,1-1,1h-4.2c-0.5,0-0.7-0.3-0.6-1l10.1-35.3c0.2-0.7,0.7-1,1.4-1H71.9L71.9,145.2z M134.2,145.2
				c0.8,0,1.2,0.3,1.4,1l10.1,35.3c0.2,0.7-0.1,1-0.6,1H141c-0.3,0-0.6-0.1-0.7-0.2c-0.1-0.1-0.2-0.4-0.3-0.8l-2.2-7.5H125l-2.2,7.5
				c-0.2,0.7-0.5,1-1,1h-4.2c-0.5,0-0.7-0.3-0.6-1l10.1-35.3c0.2-0.7,0.7-1,1.4-1H134.2L134.2,145.2z M96,145.2c0.7,0,1,0.3,1,1
				v30.6c0,0.4,0.2,0.6,0.7,0.6h13.4c0.7,0,1,0.3,1,1v3c0,0.7-0.3,1-1,1H92.4c-0.7,0-1-0.3-1-1v-35.3c0-0.7,0.3-1,1-1H96L96,145.2z
				 M202.8,145.2c2.8,0,5,0.8,6.6,2.3c1.6,1.6,2.4,3.8,2.4,6.6v2.8c0,0.7-0.3,1-1,1h-3.6c-0.7,0-1-0.3-1-1v-2.5
				c0-2.9-1.4-4.3-4.2-4.3h-5c-2.8,0-4.2,1.4-4.2,4.3v18.8c0,2.9,1.4,4.3,4.2,4.3h5c2.8,0,4.2-1.4,4.2-4.3v-2.5c0-0.7,0.3-1,1-1h3.6
				c0.7,0,1,0.3,1,1v2.8c0,2.8-0.8,5-2.4,6.6c-1.6,1.6-3.8,2.4-6.6,2.4h-6.7c-2.9,0-5.1-0.8-6.6-2.4c-1.6-1.6-2.3-3.8-2.3-6.6v-19.3
				c0-2.9,0.8-5.1,2.3-6.6c1.6-1.6,3.8-2.3,6.6-2.3H202.8L202.8,145.2z M236.4,145.2c2.9,0,5.1,0.8,6.7,2.3c1.6,1.6,2.4,3.8,2.4,6.6
				v19.3c0,2.8-0.8,5-2.4,6.6c-1.6,1.6-3.8,2.4-6.7,2.4h-6.7c-2.9,0-5.1-0.8-6.6-2.4c-1.6-1.6-2.3-3.8-2.3-6.6v-19.3
				c0-2.9,0.8-5.1,2.3-6.6c1.6-1.6,3.8-2.3,6.6-2.3H236.4L236.4,145.2z M235.5,150.1h-5c-2.8,0-4.2,1.4-4.2,4.3v18.8
				c0,2.9,1.4,4.3,4.2,4.3h5c2.8,0,4.2-1.4,4.2-4.3v-18.8C239.7,151.5,238.3,150.1,235.5,150.1L235.5,150.1z M69.1,150.7h-0.2
				l-5.1,18.5h10.5L69.1,150.7L69.1,150.7z M131.5,150.7h-0.2l-5.1,18.5h10.5L131.5,150.7L131.5,150.7z"/>
		</defs>
		<clipPath id="SVGID_47_">
			<use xlink:href="#SVGID_45_"  style="overflow:visible;"/>
		</clipPath>
		<clipPath id="SVGID_48_" class="st23">
			<use xlink:href="#SVGID_46_"  style="overflow:visible;"/>
		</clipPath>
		<rect x="52.3" y="142.9" class="st24" width="195.5" height="41.9"/>
	</g>
	<path class="st0" d="M14.4,194.5c-0.1,0-0.1,0-0.2,0c0,0-0.1,0-0.1,0c0,0-0.1,0-0.1,0.1c0,0-0.1,0.1-0.1,0.1l-1.6,3.1
		c-0.1,0.1-0.1,0.2-0.2,0.3c-0.1,0.1-0.1,0.2-0.1,0.4c0-0.1-0.1-0.2-0.1-0.4c-0.1-0.1-0.1-0.2-0.2-0.3l-1.6-3.1
		c0-0.1-0.1-0.1-0.1-0.1c0,0-0.1-0.1-0.1-0.1c0,0-0.1,0-0.1,0c0,0-0.1,0-0.2,0H8.7v6.1h1.2v-3.5c0-0.1,0-0.2,0-0.3
		c0-0.1,0-0.2,0-0.3l1.6,3.1c0.1,0.1,0.1,0.2,0.2,0.2c0.1,0.1,0.2,0.1,0.3,0.1h0.2c0.1,0,0.2,0,0.3-0.1c0.1-0.1,0.2-0.1,0.2-0.2
		l1.6-3.1c0,0.1,0,0.2,0,0.3c0,0.1,0,0.2,0,0.3v3.5h1.2v-6.1H14.4L14.4,194.5z"/>
	<path class="st0" d="M17.5,197.9c0-0.3,0.1-0.5,0.3-0.6c0.1-0.1,0.3-0.2,0.6-0.2c0.1,0,0.3,0,0.4,0.1c0.1,0,0.2,0.1,0.2,0.2
		c0.1,0.1,0.1,0.2,0.1,0.3c0,0.1,0,0.2,0,0.3H17.5L17.5,197.9z M20,198.6c0.1,0,0.1,0,0.1,0c0,0,0.1,0,0.1-0.1c0,0,0-0.1,0-0.1
		c0-0.1,0-0.1,0-0.2c0-0.3,0-0.6-0.1-0.8c-0.1-0.2-0.2-0.5-0.4-0.6c-0.2-0.2-0.4-0.3-0.6-0.4c-0.2-0.1-0.5-0.1-0.8-0.1
		c-0.3,0-0.6,0.1-0.9,0.2c-0.3,0.1-0.5,0.3-0.7,0.5c-0.2,0.2-0.3,0.4-0.4,0.7c-0.1,0.3-0.1,0.5-0.1,0.8c0,0.4,0.1,0.7,0.2,1
		c0.1,0.3,0.3,0.5,0.5,0.7c0.2,0.2,0.4,0.3,0.7,0.4c0.3,0.1,0.6,0.1,0.9,0.1c0.1,0,0.3,0,0.5,0c0.2,0,0.3-0.1,0.5-0.1
		c0.2-0.1,0.3-0.1,0.5-0.2c0.2-0.1,0.3-0.2,0.4-0.4l-0.4-0.5c-0.1-0.1-0.1-0.1-0.2-0.1c-0.1,0-0.2,0-0.2,0.1c-0.1,0-0.1,0.1-0.2,0.1
		c-0.1,0-0.2,0.1-0.3,0.1c-0.1,0-0.2,0.1-0.4,0.1c-0.3,0-0.5-0.1-0.7-0.2c-0.2-0.2-0.3-0.4-0.3-0.8H20L20,198.6z M23.6,199.2
		c-0.1,0.1-0.1,0.1-0.2,0.2c-0.1,0.1-0.1,0.1-0.2,0.1c-0.1,0-0.1,0.1-0.2,0.1c-0.1,0-0.2,0-0.3,0c-0.1,0-0.2,0-0.3-0.1
		c-0.1,0-0.2-0.1-0.2-0.2c-0.1-0.1-0.1-0.2-0.1-0.4c0-0.2-0.1-0.3-0.1-0.6c0-0.2,0-0.4,0.1-0.6c0-0.2,0.1-0.3,0.2-0.4
		c0.1-0.1,0.2-0.2,0.3-0.2c0.1,0,0.2-0.1,0.3-0.1c0.1,0,0.2,0,0.4,0.1c0.1,0,0.2,0.1,0.3,0.2V199.2L23.6,199.2z M23.6,194.3v2.2
		c-0.1-0.1-0.3-0.2-0.4-0.3c-0.2-0.1-0.3-0.1-0.6-0.1c-0.3,0-0.5,0.1-0.8,0.2c-0.2,0.1-0.4,0.3-0.6,0.5c-0.2,0.2-0.3,0.4-0.4,0.7
		c-0.1,0.3-0.1,0.6-0.1,0.9c0,0.4,0,0.7,0.1,0.9c0.1,0.3,0.2,0.5,0.3,0.7c0.1,0.2,0.3,0.3,0.5,0.4c0.2,0.1,0.4,0.2,0.6,0.2
		c0.1,0,0.3,0,0.4,0c0.1,0,0.2-0.1,0.4-0.1c0.1-0.1,0.2-0.1,0.3-0.2c0.1-0.1,0.2-0.2,0.3-0.3l0.1,0.3c0.1,0.1,0.2,0.2,0.3,0.2h0.8
		v-6.3H23.6L23.6,194.3z M25.8,196.2v4.3h1.3v-4.3H25.8L25.8,196.2z M27.1,194.7c0-0.1-0.1-0.2-0.2-0.2c-0.1-0.1-0.2-0.1-0.3-0.2
		c-0.1,0-0.2-0.1-0.3-0.1c-0.1,0-0.2,0-0.3,0.1c-0.1,0-0.2,0.1-0.2,0.2c-0.1,0.1-0.1,0.2-0.2,0.2c0,0.1-0.1,0.2-0.1,0.3
		c0,0.1,0,0.2,0.1,0.3c0,0.1,0.1,0.2,0.2,0.2c0.1,0.1,0.2,0.1,0.2,0.2c0.1,0,0.2,0.1,0.3,0.1c0.1,0,0.2,0,0.3-0.1
		c0.1,0,0.2-0.1,0.3-0.2c0.1-0.1,0.1-0.1,0.2-0.2c0-0.1,0.1-0.2,0.1-0.3C27.2,194.9,27.2,194.8,27.1,194.7L27.1,194.7z M30.6,196.2
		v3.1c-0.1,0.1-0.2,0.2-0.4,0.2c-0.1,0.1-0.3,0.1-0.4,0.1c-0.2,0-0.3-0.1-0.4-0.2c-0.1-0.1-0.1-0.3-0.1-0.5v-2.8h-1.3v2.8
		c0,0.2,0,0.5,0.1,0.7c0.1,0.2,0.2,0.4,0.3,0.5c0.1,0.1,0.3,0.3,0.5,0.3c0.2,0.1,0.4,0.1,0.6,0.1c0.1,0,0.3,0,0.4,0
		c0.1,0,0.2-0.1,0.3-0.1c0.1,0,0.2-0.1,0.3-0.2c0.1-0.1,0.2-0.1,0.3-0.2l0.1,0.3c0.1,0.1,0.2,0.2,0.3,0.2h0.8v-4.3H30.6L30.6,196.2z
		 M34.1,200.6v-3.1c0.1-0.1,0.2-0.2,0.3-0.2c0.1-0.1,0.2-0.1,0.3-0.1c0.2,0,0.3,0.1,0.4,0.2c0.1,0.1,0.1,0.3,0.1,0.5v2.8h1.3v-2.8
		c0-0.2,0.1-0.4,0.2-0.5c0.1-0.1,0.3-0.2,0.4-0.2c0.4,0,0.6,0.2,0.6,0.7v2.8H39v-2.8c0-0.3,0-0.5-0.1-0.7c-0.1-0.2-0.2-0.4-0.3-0.5
		c-0.1-0.1-0.3-0.2-0.5-0.3c-0.2-0.1-0.4-0.1-0.7-0.1c-0.1,0-0.3,0-0.4,0c-0.1,0-0.3,0.1-0.4,0.1c-0.1,0.1-0.2,0.1-0.3,0.2
		c-0.1,0.1-0.2,0.2-0.3,0.3c-0.1-0.2-0.2-0.4-0.4-0.5c-0.2-0.1-0.4-0.2-0.7-0.2c-0.1,0-0.2,0-0.3,0c-0.1,0-0.2,0.1-0.3,0.1
		c-0.1,0-0.2,0.1-0.3,0.2c-0.1,0.1-0.2,0.1-0.2,0.2l-0.1-0.2c-0.1-0.1-0.2-0.2-0.3-0.2h-0.8v4.3H34.1L34.1,200.6z"/>
	<path class="st0" d="M43.5,200c-0.2-0.1-0.3-0.1-0.4-0.2c-0.1-0.1-0.2-0.2-0.2-0.4c-0.1-0.1-0.1-0.3-0.1-0.5c0-0.2,0-0.4,0.1-0.5
		c0.1-0.1,0.2-0.3,0.3-0.4c0.1-0.1,0.2-0.2,0.4-0.2c0.2,0,0.3-0.1,0.5-0.1c0.2,0,0.3,0,0.5,0.1c0.2,0,0.3,0.1,0.4,0.2
		c0.1,0.1,0.2,0.2,0.3,0.4c0.1,0.1,0.1,0.3,0.1,0.5c0,0.2,0,0.3-0.1,0.5c-0.1,0.1-0.1,0.3-0.2,0.4c-0.1,0.1-0.2,0.2-0.4,0.2
		c-0.2,0.1-0.3,0.1-0.5,0.1C43.8,200,43.6,200,43.5,200L43.5,200z M44.5,195.2c0.1,0.1,0.2,0.1,0.3,0.2c0.1,0.1,0.2,0.2,0.2,0.3
		c0,0.1,0.1,0.3,0.1,0.4c0,0.1,0,0.3-0.1,0.4c0,0.1-0.1,0.2-0.2,0.3c-0.1,0.1-0.2,0.2-0.3,0.2c-0.1,0.1-0.3,0.1-0.5,0.1
		c-0.2,0-0.4,0-0.5-0.1c-0.1-0.1-0.3-0.1-0.3-0.2c-0.1-0.1-0.1-0.2-0.2-0.3c0-0.1-0.1-0.3-0.1-0.4c0-0.1,0-0.3,0.1-0.4
		c0-0.1,0.1-0.2,0.2-0.3c0.1-0.1,0.2-0.2,0.3-0.2c0.1-0.1,0.3-0.1,0.5-0.1C44.2,195.1,44.4,195.1,44.5,195.2L44.5,195.2z
		 M45.6,196.9c0.2-0.2,0.2-0.5,0.2-0.8c0-0.2,0-0.4-0.1-0.6c-0.1-0.2-0.2-0.4-0.4-0.5c-0.2-0.1-0.4-0.3-0.6-0.3
		c-0.2-0.1-0.5-0.1-0.7-0.1c-0.3,0-0.5,0-0.7,0.1c-0.2,0.1-0.4,0.2-0.6,0.3c-0.2,0.1-0.3,0.3-0.4,0.5c-0.1,0.2-0.1,0.4-0.1,0.6
		c0,0.3,0.1,0.6,0.2,0.8c0.2,0.2,0.4,0.4,0.7,0.5c-0.4,0.1-0.7,0.3-0.9,0.5c-0.2,0.2-0.3,0.6-0.3,1c0,0.3,0,0.5,0.1,0.7
		c0.1,0.2,0.2,0.4,0.4,0.5c0.2,0.1,0.4,0.3,0.6,0.3c0.2,0.1,0.5,0.1,0.8,0.1c0.3,0,0.6,0,0.8-0.1c0.2-0.1,0.5-0.2,0.6-0.3
		c0.2-0.1,0.3-0.3,0.4-0.5c0.1-0.2,0.1-0.4,0.1-0.7c0-0.4-0.1-0.7-0.3-1c-0.2-0.2-0.5-0.4-0.9-0.5C45.2,197.3,45.4,197.1,45.6,196.9
		L45.6,196.9z M50.9,196.2c-0.1-0.4-0.3-0.7-0.5-1c-0.2-0.3-0.4-0.4-0.7-0.6c-0.3-0.1-0.6-0.2-0.9-0.2c-0.3,0-0.6,0.1-0.9,0.2
		c-0.3,0.1-0.5,0.3-0.7,0.6c-0.2,0.3-0.3,0.6-0.5,1c-0.1,0.4-0.2,0.8-0.2,1.4c0,0.5,0.1,1,0.2,1.4c0.1,0.4,0.3,0.7,0.5,1
		c0.2,0.3,0.4,0.4,0.7,0.6c0.3,0.1,0.5,0.2,0.9,0.2c0.3,0,0.6-0.1,0.9-0.2c0.3-0.1,0.5-0.3,0.7-0.6c0.2-0.3,0.3-0.6,0.5-1
		c0.1-0.4,0.2-0.8,0.2-1.4C51.1,197,51,196.6,50.9,196.2L50.9,196.2z M50.2,198.7c-0.1,0.3-0.2,0.6-0.3,0.7
		c-0.1,0.2-0.3,0.3-0.5,0.4c-0.2,0.1-0.3,0.1-0.5,0.1c-0.2,0-0.4,0-0.5-0.1c-0.2-0.1-0.3-0.2-0.4-0.4c-0.1-0.2-0.2-0.4-0.3-0.7
		c-0.1-0.3-0.1-0.7-0.1-1.2s0-0.8,0.1-1.2c0.1-0.3,0.2-0.6,0.3-0.8c0.1-0.2,0.3-0.3,0.4-0.4c0.2-0.1,0.3-0.1,0.5-0.1
		c0.2,0,0.4,0,0.5,0.1c0.2,0.1,0.3,0.2,0.5,0.4c0.1,0.2,0.2,0.4,0.3,0.8c0.1,0.3,0.1,0.7,0.1,1.2S50.2,198.4,50.2,198.7L50.2,198.7z
		 M54.8,197.5c0.2-0.2,0.3-0.4,0.5-0.5c0.2-0.1,0.4-0.2,0.6-0.2c0.2,0,0.3,0,0.5,0.1c0.1,0.1,0.2,0.2,0.3,0.3
		c0.1,0.1,0.2,0.3,0.2,0.5c0,0.2,0.1,0.4,0.1,0.7c0,0.5-0.1,0.9-0.3,1.2c-0.2,0.3-0.5,0.4-0.9,0.4c-0.2,0-0.4,0-0.5-0.1
		c-0.2-0.1-0.3-0.2-0.4-0.4V197.5L54.8,197.5z M54.7,196.5c0-0.1-0.1-0.2-0.2-0.2H54v5.7h0.7v-1.9c0.1,0.2,0.3,0.3,0.5,0.4
		c0.2,0.1,0.4,0.1,0.7,0.1c0.3,0,0.5-0.1,0.8-0.2c0.2-0.1,0.4-0.3,0.6-0.5c0.2-0.2,0.3-0.4,0.4-0.7c0.1-0.3,0.1-0.6,0.1-0.9
		c0-0.4,0-0.7-0.1-0.9c-0.1-0.3-0.2-0.5-0.3-0.7c-0.1-0.2-0.3-0.3-0.5-0.4c-0.2-0.1-0.4-0.1-0.7-0.1c-0.3,0-0.6,0.1-0.8,0.2
		c-0.2,0.1-0.4,0.3-0.6,0.5L54.7,196.5L54.7,196.5z M58.8,196.3v4.2h0.7v-4.2H58.8L58.8,196.3z M59.6,194.8c0-0.1-0.1-0.1-0.1-0.2
		c0,0-0.1-0.1-0.2-0.1c-0.1,0-0.1,0-0.2,0c-0.1,0-0.1,0-0.2,0c-0.1,0-0.1,0.1-0.2,0.1c0,0-0.1,0.1-0.1,0.2c0,0.1,0,0.1,0,0.2
		c0,0.1,0,0.1,0,0.2c0,0.1,0.1,0.1,0.1,0.2c0,0,0.1,0.1,0.2,0.1c0.1,0,0.1,0,0.2,0c0.1,0,0.1,0,0.2,0c0.1,0,0.1-0.1,0.2-0.1
		c0,0,0.1-0.1,0.1-0.2c0-0.1,0-0.1,0-0.2C59.7,194.9,59.7,194.9,59.6,194.8L59.6,194.8z M62.7,198.4l1.4-2h-0.7c0,0-0.1,0-0.1,0
		c0,0-0.1,0.1-0.1,0.1l-0.9,1.3c0,0.1-0.1,0.2-0.1,0.2l-1-1.6c0,0,0-0.1-0.1-0.1c0,0-0.1,0-0.1,0h-0.7l1.4,2.1l-1.5,2.2h0.7
		c0.1,0,0.1,0,0.1,0c0,0,0.1-0.1,0.1-0.1l1-1.4c0,0,0-0.1,0.1-0.1c0,0,0-0.1,0-0.1l1.1,1.7c0,0,0.1,0.1,0.1,0.1c0,0,0.1,0,0.1,0h0.7
		L62.7,198.4L62.7,198.4z"/>
	<path class="st0" d="M65.3,198c0.1-0.4,0.2-0.7,0.4-0.9c0.2-0.2,0.5-0.3,0.8-0.3c0.2,0,0.3,0,0.5,0.1c0.1,0.1,0.2,0.1,0.3,0.2
		c0.1,0.1,0.2,0.2,0.2,0.4c0,0.1,0.1,0.3,0.1,0.5H65.3L65.3,198z M68,199.7c0,0-0.1-0.1-0.1-0.1c0,0-0.1,0-0.2,0.1
		c-0.1,0-0.1,0.1-0.2,0.1c-0.1,0.1-0.2,0.1-0.3,0.1c-0.1,0-0.3,0.1-0.5,0.1c-0.2,0-0.4,0-0.5-0.1c-0.2-0.1-0.3-0.2-0.4-0.3
		c-0.1-0.1-0.2-0.3-0.3-0.5c-0.1-0.2-0.1-0.4-0.1-0.7h2.8c0.1,0,0.1,0,0.1-0.1c0,0,0-0.1,0-0.2c0-0.3,0-0.6-0.1-0.8
		c-0.1-0.2-0.2-0.4-0.4-0.6c-0.2-0.2-0.3-0.3-0.6-0.4c-0.2-0.1-0.5-0.1-0.7-0.1c-0.3,0-0.6,0.1-0.8,0.2c-0.2,0.1-0.5,0.3-0.6,0.4
		c-0.2,0.2-0.3,0.4-0.4,0.7c-0.1,0.3-0.1,0.5-0.1,0.8c0,0.4,0.1,0.7,0.2,1c0.1,0.3,0.2,0.5,0.4,0.7c0.2,0.2,0.4,0.3,0.6,0.4
		s0.5,0.1,0.8,0.1c0.2,0,0.3,0,0.5,0c0.2,0,0.3-0.1,0.5-0.1c0.1-0.1,0.3-0.1,0.4-0.2c0.1-0.1,0.2-0.2,0.3-0.3L68,199.7L68,199.7z
		 M69.2,194.4v6.2h0.7v-6.2H69.2L69.2,194.4z"/>
	<g>
		<defs>
			<rect id="SVGID_49_" x="8.1" y="240.1" width="118.7" height="18.6"/>
		</defs>
		<defs>
			<path id="SVGID_50_" d="M20,240.1h-5.3c-0.7,0-1.4,0.3-1.9,0.8l-4,4c-0.5,0.5-0.8,1.2-0.8,1.9v5.3c0,0.3,0.1,0.6,0.2,0.9
				l12.7-12.7C20.6,240.2,20.3,240.1,20,240.1"/>
		</defs>
		<clipPath id="SVGID_51_">
			<use xlink:href="#SVGID_49_"  style="overflow:visible;"/>
		</clipPath>
		<clipPath id="SVGID_52_" class="st25">
			<use xlink:href="#SVGID_50_"  style="overflow:visible;"/>
		</clipPath>
		<rect x="5.7" y="237.8" class="st26" width="17.5" height="17.5"/>
	</g>
	<g>
		<defs>
			<rect id="SVGID_53_" x="8.1" y="240.1" width="118.7" height="18.6"/>
		</defs>
		<defs>
			<path id="SVGID_54_" d="M25.9,244.9l-3.9-3.9l-3.7,3.7l8.2,8.2c0.1-0.3,0.2-0.6,0.2-0.9v-5.3C26.7,246.1,26.4,245.4,25.9,244.9"
				/>
		</defs>
		<clipPath id="SVGID_55_">
			<use xlink:href="#SVGID_53_"  style="overflow:visible;"/>
		</clipPath>
		<clipPath id="SVGID_56_" class="st27">
			<use xlink:href="#SVGID_54_"  style="overflow:visible;"/>
		</clipPath>
		<rect x="16" y="238.7" class="st28" width="13" height="16.6"/>
	</g>
	<g>
		<defs>
			<rect id="SVGID_57_" x="8.1" y="240.1" width="118.7" height="18.6"/>
		</defs>
		<defs>
			<path id="SVGID_58_" d="M20,249.4h-5.3c-0.3,0-0.6,0.1-0.9,0.2l8.2,8.2l3.7-3.7l-3.9-3.9C21.4,249.7,20.7,249.4,20,249.4"/>
		</defs>
		<clipPath id="SVGID_59_">
			<use xlink:href="#SVGID_57_"  style="overflow:visible;"/>
		</clipPath>
		<clipPath id="SVGID_60_" class="st29">
			<use xlink:href="#SVGID_58_"  style="overflow:visible;"/>
		</clipPath>
		<rect x="11.5" y="247.1" class="st30" width="16.6" height="13"/>
	</g>
	<g>
		<defs>
			<rect id="SVGID_61_" x="8.1" y="240.1" width="118.7" height="18.6"/>
		</defs>
		<defs>
			<polygon id="SVGID_62_" points="12.7,250.4 9,254.1 12.7,257.8 16.4,254.1 12.7,250.4 			"/>
		</defs>
		<clipPath id="SVGID_63_">
			<use xlink:href="#SVGID_61_"  style="overflow:visible;"/>
		</clipPath>
		<clipPath id="SVGID_64_" class="st31">
			<use xlink:href="#SVGID_62_"  style="overflow:visible;"/>
		</clipPath>
		<rect x="6.7" y="248" class="st32" width="12.1" height="12.1"/>
	</g>
	<g>
		<defs>
			<rect id="SVGID_65_" x="8.1" y="240.1" width="118.7" height="18.6"/>
		</defs>
		<defs>
			<path id="SVGID_66_" d="M13.8,258.6c0.3,0.1,0.6,0.2,0.9,0.2H20c0.3,0,0.6-0.1,0.9-0.2l-3.6-3.6L13.8,258.6L13.8,258.6z"/>
		</defs>
		<clipPath id="SVGID_67_">
			<use xlink:href="#SVGID_65_"  style="overflow:visible;"/>
		</clipPath>
		<clipPath id="SVGID_68_" class="st33">
			<use xlink:href="#SVGID_66_"  style="overflow:visible;"/>
		</clipPath>
		<rect x="11.5" y="252.7" class="st34" width="11.8" height="8.4"/>
	</g>
	<g>
		<defs>
			<rect id="SVGID_69_" x="8.1" y="240.1" width="118.7" height="18.6"/>
		</defs>
		<defs>
			<path id="SVGID_70_" d="M88.1,240.1c1.4,0,2.5,0.4,3.3,1.2c0.8,0.8,1.2,1.9,1.2,3.3v0.6c0,0.3-0.2,0.5-0.5,0.5h-1.9
				c-0.3,0-0.5-0.2-0.5-0.5v-0.4c0-0.8-0.2-1.4-0.5-1.8c-0.4-0.4-0.9-0.5-1.8-0.5h-1.8c-0.8,0-1.4,0.2-1.8,0.6
				c-0.4,0.4-0.5,1-0.5,1.9v0.9c0,0.9,0.6,1.5,1.9,1.8c0.6,0.1,1.2,0.3,1.8,0.3c0.7,0.1,1.3,0.2,2,0.4c0.7,0.2,1.3,0.4,1.9,0.8
				c0.6,0.3,1,0.8,1.4,1.4c0.3,0.6,0.5,1.4,0.5,2.4v1.1c0,1.4-0.4,2.5-1.2,3.3c-0.8,0.8-1.9,1.2-3.3,1.2h-3.2
				c-1.4,0-2.5-0.4-3.3-1.2c-0.8-0.8-1.2-1.9-1.2-3.3v-0.8c0-0.3,0.2-0.5,0.5-0.5h1.8c0.3,0,0.5,0.2,0.5,0.5v0.5
				c0,0.8,0.2,1.4,0.5,1.8c0.4,0.4,0.9,0.5,1.8,0.5h2c0.8,0,1.4-0.2,1.8-0.6c0.4-0.4,0.5-1,0.5-1.8v-0.7c0-0.6-0.2-1.1-0.7-1.5
				c-0.5-0.4-1.1-0.6-1.7-0.7c-0.7-0.1-1.5-0.3-2.3-0.4c-0.8-0.2-1.6-0.4-2.3-0.7c-0.7-0.3-1.3-0.7-1.7-1.4
				c-0.5-0.7-0.7-1.6-0.7-2.7v-1.2c0-1.4,0.4-2.5,1.2-3.3c0.8-0.8,1.9-1.2,3.3-1.2H88.1L88.1,240.1z M40,240.1
				c0.4,0,0.6,0.2,0.7,0.5l5,17.6c0.1,0.3,0,0.5-0.3,0.5h-2.1c-0.2,0-0.3,0-0.4-0.1c-0.1-0.1-0.1-0.2-0.2-0.4l-1.1-3.8h-6.4
				l-1.1,3.8c-0.1,0.3-0.2,0.5-0.5,0.5h-2.1c-0.3,0-0.4-0.2-0.3-0.5l5-17.6c0.1-0.3,0.3-0.5,0.7-0.5H40L40,240.1z M71.2,240.1
				c0.4,0,0.6,0.2,0.7,0.5l5,17.6c0.1,0.3,0,0.5-0.3,0.5h-2.1c-0.2,0-0.3,0-0.4-0.1c-0.1-0.1-0.1-0.2-0.2-0.4l-1.1-3.8h-6.4
				l-1.1,3.8c-0.1,0.3-0.2,0.5-0.5,0.5h-2.1c-0.3,0-0.4-0.2-0.3-0.5l5-17.6c0.1-0.3,0.3-0.5,0.7-0.5H71.2L71.2,240.1z M52,240.1
				c0.3,0,0.5,0.2,0.5,0.5v15.3c0,0.2,0.1,0.3,0.3,0.3h6.7c0.3,0,0.5,0.2,0.5,0.5v1.5c0,0.3-0.2,0.5-0.5,0.5h-9.4
				c-0.3,0-0.5-0.2-0.5-0.5v-17.6c0-0.3,0.2-0.5,0.5-0.5H52L52,240.1z M105.5,240.1c1.4,0,2.5,0.4,3.3,1.2c0.8,0.8,1.2,1.9,1.2,3.3
				v1.4c0,0.3-0.2,0.5-0.5,0.5h-1.8c-0.3,0-0.5-0.2-0.5-0.5v-1.3c0-1.4-0.7-2.1-2.1-2.1h-2.5c-1.4,0-2.1,0.7-2.1,2.1v9.4
				c0,1.4,0.7,2.1,2.1,2.1h2.5c1.4,0,2.1-0.7,2.1-2.1v-1.3c0-0.3,0.2-0.5,0.5-0.5h1.8c0.3,0,0.5,0.2,0.5,0.5v1.4
				c0,1.4-0.4,2.5-1.2,3.3c-0.8,0.8-1.9,1.2-3.3,1.2h-3.4c-1.4,0-2.5-0.4-3.3-1.2c-0.8-0.8-1.2-1.9-1.2-3.3v-9.6
				c0-1.4,0.4-2.5,1.2-3.3c0.8-0.8,1.9-1.2,3.3-1.2H105.5L105.5,240.1z M122.2,240.1c1.4,0,2.5,0.4,3.3,1.2c0.8,0.8,1.2,1.9,1.2,3.3
				v9.6c0,1.4-0.4,2.5-1.2,3.3c-0.8,0.8-1.9,1.2-3.3,1.2h-3.4c-1.4,0-2.5-0.4-3.3-1.2c-0.8-0.8-1.2-1.9-1.2-3.3v-9.6
				c0-1.4,0.4-2.5,1.2-3.3c0.8-0.8,1.9-1.2,3.3-1.2H122.2L122.2,240.1z M121.8,242.6h-2.5c-1.4,0-2.1,0.7-2.1,2.1v9.4
				c0,1.4,0.7,2.1,2.1,2.1h2.5c1.4,0,2.1-0.7,2.1-2.1v-9.4C123.9,243.3,123.2,242.6,121.8,242.6L121.8,242.6z M38.6,242.9h-0.1
				l-2.5,9.3h5.2L38.6,242.9L38.6,242.9z M69.8,242.9h-0.1l-2.5,9.3h5.2L69.8,242.9L69.8,242.9z"/>
		</defs>
		<clipPath id="SVGID_71_">
			<use xlink:href="#SVGID_69_"  style="overflow:visible;"/>
		</clipPath>
		<clipPath id="SVGID_72_" class="st35">
			<use xlink:href="#SVGID_70_"  style="overflow:visible;"/>
		</clipPath>
		<rect x="29" y="237.8" class="st36" width="100.1" height="23.3"/>
	</g>
	<g>
		<defs>
			<rect id="SVGID_73_" x="-29.2" y="316.5" width="670.2" height="359.3"/>
		</defs>
		<clipPath id="SVGID_74_">
			<use xlink:href="#SVGID_73_"  style="overflow:visible;"/>
		</clipPath>
		<rect x="-31.5" y="314.1" class="st37" width="674.8" height="363.9"/>
	</g>
	<path class="st0" d="M12.4,271.4c-0.1-0.1-0.2-0.2-0.4-0.3s-0.3-0.1-0.4-0.2c-0.2-0.1-0.3-0.1-0.5-0.1c-0.2,0-0.4,0-0.5,0
		c-0.3,0-0.6,0.1-0.9,0.2c-0.3,0.1-0.5,0.2-0.7,0.4c-0.2,0.2-0.3,0.4-0.4,0.6c-0.1,0.2-0.1,0.4-0.1,0.7c0,0.3,0,0.5,0.1,0.7
		c0.1,0.2,0.2,0.4,0.3,0.5c0.1,0.1,0.3,0.2,0.4,0.3c0.2,0.1,0.3,0.1,0.5,0.2c0.2,0.1,0.3,0.1,0.5,0.1c0.2,0,0.3,0.1,0.4,0.2
		c0.1,0.1,0.2,0.1,0.3,0.2c0.1,0.1,0.1,0.2,0.1,0.3c0,0.2-0.1,0.4-0.2,0.5c-0.1,0.1-0.3,0.2-0.6,0.2c-0.2,0-0.4,0-0.5-0.1
		c-0.1-0.1-0.3-0.1-0.4-0.2c-0.1-0.1-0.2-0.1-0.3-0.2c-0.1-0.1-0.2-0.1-0.3-0.1c-0.1,0-0.1,0-0.2,0c-0.1,0-0.1,0.1-0.1,0.1l-0.4,0.7
		c0.1,0.1,0.3,0.2,0.4,0.3c0.2,0.1,0.3,0.2,0.5,0.3c0.2,0.1,0.4,0.1,0.6,0.2c0.2,0,0.4,0.1,0.6,0.1c0.3,0,0.7-0.1,0.9-0.2
		c0.3-0.1,0.5-0.2,0.7-0.4c0.2-0.2,0.3-0.4,0.4-0.6c0.1-0.2,0.1-0.5,0.1-0.8c0-0.3,0-0.5-0.1-0.7c-0.1-0.2-0.2-0.3-0.3-0.5
		c-0.1-0.1-0.3-0.2-0.4-0.3c-0.2-0.1-0.3-0.2-0.5-0.2c-0.2-0.1-0.3-0.1-0.5-0.2c-0.2,0-0.3-0.1-0.4-0.2c-0.1-0.1-0.2-0.1-0.3-0.2
		c-0.1-0.1-0.1-0.2-0.1-0.3c0-0.2,0.1-0.3,0.2-0.5c0.1-0.1,0.3-0.2,0.6-0.2c0.2,0,0.3,0,0.4,0.1c0.1,0,0.2,0.1,0.3,0.1
		c0.1,0.1,0.2,0.1,0.3,0.1c0.1,0,0.1,0.1,0.2,0.1c0.1,0,0.1,0,0.2-0.1c0,0,0.1-0.1,0.1-0.2L12.4,271.4L12.4,271.4z M14.4,276.9v-3.1
		c0.1-0.1,0.2-0.2,0.3-0.2c0.1-0.1,0.2-0.1,0.3-0.1c0.2,0,0.3,0.1,0.4,0.2c0.1,0.1,0.1,0.3,0.1,0.5v2.8h1.3v-2.8
		c0-0.2,0.1-0.4,0.2-0.5c0.1-0.1,0.3-0.2,0.4-0.2c0.4,0,0.6,0.2,0.6,0.7v2.8h1.3v-2.8c0-0.3,0-0.5-0.1-0.7c-0.1-0.2-0.2-0.4-0.3-0.5
		c-0.1-0.1-0.3-0.2-0.5-0.3c-0.2-0.1-0.4-0.1-0.7-0.1c-0.1,0-0.3,0-0.4,0c-0.1,0-0.3,0.1-0.4,0.1c-0.1,0.1-0.2,0.1-0.3,0.2
		c-0.1,0.1-0.2,0.2-0.3,0.3c-0.1-0.2-0.2-0.4-0.4-0.5c-0.2-0.1-0.4-0.2-0.7-0.2c-0.1,0-0.2,0-0.3,0c-0.1,0-0.2,0.1-0.3,0.1
		c-0.1,0-0.2,0.1-0.3,0.2c-0.1,0.1-0.2,0.1-0.2,0.2l-0.1-0.2c-0.1-0.1-0.2-0.2-0.3-0.2h-0.8v4.3H14.4L14.4,276.9z M22.5,275.7
		c-0.1,0.1-0.3,0.2-0.4,0.3c-0.1,0.1-0.3,0.1-0.4,0.1c-0.2,0-0.3,0-0.4-0.1c-0.1-0.1-0.1-0.2-0.1-0.3c0-0.1,0-0.1,0.1-0.2
		c0-0.1,0.1-0.1,0.2-0.2c0.1-0.1,0.2-0.1,0.4-0.1c0.2,0,0.4-0.1,0.6-0.1V275.7L22.5,275.7z M20.4,273.6c0,0.1,0.1,0.1,0.2,0.2
		c0.1,0,0.1,0.1,0.2,0.1c0.1,0,0.2,0,0.3-0.1c0.1,0,0.1-0.1,0.2-0.1c0.1,0,0.2-0.1,0.3-0.1c0.1,0,0.2-0.1,0.4-0.1
		c0.2,0,0.3,0.1,0.4,0.2c0.1,0.1,0.2,0.3,0.2,0.6v0.2c-0.5,0-0.9,0.1-1.2,0.2c-0.3,0.1-0.6,0.2-0.8,0.3c-0.2,0.1-0.3,0.3-0.4,0.4
		c-0.1,0.2-0.1,0.3-0.1,0.5c0,0.2,0,0.4,0.1,0.5c0.1,0.1,0.1,0.3,0.3,0.4c0.1,0.1,0.3,0.2,0.4,0.2c0.2,0.1,0.3,0.1,0.5,0.1
		c0.1,0,0.3,0,0.4,0c0.1,0,0.2-0.1,0.3-0.1c0.1,0,0.2-0.1,0.3-0.2c0.1-0.1,0.2-0.2,0.3-0.2l0.1,0.2c0,0.1,0.1,0.2,0.2,0.2
		c0.1,0,0.2,0.1,0.3,0.1h0.6v-2.7c0-0.2,0-0.5-0.1-0.7c-0.1-0.2-0.2-0.4-0.3-0.5c-0.1-0.2-0.3-0.3-0.5-0.4c-0.2-0.1-0.4-0.1-0.7-0.1
		c-0.4,0-0.7,0.1-1,0.2c-0.3,0.1-0.6,0.3-0.9,0.5L20.4,273.6L20.4,273.6z M24.6,270.6v6.3h1.3v-6.3H24.6L24.6,270.6z M26.8,270.6
		v6.3h1.3v-6.3H26.8L26.8,270.6z"/>
	<path class="st0" d="M31.5,274.7l2.2-3c0,0.1,0,0.2,0,0.3c0,0.1,0,0.2,0,0.2v2.5H31.5L31.5,274.7z M34.3,274.7v-3.8h-0.7l-2.9,3.9
		l0.1,0.4c0,0,0,0.1,0.1,0.1c0,0,0.1,0,0.1,0h2.7v1.6h0.7v-1.6h0.7c0.1,0,0.1,0,0.1,0c0,0,0-0.1,0-0.1v-0.4H34.3L34.3,274.7z
		 M39.9,272.5c-0.1-0.4-0.3-0.7-0.5-1c-0.2-0.3-0.4-0.4-0.7-0.6c-0.3-0.1-0.6-0.2-0.9-0.2c-0.3,0-0.6,0.1-0.9,0.2
		c-0.3,0.1-0.5,0.3-0.7,0.6c-0.2,0.3-0.3,0.6-0.5,1c-0.1,0.4-0.2,0.8-0.2,1.4c0,0.5,0.1,1,0.2,1.4c0.1,0.4,0.3,0.7,0.5,1
		c0.2,0.3,0.4,0.4,0.7,0.6c0.3,0.1,0.5,0.2,0.9,0.2c0.3,0,0.6-0.1,0.9-0.2c0.3-0.1,0.5-0.3,0.7-0.6c0.2-0.3,0.3-0.6,0.5-1
		c0.1-0.4,0.2-0.8,0.2-1.4C40.1,273.4,40,272.9,39.9,272.5L39.9,272.5z M39.2,275c-0.1,0.3-0.2,0.6-0.3,0.7
		c-0.1,0.2-0.3,0.3-0.5,0.4c-0.2,0.1-0.3,0.1-0.5,0.1c-0.2,0-0.4,0-0.5-0.1c-0.2-0.1-0.3-0.2-0.4-0.4c-0.1-0.2-0.2-0.4-0.3-0.7
		c-0.1-0.3-0.1-0.7-0.1-1.2c0-0.5,0-0.8,0.1-1.2c0.1-0.3,0.2-0.6,0.3-0.8c0.1-0.2,0.3-0.3,0.4-0.4c0.2-0.1,0.3-0.1,0.5-0.1
		c0.2,0,0.4,0,0.5,0.1c0.2,0.1,0.3,0.2,0.5,0.4c0.1,0.2,0.2,0.4,0.3,0.8c0.1,0.3,0.1,0.7,0.1,1.2C39.3,274.4,39.3,274.7,39.2,275
		L39.2,275z M43.8,273.8c0.2-0.2,0.3-0.4,0.5-0.5c0.2-0.1,0.4-0.2,0.6-0.2c0.2,0,0.3,0,0.5,0.1c0.1,0.1,0.2,0.2,0.3,0.3
		c0.1,0.1,0.2,0.3,0.2,0.5c0,0.2,0.1,0.4,0.1,0.7c0,0.5-0.1,0.9-0.3,1.2c-0.2,0.3-0.5,0.4-0.9,0.4c-0.2,0-0.4,0-0.5-0.1
		c-0.2-0.1-0.3-0.2-0.4-0.4V273.8L43.8,273.8z M43.7,272.8c0-0.1-0.1-0.2-0.2-0.2h-0.4v5.7h0.7v-1.9c0.1,0.2,0.3,0.3,0.5,0.4
		c0.2,0.1,0.4,0.1,0.7,0.1c0.3,0,0.5-0.1,0.8-0.2c0.2-0.1,0.4-0.3,0.6-0.5c0.2-0.2,0.3-0.4,0.4-0.7c0.1-0.3,0.1-0.6,0.1-0.9
		c0-0.4,0-0.7-0.1-0.9c-0.1-0.3-0.2-0.5-0.3-0.7c-0.1-0.2-0.3-0.3-0.5-0.4c-0.2-0.1-0.4-0.1-0.7-0.1c-0.3,0-0.6,0.1-0.8,0.2
		s-0.4,0.3-0.6,0.5L43.7,272.8L43.7,272.8z M47.8,272.7v4.2h0.7v-4.2H47.8L47.8,272.7z M48.6,271.1c0-0.1-0.1-0.1-0.1-0.2
		c0,0-0.1-0.1-0.2-0.1c-0.1,0-0.1,0-0.2,0c-0.1,0-0.1,0-0.2,0c-0.1,0-0.1,0.1-0.2,0.1c0,0-0.1,0.1-0.1,0.2c0,0.1,0,0.1,0,0.2
		c0,0.1,0,0.1,0,0.2c0,0.1,0.1,0.1,0.1,0.2c0,0,0.1,0.1,0.2,0.1c0.1,0,0.1,0,0.2,0c0.1,0,0.1,0,0.2,0c0.1,0,0.1-0.1,0.2-0.1
		c0,0,0.1-0.1,0.1-0.2c0-0.1,0-0.1,0-0.2C48.7,271.2,48.7,271.2,48.6,271.1L48.6,271.1z M51.8,274.7l1.4-2h-0.7c0,0-0.1,0-0.1,0
		c0,0-0.1,0.1-0.1,0.1l-0.9,1.3c0,0.1-0.1,0.2-0.1,0.2l-1-1.6c0,0,0-0.1-0.1-0.1c0,0-0.1,0-0.1,0h-0.7l1.4,2.1l-1.5,2.2h0.7
		c0.1,0,0.1,0,0.1,0c0,0,0.1-0.1,0.1-0.1l1-1.4c0,0,0-0.1,0.1-0.1c0,0,0-0.1,0-0.1l1.1,1.7c0,0,0.1,0.1,0.1,0.1c0,0,0.1,0,0.1,0h0.7
		L51.8,274.7L51.8,274.7z"/>
	<path class="st0" d="M54.3,274.3c0.1-0.4,0.2-0.7,0.4-0.9c0.2-0.2,0.5-0.3,0.8-0.3c0.2,0,0.3,0,0.5,0.1c0.1,0.1,0.2,0.1,0.3,0.2
		c0.1,0.1,0.2,0.2,0.2,0.4c0,0.1,0.1,0.3,0.1,0.5H54.3L54.3,274.3z M57,276c0,0-0.1-0.1-0.1-0.1c0,0-0.1,0-0.2,0.1
		c-0.1,0-0.1,0.1-0.2,0.1c-0.1,0.1-0.2,0.1-0.3,0.1c-0.1,0-0.3,0.1-0.5,0.1c-0.2,0-0.4,0-0.5-0.1c-0.2-0.1-0.3-0.2-0.4-0.3
		c-0.1-0.1-0.2-0.3-0.3-0.5c-0.1-0.2-0.1-0.4-0.1-0.7h2.8c0.1,0,0.1,0,0.1-0.1c0,0,0-0.1,0-0.2c0-0.3,0-0.6-0.1-0.8
		c-0.1-0.2-0.2-0.4-0.4-0.6c-0.2-0.2-0.3-0.3-0.6-0.4c-0.2-0.1-0.5-0.1-0.7-0.1c-0.3,0-0.6,0.1-0.8,0.2c-0.2,0.1-0.5,0.3-0.6,0.4
		c-0.2,0.2-0.3,0.4-0.4,0.7c-0.1,0.3-0.1,0.5-0.1,0.8c0,0.4,0.1,0.7,0.2,1c0.1,0.3,0.2,0.5,0.4,0.7c0.2,0.2,0.4,0.3,0.6,0.4
		c0.2,0.1,0.5,0.1,0.8,0.1c0.2,0,0.3,0,0.5,0c0.2,0,0.3-0.1,0.5-0.1c0.1-0.1,0.3-0.1,0.4-0.2c0.1-0.1,0.2-0.2,0.3-0.3L57,276L57,276
		z M58.2,270.7v6.2h0.7v-6.2H58.2L58.2,270.7z"/>
	<g>
		<defs>
			<rect id="SVGID_75_" x="8.1" y="353.7" width="474.7" height="74.5"/>
		</defs>
		<defs>
			<path id="SVGID_76_" d="M55.8,353.7H34.8c-2.8,0-5.5,1.1-7.4,3.1l-16.2,16.2c-2,2-3.1,4.7-3.1,7.4v21.1c0,1.3,0.2,2.5,0.7,3.7
				l50.8-50.8C58.3,353.9,57.1,353.7,55.8,353.7"/>
		</defs>
		<clipPath id="SVGID_77_">
			<use xlink:href="#SVGID_75_"  style="overflow:visible;"/>
		</clipPath>
		<clipPath id="SVGID_78_" class="st38">
			<use xlink:href="#SVGID_76_"  style="overflow:visible;"/>
		</clipPath>
		<rect x="5.7" y="351.4" class="st39" width="56.1" height="56.1"/>
	</g>
	<g>
		<defs>
			<rect id="SVGID_79_" x="8.1" y="353.7" width="474.7" height="74.5"/>
		</defs>
		<defs>
			<path id="SVGID_80_" d="M79.4,372.9l-15.5-15.5L49,372.3l32.8,32.8c0.4-1.2,0.7-2.4,0.7-3.7v-21.1
				C82.5,377.6,81.4,374.9,79.4,372.9"/>
		</defs>
		<clipPath id="SVGID_81_">
			<use xlink:href="#SVGID_79_"  style="overflow:visible;"/>
		</clipPath>
		<clipPath id="SVGID_82_" class="st40">
			<use xlink:href="#SVGID_80_"  style="overflow:visible;"/>
		</clipPath>
		<rect x="46.7" y="355.1" class="st41" width="38.2" height="52.4"/>
	</g>
	<g>
		<defs>
			<rect id="SVGID_83_" x="8.1" y="353.7" width="474.7" height="74.5"/>
		</defs>
		<defs>
			<path id="SVGID_84_" d="M55.8,390.9H34.8c-1.3,0-2.5,0.2-3.7,0.7l32.8,32.8l14.9-14.9L63.3,394C61.3,392,58.6,390.9,55.8,390.9"
				/>
		</defs>
		<clipPath id="SVGID_85_">
			<use xlink:href="#SVGID_83_"  style="overflow:visible;"/>
		</clipPath>
		<clipPath id="SVGID_86_" class="st42">
			<use xlink:href="#SVGID_84_"  style="overflow:visible;"/>
		</clipPath>
		<rect x="28.8" y="388.6" class="st43" width="52.4" height="38.2"/>
	</g>
	<g>
		<defs>
			<rect id="SVGID_87_" x="8.1" y="353.7" width="474.7" height="74.5"/>
		</defs>
		<defs>
			<polygon id="SVGID_88_" points="26.7,394.6 11.8,409.5 26.7,424.4 41.6,409.5 26.7,394.6 			"/>
		</defs>
		<clipPath id="SVGID_89_">
			<use xlink:href="#SVGID_87_"  style="overflow:visible;"/>
		</clipPath>
		<clipPath id="SVGID_90_" class="st44">
			<use xlink:href="#SVGID_88_"  style="overflow:visible;"/>
		</clipPath>
		<rect x="9.5" y="392.3" class="st45" width="34.4" height="34.4"/>
	</g>
	<g>
		<defs>
			<rect id="SVGID_91_" x="8.1" y="353.7" width="474.7" height="74.5"/>
		</defs>
		<defs>
			<path id="SVGID_92_" d="M31.1,427.5c1.2,0.4,2.4,0.7,3.7,0.7h21.1c1.3,0,2.5-0.2,3.7-0.7l-14.2-14.2L31.1,427.5L31.1,427.5z"/>
		</defs>
		<clipPath id="SVGID_93_">
			<use xlink:href="#SVGID_91_"  style="overflow:visible;"/>
		</clipPath>
		<clipPath id="SVGID_94_" class="st46">
			<use xlink:href="#SVGID_92_"  style="overflow:visible;"/>
		</clipPath>
		<rect x="28.8" y="410.9" class="st47" width="33.1" height="19.5"/>
	</g>
	<g>
		<defs>
			<rect id="SVGID_95_" x="8.1" y="353.7" width="474.7" height="74.5"/>
		</defs>
		<defs>
			<path id="SVGID_96_" d="M328.3,353.7c5.7,0,10.2,1.6,13.4,4.8c3.2,3.2,4.8,7.6,4.8,13.3v2.5c0,1.3-0.7,2-2,2h-7.4
				c-1.3,0-2-0.6-2-2v-1.5c0-3.3-0.7-5.7-2.1-7.1c-1.4-1.4-3.8-2.1-7.1-2.1h-7.3c-3.3,0-5.7,0.8-7.1,2.3c-1.4,1.5-2.1,4.1-2.1,7.7
				v3.6c0,3.5,2.5,5.8,7.5,7.1c2.2,0.5,4.7,1,7.3,1.4c2.7,0.4,5.3,1,8,1.7c2.7,0.8,5.2,1.8,7.4,3.1c2.2,1.3,4,3.2,5.4,5.8
				c1.4,2.6,2.1,5.7,2.1,9.4v4.5c0,5.6-1.6,10-4.8,13.3c-3.2,3.2-7.6,4.8-13.2,4.8h-13c-5.6,0-10.1-1.6-13.3-4.8
				c-3.2-3.2-4.9-7.6-4.9-13.3v-3c0-1.3,0.7-2,2-2h7.4c1.3,0,2,0.7,2,2v2.1c0,3.2,0.7,5.6,2.1,7c1.4,1.4,3.8,2.1,7.1,2.1h8
				c3.3,0,5.7-0.8,7.2-2.3c1.5-1.5,2.2-4,2.2-7.4V406c0-2.5-0.9-4.4-2.8-5.8c-1.9-1.4-4.2-2.4-7-2.8c-2.8-0.4-5.8-1-9.1-1.8
				c-3.3-0.8-6.4-1.7-9.1-2.7c-2.8-1-5.1-2.9-7-5.7c-1.9-2.8-2.8-6.3-2.8-10.7v-4.9c0-5.6,1.6-10.1,4.8-13.3
				c3.2-3.2,7.6-4.8,13.3-4.8H328.3L328.3,353.7z M135.7,353.7c1.5,0,2.5,0.7,2.8,2l20.1,70.5c0.3,1.3-0.1,2-1.3,2h-8.2
				c-0.7,0-1.2-0.1-1.4-0.4c-0.3-0.3-0.5-0.8-0.6-1.6l-4.4-15.1h-25.5l-4.4,15.1c-0.3,1.3-1,2-2.1,2h-8.3c-1.1,0-1.5-0.7-1.2-2
				l20.1-70.5c0.4-1.3,1.3-2,2.8-2H135.7L135.7,353.7z M260.4,353.7c1.5,0,2.5,0.7,2.8,2l20.1,70.5c0.3,1.3-0.1,2-1.3,2h-8.2
				c-0.7,0-1.2-0.1-1.4-0.4c-0.3-0.3-0.5-0.8-0.6-1.6l-4.4-15.1h-25.5l-4.4,15.1c-0.3,1.3-1,2-2.1,2h-8.3c-1.1,0-1.5-0.7-1.2-2
				l20.1-70.5c0.4-1.3,1.3-2,2.8-2H260.4L260.4,353.7z M184,353.7c1.3,0,2,0.7,2,2v61.3c0,0.8,0.5,1.2,1.4,1.2h26.8
				c1.3,0,2,0.7,2,2.1v6c0,1.3-0.7,2-2,2h-37.5c-1.3,0-2-0.7-2-2v-70.5c0-1.3,0.6-2,2-2H184L184,353.7z M397.6,353.7
				c5.6,0,10,1.6,13.2,4.7c3.2,3.1,4.7,7.5,4.7,13.3v5.6c0,1.4-0.7,2.1-2.1,2.1h-7.3c-1.3,0-2-0.7-2-2.1v-5.1c0-5.7-2.8-8.6-8.3-8.6
				h-10.1c-5.6,0-8.3,2.9-8.3,8.6v37.6c0,5.7,2.8,8.6,8.3,8.6h10.1c5.6,0,8.3-2.9,8.3-8.6v-5.1c0-1.4,0.7-2.1,2-2.1h7.3
				c1.4,0,2.1,0.7,2.1,2.1v5.6c0,5.6-1.6,10-4.7,13.2c-3.2,3.2-7.6,4.7-13.2,4.7h-13.4c-5.7,0-10.1-1.6-13.2-4.7
				c-3.1-3.2-4.7-7.6-4.7-13.2v-38.6c0-5.7,1.6-10.1,4.7-13.3c3.1-3.1,7.5-4.7,13.2-4.7H397.6L397.6,353.7z M464.7,353.7
				c5.7,0,10.1,1.6,13.3,4.7c3.2,3.1,4.7,7.5,4.7,13.3v38.6c0,5.6-1.6,10-4.7,13.2c-3.2,3.2-7.6,4.7-13.3,4.7h-13.4
				c-5.7,0-10.1-1.6-13.2-4.7c-3.1-3.2-4.7-7.6-4.7-13.2v-38.6c0-5.7,1.6-10.1,4.7-13.3c3.1-3.1,7.5-4.7,13.2-4.7H464.7L464.7,353.7
				z M463,363.5h-10.1c-5.6,0-8.3,2.9-8.3,8.6v37.6c0,5.7,2.8,8.6,8.3,8.6H463c5.6,0,8.4-2.8,8.4-8.6v-37.6
				C471.4,366.4,468.6,363.5,463,363.5L463,363.5z M130.2,364.8h-0.5l-10.2,37.1h20.9L130.2,364.8L130.2,364.8z M254.9,364.8h-0.5
				l-10.2,37.1h20.9L254.9,364.8L254.9,364.8z"/>
		</defs>
		<clipPath id="SVGID_97_">
			<use xlink:href="#SVGID_95_"  style="overflow:visible;"/>
		</clipPath>
		<clipPath id="SVGID_98_" class="st48">
			<use xlink:href="#SVGID_96_"  style="overflow:visible;"/>
		</clipPath>
		<rect x="98.8" y="351.4" class="st49" width="386.3" height="79.1"/>
	</g>
	<path class="st50" d="M10.1,445.2v-5H8.7v6.1h3.7v-1.1H10.1L10.1,445.2z M15.1,445.1c-0.1,0.1-0.3,0.2-0.4,0.3
		c-0.1,0.1-0.3,0.1-0.4,0.1c-0.2,0-0.3,0-0.4-0.1c-0.1-0.1-0.1-0.2-0.1-0.3c0-0.1,0-0.1,0.1-0.2c0-0.1,0.1-0.1,0.2-0.2
		c0.1-0.1,0.2-0.1,0.4-0.1s0.4-0.1,0.6-0.1V445.1L15.1,445.1z M13,443c0,0.1,0.1,0.1,0.2,0.2c0.1,0,0.1,0.1,0.2,0.1
		c0.1,0,0.2,0,0.3-0.1c0.1,0,0.1-0.1,0.2-0.1c0.1,0,0.2-0.1,0.3-0.1c0.1,0,0.2-0.1,0.4-0.1c0.2,0,0.3,0.1,0.4,0.2
		c0.1,0.1,0.2,0.3,0.2,0.6v0.2c-0.5,0-0.9,0.1-1.2,0.2c-0.3,0.1-0.6,0.2-0.8,0.3c-0.2,0.1-0.3,0.3-0.4,0.4c-0.1,0.2-0.1,0.3-0.1,0.5
		c0,0.2,0,0.4,0.1,0.5c0.1,0.1,0.1,0.3,0.3,0.4c0.1,0.1,0.3,0.2,0.4,0.2c0.2,0.1,0.3,0.1,0.5,0.1c0.1,0,0.3,0,0.4,0
		c0.1,0,0.2-0.1,0.3-0.1c0.1,0,0.2-0.1,0.3-0.2c0.1-0.1,0.2-0.2,0.3-0.2l0.1,0.2c0,0.1,0.1,0.2,0.2,0.2c0.1,0,0.2,0.1,0.3,0.1h0.6
		v-2.7c0-0.2,0-0.5-0.1-0.7c-0.1-0.2-0.2-0.4-0.3-0.5c-0.1-0.2-0.3-0.3-0.5-0.4c-0.2-0.1-0.4-0.1-0.7-0.1c-0.4,0-0.7,0.1-1,0.2
		c-0.3,0.1-0.6,0.3-0.9,0.5L13,443L13,443z M18.4,442.3c0-0.1,0-0.1,0-0.1c0,0,0-0.1-0.1-0.1c0,0-0.1,0-0.1-0.1c0,0-0.1,0-0.2,0
		h-0.8v4.3h1.3v-2.6c0.1-0.2,0.2-0.3,0.3-0.4c0.1-0.1,0.3-0.2,0.5-0.2c0,0,0.1,0,0.1,0c0,0,0.1,0,0.1,0c0,0,0.1,0,0.1,0
		c0,0,0.1,0,0.1,0c0.1,0,0.1,0,0.1,0c0,0,0.1-0.1,0.1-0.1l0.1-1c-0.1-0.1-0.3-0.1-0.5-0.1c-0.2,0-0.4,0.1-0.6,0.2
		c-0.2,0.1-0.3,0.3-0.5,0.6L18.4,442.3L18.4,442.3z M21.8,443.9c-0.1,0-0.1-0.1-0.2-0.1c-0.1-0.1-0.1-0.1-0.1-0.2c0-0.1,0-0.1,0-0.2
		c0-0.2,0-0.3,0.1-0.4c0.1-0.1,0.3-0.2,0.5-0.2c0.2,0,0.4,0.1,0.5,0.2s0.1,0.2,0.1,0.4c0,0.2,0,0.3-0.1,0.4
		c-0.1,0.1-0.3,0.2-0.5,0.2C22,443.9,21.9,443.9,21.8,443.9L21.8,443.9z M23.1,446.6c0,0.1-0.1,0.1-0.1,0.1c-0.1,0-0.2,0.1-0.3,0.1
		c-0.1,0-0.3,0-0.5,0c-0.2,0-0.3,0-0.4,0c-0.1,0-0.2,0-0.3-0.1c-0.1,0-0.1-0.1-0.1-0.1c0-0.1,0-0.1,0-0.2c0-0.1,0-0.2,0.1-0.2
		c0.1-0.1,0.1-0.1,0.2-0.2c0.2,0,0.4,0,0.5,0c0.2,0,0.3,0,0.5,0c0.1,0,0.3,0.1,0.4,0.1c0.1,0,0.1,0.1,0.1,0.2
		C23.1,446.5,23.1,446.6,23.1,446.6L23.1,446.6z M23.1,442.1c-0.3-0.1-0.6-0.2-1-0.2c-0.3,0-0.5,0-0.7,0.1c-0.2,0.1-0.4,0.2-0.6,0.3
		c-0.2,0.1-0.3,0.3-0.4,0.4c-0.1,0.2-0.1,0.4-0.1,0.6c0,0.3,0.1,0.5,0.2,0.7c0.1,0.2,0.3,0.4,0.5,0.5c-0.1,0-0.2,0.1-0.3,0.2
		c-0.1,0.1-0.1,0.1-0.2,0.2c0,0.1-0.1,0.1-0.1,0.2c0,0.1,0,0.1,0,0.2c0,0.2,0,0.3,0.1,0.4c0.1,0.1,0.1,0.2,0.3,0.2
		c-0.2,0.1-0.4,0.2-0.5,0.3c-0.1,0.1-0.2,0.3-0.2,0.5c0,0.1,0,0.3,0.1,0.4c0.1,0.1,0.2,0.3,0.4,0.4c0.2,0.1,0.4,0.2,0.6,0.3
		c0.2,0.1,0.5,0.1,0.9,0.1c0.3,0,0.7,0,0.9-0.1c0.3-0.1,0.5-0.2,0.7-0.3c0.2-0.1,0.3-0.3,0.4-0.5c0.1-0.2,0.1-0.4,0.1-0.6
		c0-0.2,0-0.4-0.1-0.5c-0.1-0.1-0.2-0.2-0.3-0.3c-0.1-0.1-0.3-0.1-0.4-0.2c-0.2,0-0.3-0.1-0.5-0.1c-0.2,0-0.3,0-0.5,0
		c-0.2,0-0.3,0-0.4,0c-0.1,0-0.2,0-0.3-0.1c-0.1,0-0.1-0.1-0.1-0.2c0-0.1,0-0.1,0.1-0.2c0.1,0,0.1,0,0.2,0c0.1,0,0.1,0,0.2,0
		c0.2,0,0.5,0,0.7-0.1c0.2-0.1,0.4-0.2,0.6-0.3c0.2-0.1,0.3-0.3,0.4-0.4c0.1-0.2,0.1-0.4,0.1-0.6c0-0.1,0-0.1,0-0.2
		c0-0.1,0-0.1,0-0.2l0.3-0.1c0.1,0,0.2-0.1,0.2-0.1c0,0,0.1-0.1,0.1-0.2v-0.5H23.1L23.1,442.1z"/>
	<path class="st50" d="M25.9,443.6c0-0.3,0.1-0.5,0.3-0.6c0.1-0.1,0.3-0.2,0.6-0.2c0.1,0,0.3,0,0.4,0.1c0.1,0,0.2,0.1,0.2,0.2
		c0.1,0.1,0.1,0.2,0.1,0.3c0,0.1,0,0.2,0,0.3H25.9L25.9,443.6z M28.4,444.4c0.1,0,0.1,0,0.1,0c0,0,0.1,0,0.1-0.1c0,0,0-0.1,0-0.1
		c0-0.1,0-0.1,0-0.2c0-0.3,0-0.6-0.1-0.8c-0.1-0.2-0.2-0.5-0.4-0.6c-0.2-0.2-0.4-0.3-0.6-0.4c-0.2-0.1-0.5-0.1-0.8-0.1
		c-0.3,0-0.6,0.1-0.9,0.2c-0.3,0.1-0.5,0.3-0.7,0.5c-0.2,0.2-0.3,0.4-0.4,0.7c-0.1,0.3-0.1,0.5-0.1,0.8c0,0.4,0.1,0.7,0.2,1
		c0.1,0.3,0.3,0.5,0.5,0.7c0.2,0.2,0.4,0.3,0.7,0.4c0.3,0.1,0.6,0.1,0.9,0.1c0.1,0,0.3,0,0.5,0c0.2,0,0.3-0.1,0.5-0.1
		s0.3-0.1,0.5-0.2c0.2-0.1,0.3-0.2,0.4-0.4l-0.4-0.5c-0.1-0.1-0.1-0.1-0.2-0.1c-0.1,0-0.2,0-0.2,0.1c-0.1,0-0.1,0.1-0.2,0.1
		c-0.1,0-0.2,0.1-0.3,0.1c-0.1,0-0.2,0.1-0.4,0.1c-0.3,0-0.5-0.1-0.7-0.2c-0.2-0.2-0.3-0.4-0.3-0.8H28.4L28.4,444.4z"/>
	<path class="st50" d="M34.1,445.7v-5.4h-0.6l-1.8,1.5l0.2,0.3c0,0,0,0,0.1,0.1c0,0,0.1,0,0.1,0c0,0,0.1,0,0.1,0c0,0,0.1,0,0.1-0.1
		l1.1-0.9c0,0.1,0,0.2,0,0.4v4.1h-1.3v0.6h3.2v-0.6H34.1L34.1,445.7z M37.8,445.7c-0.2-0.1-0.3-0.2-0.4-0.3
		c-0.1-0.1-0.2-0.3-0.2-0.4c-0.1-0.2-0.1-0.3-0.1-0.5c0-0.2,0-0.3,0.1-0.5c0.1-0.2,0.1-0.3,0.3-0.4c0.1-0.1,0.3-0.2,0.4-0.3
		c0.2-0.1,0.3-0.1,0.5-0.1c0.2,0,0.4,0,0.5,0.1c0.2,0.1,0.3,0.1,0.4,0.3c0.1,0.1,0.2,0.2,0.3,0.4c0.1,0.2,0.1,0.3,0.1,0.5
		c0,0.2,0,0.4-0.1,0.5c-0.1,0.2-0.2,0.3-0.3,0.4c-0.1,0.1-0.3,0.2-0.4,0.3c-0.2,0.1-0.3,0.1-0.5,0.1C38.1,445.7,38,445.7,37.8,445.7
		L37.8,445.7z M39.7,440.3H39c-0.1,0-0.2,0-0.2,0.1c-0.1,0-0.1,0.1-0.2,0.1l-1.5,2c-0.3,0.3-0.4,0.7-0.6,1c-0.1,0.3-0.2,0.6-0.2,0.8
		c0,0.3,0,0.6,0.1,0.8c0.1,0.3,0.2,0.5,0.4,0.6c0.2,0.2,0.4,0.3,0.6,0.4c0.2,0.1,0.5,0.1,0.8,0.1c0.3,0,0.6-0.1,0.8-0.2
		c0.3-0.1,0.5-0.2,0.6-0.4c0.2-0.2,0.3-0.4,0.4-0.6c0.1-0.2,0.2-0.5,0.2-0.8c0-0.3,0-0.5-0.1-0.8c-0.1-0.2-0.2-0.4-0.4-0.6
		c-0.2-0.2-0.3-0.3-0.6-0.3c-0.2-0.1-0.4-0.1-0.7-0.1c-0.2,0-0.4,0-0.6,0.1c-0.2,0.1-0.3,0.1-0.5,0.2c0-0.1,0.1-0.1,0.1-0.2
		c0-0.1,0.1-0.1,0.2-0.2L39.7,440.3L39.7,440.3z M45.2,441.9c-0.1-0.4-0.3-0.7-0.5-1c-0.2-0.3-0.4-0.4-0.7-0.6
		c-0.3-0.1-0.6-0.2-0.9-0.2c-0.3,0-0.6,0.1-0.9,0.2c-0.3,0.1-0.5,0.3-0.7,0.6c-0.2,0.3-0.3,0.6-0.5,1c-0.1,0.4-0.2,0.8-0.2,1.4
		c0,0.5,0.1,1,0.2,1.4c0.1,0.4,0.3,0.7,0.5,1c0.2,0.3,0.4,0.4,0.7,0.6c0.3,0.1,0.5,0.2,0.9,0.2c0.3,0,0.6-0.1,0.9-0.2
		c0.3-0.1,0.5-0.3,0.7-0.6c0.2-0.3,0.3-0.6,0.5-1c0.1-0.4,0.2-0.8,0.2-1.4C45.4,442.8,45.3,442.3,45.2,441.9L45.2,441.9z
		 M44.5,444.5c-0.1,0.3-0.2,0.6-0.3,0.7c-0.1,0.2-0.3,0.3-0.5,0.4c-0.2,0.1-0.3,0.1-0.5,0.1c-0.2,0-0.4,0-0.5-0.1
		c-0.2-0.1-0.3-0.2-0.4-0.4c-0.1-0.2-0.2-0.4-0.3-0.7c-0.1-0.3-0.1-0.7-0.1-1.2c0-0.5,0-0.8,0.1-1.2c0.1-0.3,0.2-0.6,0.3-0.8
		c0.1-0.2,0.3-0.3,0.4-0.4c0.2-0.1,0.3-0.1,0.5-0.1c0.2,0,0.4,0,0.5,0.1c0.2,0.1,0.3,0.2,0.5,0.4c0.1,0.2,0.2,0.4,0.3,0.8
		c0.1,0.3,0.1,0.7,0.1,1.2C44.6,443.8,44.6,444.1,44.5,444.5L44.5,444.5z M49.1,443.2c0.2-0.2,0.3-0.4,0.5-0.5
		c0.2-0.1,0.4-0.2,0.6-0.2c0.2,0,0.3,0,0.5,0.1c0.1,0.1,0.2,0.2,0.3,0.3c0.1,0.1,0.2,0.3,0.2,0.5c0,0.2,0.1,0.4,0.1,0.7
		c0,0.5-0.1,0.9-0.3,1.2c-0.2,0.3-0.5,0.4-0.9,0.4c-0.2,0-0.4,0-0.5-0.1c-0.2-0.1-0.3-0.2-0.4-0.4V443.2L49.1,443.2z M49,442.2
		c0-0.1-0.1-0.2-0.2-0.2h-0.4v5.7h0.7v-1.9c0.1,0.2,0.3,0.3,0.5,0.4c0.2,0.1,0.4,0.1,0.7,0.1c0.3,0,0.5-0.1,0.8-0.2
		c0.2-0.1,0.4-0.3,0.6-0.5c0.2-0.2,0.3-0.4,0.4-0.7c0.1-0.3,0.1-0.6,0.1-0.9c0-0.4,0-0.7-0.1-0.9c-0.1-0.3-0.2-0.5-0.3-0.7
		c-0.1-0.2-0.3-0.3-0.5-0.4c-0.2-0.1-0.4-0.1-0.7-0.1c-0.3,0-0.6,0.1-0.8,0.2s-0.4,0.3-0.6,0.5L49,442.2L49,442.2z M53.1,442.1v4.2
		h0.7v-4.2H53.1L53.1,442.1z M54,440.5c0-0.1-0.1-0.1-0.1-0.2c0,0-0.1-0.1-0.2-0.1c-0.1,0-0.1,0-0.2,0c-0.1,0-0.1,0-0.2,0
		c-0.1,0-0.1,0.1-0.2,0.1c0,0-0.1,0.1-0.1,0.2c0,0.1,0,0.1,0,0.2c0,0.1,0,0.1,0,0.2c0,0.1,0.1,0.1,0.1,0.2c0,0,0.1,0.1,0.2,0.1
		c0.1,0,0.1,0,0.2,0c0.1,0,0.1,0,0.2,0c0.1,0,0.1-0.1,0.2-0.1c0,0,0.1-0.1,0.1-0.2c0-0.1,0-0.1,0-0.2C54,440.7,54,440.6,54,440.5
		L54,440.5z M57.1,444.1l1.4-2h-0.7c0,0-0.1,0-0.1,0c0,0-0.1,0.1-0.1,0.1l-0.9,1.3c0,0.1-0.1,0.2-0.1,0.2l-1-1.6c0,0,0-0.1-0.1-0.1
		c0,0-0.1,0-0.1,0h-0.7l1.4,2.1l-1.5,2.2h0.7c0.1,0,0.1,0,0.1,0c0,0,0.1-0.1,0.1-0.1l1-1.4c0,0,0-0.1,0.1-0.1c0,0,0-0.1,0-0.1
		l1.1,1.7c0,0,0.1,0.1,0.1,0.1c0,0,0.1,0,0.1,0h0.7L57.1,444.1L57.1,444.1z"/>
	<path class="st50" d="M59.6,443.7c0.1-0.4,0.2-0.7,0.4-0.9c0.2-0.2,0.5-0.3,0.8-0.3c0.2,0,0.3,0,0.5,0.1c0.1,0.1,0.2,0.1,0.3,0.2
		c0.1,0.1,0.2,0.2,0.2,0.4c0,0.1,0.1,0.3,0.1,0.5H59.6L59.6,443.7z M62.3,445.4c0,0-0.1-0.1-0.1-0.1c0,0-0.1,0-0.2,0.1
		c-0.1,0-0.1,0.1-0.2,0.1c-0.1,0.1-0.2,0.1-0.3,0.1c-0.1,0-0.3,0.1-0.5,0.1c-0.2,0-0.4,0-0.5-0.1c-0.2-0.1-0.3-0.2-0.4-0.3
		c-0.1-0.1-0.2-0.3-0.3-0.5c-0.1-0.2-0.1-0.4-0.1-0.7h2.8c0.1,0,0.1,0,0.1-0.1c0,0,0-0.1,0-0.2c0-0.3,0-0.6-0.1-0.8
		c-0.1-0.2-0.2-0.4-0.4-0.6c-0.2-0.2-0.3-0.3-0.6-0.4c-0.2-0.1-0.5-0.1-0.7-0.1c-0.3,0-0.6,0.1-0.8,0.2c-0.2,0.1-0.5,0.3-0.6,0.4
		c-0.2,0.2-0.3,0.4-0.4,0.7c-0.1,0.3-0.1,0.5-0.1,0.8c0,0.4,0.1,0.7,0.2,1c0.1,0.3,0.2,0.5,0.4,0.7c0.2,0.2,0.4,0.3,0.6,0.4
		c0.2,0.1,0.5,0.1,0.8,0.1c0.2,0,0.3,0,0.5,0c0.2,0,0.3-0.1,0.5-0.1c0.1-0.1,0.3-0.1,0.4-0.2c0.1-0.1,0.2-0.2,0.3-0.3L62.3,445.4
		L62.3,445.4z M63.5,440.1v6.2h0.7v-6.2H63.5L63.5,440.1z"/>
	<g>
		<defs>
			<rect id="SVGID_99_" x="8.1" y="485.9" width="237.4" height="37.2"/>
		</defs>
		<defs>
			<path id="SVGID_100_" d="M31.9,485.9H21.4c-1.4,0-2.7,0.6-3.7,1.5l-8.1,8.1c-1,1-1.5,2.3-1.5,3.7v10.5c0,0.6,0.1,1.3,0.3,1.8
				l25.4-25.4C33.2,486,32.6,485.9,31.9,485.9"/>
		</defs>
		<clipPath id="SVGID_101_">
			<use xlink:href="#SVGID_99_"  style="overflow:visible;"/>
		</clipPath>
		<clipPath id="SVGID_102_" class="st51">
			<use xlink:href="#SVGID_100_"  style="overflow:visible;"/>
		</clipPath>
		<rect x="5.7" y="483.5" class="st52" width="30.4" height="30.4"/>
	</g>
	<g>
		<defs>
			<rect id="SVGID_103_" x="8.1" y="485.9" width="237.4" height="37.2"/>
		</defs>
		<defs>
			<path id="SVGID_104_" d="M43.8,495.5l-7.8-7.8l-7.4,7.4L45,511.6c0.2-0.6,0.3-1.2,0.3-1.8v-10.5
				C45.3,497.8,44.7,496.5,43.8,495.5"/>
		</defs>
		<clipPath id="SVGID_105_">
			<use xlink:href="#SVGID_103_"  style="overflow:visible;"/>
		</clipPath>
		<clipPath id="SVGID_106_" class="st53">
			<use xlink:href="#SVGID_104_"  style="overflow:visible;"/>
		</clipPath>
		<rect x="26.2" y="485.4" class="st54" width="21.4" height="28.5"/>
	</g>
	<g>
		<defs>
			<rect id="SVGID_107_" x="8.1" y="485.9" width="237.4" height="37.2"/>
		</defs>
		<defs>
			<path id="SVGID_108_" d="M31.9,504.5H21.4c-0.6,0-1.3,0.1-1.8,0.3L36,521.2l7.4-7.4l-7.8-7.8C34.7,505,33.3,504.5,31.9,504.5"/>
		</defs>
		<clipPath id="SVGID_109_">
			<use xlink:href="#SVGID_107_"  style="overflow:visible;"/>
		</clipPath>
		<clipPath id="SVGID_110_" class="st55">
			<use xlink:href="#SVGID_108_"  style="overflow:visible;"/>
		</clipPath>
		<rect x="17.2" y="502.1" class="st56" width="28.5" height="21.4"/>
	</g>
	<g>
		<defs>
			<rect id="SVGID_111_" x="8.1" y="485.9" width="237.4" height="37.2"/>
		</defs>
		<defs>
			<polygon id="SVGID_112_" points="17.4,506.3 9.9,513.8 17.4,521.2 24.8,513.8 17.4,506.3 			"/>
		</defs>
		<clipPath id="SVGID_113_">
			<use xlink:href="#SVGID_111_"  style="overflow:visible;"/>
		</clipPath>
		<clipPath id="SVGID_114_" class="st57">
			<use xlink:href="#SVGID_112_"  style="overflow:visible;"/>
		</clipPath>
		<rect x="7.6" y="504" class="st58" width="19.5" height="19.5"/>
	</g>
	<g>
		<defs>
			<rect id="SVGID_115_" x="8.1" y="485.9" width="237.4" height="37.2"/>
		</defs>
		<defs>
			<path id="SVGID_116_" d="M19.6,522.7c0.6,0.2,1.2,0.3,1.8,0.3h10.5c0.6,0,1.3-0.1,1.8-0.3l-7.1-7.1L19.6,522.7L19.6,522.7z"/>
		</defs>
		<clipPath id="SVGID_117_">
			<use xlink:href="#SVGID_115_"  style="overflow:visible;"/>
		</clipPath>
		<clipPath id="SVGID_118_" class="st59">
			<use xlink:href="#SVGID_116_"  style="overflow:visible;"/>
		</clipPath>
		<rect x="17.2" y="513.3" class="st60" width="18.9" height="12.1"/>
	</g>
	<g>
		<defs>
			<rect id="SVGID_119_" x="8.1" y="485.9" width="237.4" height="37.2"/>
		</defs>
		<defs>
			<path id="SVGID_120_" d="M168.2,485.9c2.9,0,5.1,0.8,6.7,2.4c1.6,1.6,2.4,3.8,2.4,6.6v1.3c0,0.7-0.3,1-1,1h-3.7c-0.7,0-1-0.3-1-1
				v-0.8c0-1.7-0.4-2.8-1.1-3.6c-0.7-0.7-1.9-1.1-3.6-1.1h-3.6c-1.7,0-2.8,0.4-3.6,1.1c-0.7,0.8-1.1,2-1.1,3.9v1.8
				c0,1.7,1.3,2.9,3.8,3.5c1.1,0.3,2.3,0.5,3.7,0.7c1.3,0.2,2.7,0.5,4,0.9c1.3,0.4,2.6,0.9,3.7,1.5c1.1,0.6,2,1.6,2.7,2.9
				c0.7,1.3,1,2.9,1,4.7v2.3c0,2.8-0.8,5-2.4,6.6c-1.6,1.6-3.8,2.4-6.6,2.4h-6.5c-2.8,0-5-0.8-6.7-2.4c-1.6-1.6-2.4-3.8-2.4-6.6
				v-1.5c0-0.7,0.3-1,1-1h3.7c0.7,0,1,0.3,1,1v1c0,1.6,0.4,2.8,1.1,3.5c0.7,0.7,1.9,1.1,3.6,1.1h4c1.7,0,2.9-0.4,3.6-1.1
				c0.7-0.8,1.1-2,1.1-3.7V512c0-1.2-0.5-2.2-1.4-2.9c-0.9-0.7-2.1-1.2-3.5-1.4c-1.4-0.2-2.9-0.5-4.6-0.9c-1.7-0.4-3.2-0.8-4.6-1.3
				c-1.4-0.5-2.6-1.4-3.5-2.8c-0.9-1.4-1.4-3.2-1.4-5.3v-2.4c0-2.8,0.8-5,2.4-6.6c1.6-1.6,3.8-2.4,6.6-2.4H168.2L168.2,485.9z
				 M71.9,485.9c0.8,0,1.2,0.3,1.4,1l10.1,35.3c0.2,0.7-0.1,1-0.6,1h-4.1c-0.3,0-0.6-0.1-0.7-0.2c-0.1-0.1-0.2-0.4-0.3-0.8l-2.2-7.5
				H62.6l-2.2,7.5c-0.2,0.7-0.5,1-1,1h-4.2c-0.5,0-0.7-0.3-0.6-1l10.1-35.3c0.2-0.7,0.7-1,1.4-1H71.9L71.9,485.9z M134.2,485.9
				c0.8,0,1.2,0.3,1.4,1l10.1,35.3c0.2,0.7-0.1,1-0.6,1H141c-0.3,0-0.6-0.1-0.7-0.2c-0.1-0.1-0.2-0.4-0.3-0.8l-2.2-7.5H125l-2.2,7.5
				c-0.2,0.7-0.5,1-1,1h-4.2c-0.5,0-0.7-0.3-0.6-1l10.1-35.3c0.2-0.7,0.7-1,1.4-1H134.2L134.2,485.9z M96,485.9c0.7,0,1,0.3,1,1
				v30.6c0,0.4,0.2,0.6,0.7,0.6h13.4c0.7,0,1,0.3,1,1v3c0,0.7-0.3,1-1,1H92.4c-0.7,0-1-0.3-1-1v-35.3c0-0.7,0.3-1,1-1H96L96,485.9z
				 M202.8,485.9c2.8,0,5,0.8,6.6,2.3c1.6,1.6,2.4,3.8,2.4,6.6v2.8c0,0.7-0.3,1-1,1h-3.6c-0.7,0-1-0.3-1-1v-2.5
				c0-2.9-1.4-4.3-4.2-4.3h-5c-2.8,0-4.2,1.4-4.2,4.3v18.8c0,2.9,1.4,4.3,4.2,4.3h5c2.8,0,4.2-1.4,4.2-4.3v-2.5c0-0.7,0.3-1,1-1h3.6
				c0.7,0,1,0.3,1,1v2.8c0,2.8-0.8,5-2.4,6.6c-1.6,1.6-3.8,2.4-6.6,2.4h-6.7c-2.9,0-5.1-0.8-6.6-2.4c-1.6-1.6-2.3-3.8-2.3-6.6v-19.3
				c0-2.9,0.8-5.1,2.3-6.6c1.6-1.6,3.8-2.3,6.6-2.3H202.8L202.8,485.9z M236.4,485.9c2.9,0,5.1,0.8,6.7,2.3c1.6,1.6,2.4,3.8,2.4,6.6
				v19.3c0,2.8-0.8,5-2.4,6.6c-1.6,1.6-3.8,2.4-6.7,2.4h-6.7c-2.9,0-5.1-0.8-6.6-2.4c-1.6-1.6-2.3-3.8-2.3-6.6v-19.3
				c0-2.9,0.8-5.1,2.3-6.6c1.6-1.6,3.8-2.3,6.6-2.3H236.4L236.4,485.9z M235.5,490.8h-5c-2.8,0-4.2,1.4-4.2,4.3v18.8
				c0,2.9,1.4,4.3,4.2,4.3h5c2.8,0,4.2-1.4,4.2-4.3v-18.8C239.7,492.2,238.3,490.8,235.5,490.8L235.5,490.8z M69.1,491.4h-0.2
				l-5.1,18.5h10.5L69.1,491.4L69.1,491.4z M131.5,491.4h-0.2l-5.1,18.5h10.5L131.5,491.4L131.5,491.4z"/>
		</defs>
		<clipPath id="SVGID_121_">
			<use xlink:href="#SVGID_119_"  style="overflow:visible;"/>
		</clipPath>
		<clipPath id="SVGID_122_" class="st61">
			<use xlink:href="#SVGID_120_"  style="overflow:visible;"/>
		</clipPath>
		<rect x="52.3" y="483.5" class="st62" width="195.5" height="41.9"/>
	</g>
	<path class="st50" d="M14.4,535.1c-0.1,0-0.1,0-0.2,0c0,0-0.1,0-0.1,0c0,0-0.1,0-0.1,0.1c0,0-0.1,0.1-0.1,0.1l-1.6,3.1
		c-0.1,0.1-0.1,0.2-0.2,0.3c-0.1,0.1-0.1,0.2-0.1,0.4c0-0.1-0.1-0.2-0.1-0.4c-0.1-0.1-0.1-0.2-0.2-0.3l-1.6-3.1
		c0-0.1-0.1-0.1-0.1-0.1c0,0-0.1-0.1-0.1-0.1c0,0-0.1,0-0.1,0c0,0-0.1,0-0.2,0H8.7v6.1h1.2v-3.5c0-0.1,0-0.2,0-0.3
		c0-0.1,0-0.2,0-0.3l1.6,3.1c0.1,0.1,0.1,0.2,0.2,0.2c0.1,0.1,0.2,0.1,0.3,0.1h0.2c0.1,0,0.2,0,0.3-0.1c0.1-0.1,0.2-0.1,0.2-0.2
		l1.6-3.1c0,0.1,0,0.2,0,0.3c0,0.1,0,0.2,0,0.3v3.5h1.2v-6.1H14.4L14.4,535.1z"/>
	<path class="st50" d="M17.5,538.5c0-0.3,0.1-0.5,0.3-0.6c0.1-0.1,0.3-0.2,0.6-0.2c0.1,0,0.3,0,0.4,0.1c0.1,0,0.2,0.1,0.2,0.2
		c0.1,0.1,0.1,0.2,0.1,0.3c0,0.1,0,0.2,0,0.3H17.5L17.5,538.5z M20,539.3c0.1,0,0.1,0,0.1,0c0,0,0.1,0,0.1-0.1c0,0,0-0.1,0-0.1
		c0-0.1,0-0.1,0-0.2c0-0.3,0-0.6-0.1-0.8c-0.1-0.2-0.2-0.5-0.4-0.6c-0.2-0.2-0.4-0.3-0.6-0.4c-0.2-0.1-0.5-0.1-0.8-0.1
		c-0.3,0-0.6,0.1-0.9,0.2c-0.3,0.1-0.5,0.3-0.7,0.5c-0.2,0.2-0.3,0.4-0.4,0.7c-0.1,0.3-0.1,0.5-0.1,0.8c0,0.4,0.1,0.7,0.2,1
		c0.1,0.3,0.3,0.5,0.5,0.7c0.2,0.2,0.4,0.3,0.7,0.4c0.3,0.1,0.6,0.1,0.9,0.1c0.1,0,0.3,0,0.5,0c0.2,0,0.3-0.1,0.5-0.1
		c0.2-0.1,0.3-0.1,0.5-0.2c0.2-0.1,0.3-0.2,0.4-0.4l-0.4-0.5c-0.1-0.1-0.1-0.1-0.2-0.1c-0.1,0-0.2,0-0.2,0.1c-0.1,0-0.1,0.1-0.2,0.1
		c-0.1,0-0.2,0.1-0.3,0.1c-0.1,0-0.2,0.1-0.4,0.1c-0.3,0-0.5-0.1-0.7-0.2c-0.2-0.2-0.3-0.4-0.3-0.8H20L20,539.3z M23.6,539.9
		c-0.1,0.1-0.1,0.1-0.2,0.2c-0.1,0.1-0.1,0.1-0.2,0.1c-0.1,0-0.1,0.1-0.2,0.1c-0.1,0-0.2,0-0.3,0c-0.1,0-0.2,0-0.3-0.1
		c-0.1,0-0.2-0.1-0.2-0.2c-0.1-0.1-0.1-0.2-0.1-0.4c0-0.2-0.1-0.3-0.1-0.6c0-0.2,0-0.4,0.1-0.6c0-0.2,0.1-0.3,0.2-0.4
		c0.1-0.1,0.2-0.2,0.3-0.2c0.1,0,0.2-0.1,0.3-0.1c0.1,0,0.2,0,0.4,0.1c0.1,0,0.2,0.1,0.3,0.2V539.9L23.6,539.9z M23.6,535v2.2
		c-0.1-0.1-0.3-0.2-0.4-0.3c-0.2-0.1-0.3-0.1-0.6-0.1c-0.3,0-0.5,0.1-0.8,0.2c-0.2,0.1-0.4,0.3-0.6,0.5c-0.2,0.2-0.3,0.4-0.4,0.7
		c-0.1,0.3-0.1,0.6-0.1,0.9c0,0.4,0,0.7,0.1,0.9c0.1,0.3,0.2,0.5,0.3,0.7c0.1,0.2,0.3,0.3,0.5,0.4c0.2,0.1,0.4,0.2,0.6,0.2
		c0.1,0,0.3,0,0.4,0c0.1,0,0.2-0.1,0.4-0.1c0.1-0.1,0.2-0.1,0.3-0.2c0.1-0.1,0.2-0.2,0.3-0.3l0.1,0.3c0.1,0.1,0.2,0.2,0.3,0.2h0.8
		V535H23.6L23.6,535z M25.8,536.9v4.3h1.3v-4.3H25.8L25.8,536.9z M27.1,535.4c0-0.1-0.1-0.2-0.2-0.2c-0.1-0.1-0.2-0.1-0.3-0.2
		c-0.1,0-0.2-0.1-0.3-0.1c-0.1,0-0.2,0-0.3,0.1c-0.1,0-0.2,0.1-0.2,0.2c-0.1,0.1-0.1,0.2-0.2,0.2c0,0.1-0.1,0.2-0.1,0.3
		c0,0.1,0,0.2,0.1,0.3c0,0.1,0.1,0.2,0.2,0.2c0.1,0.1,0.2,0.1,0.2,0.2c0.1,0,0.2,0.1,0.3,0.1c0.1,0,0.2,0,0.3-0.1
		c0.1,0,0.2-0.1,0.3-0.2c0.1-0.1,0.1-0.1,0.2-0.2c0-0.1,0.1-0.2,0.1-0.3C27.2,535.6,27.2,535.5,27.1,535.4L27.1,535.4z M30.6,536.9
		v3.1c-0.1,0.1-0.2,0.2-0.4,0.2c-0.1,0.1-0.3,0.1-0.4,0.1c-0.2,0-0.3-0.1-0.4-0.2c-0.1-0.1-0.1-0.3-0.1-0.5v-2.8h-1.3v2.8
		c0,0.2,0,0.5,0.1,0.7c0.1,0.2,0.2,0.4,0.3,0.5c0.1,0.1,0.3,0.3,0.5,0.3c0.2,0.1,0.4,0.1,0.6,0.1c0.1,0,0.3,0,0.4,0
		c0.1,0,0.2-0.1,0.3-0.1c0.1,0,0.2-0.1,0.3-0.2c0.1-0.1,0.2-0.1,0.3-0.2l0.1,0.3c0.1,0.1,0.2,0.2,0.3,0.2h0.8v-4.3H30.6L30.6,536.9z
		 M34.1,541.2v-3.1c0.1-0.1,0.2-0.2,0.3-0.2c0.1-0.1,0.2-0.1,0.3-0.1c0.2,0,0.3,0.1,0.4,0.2c0.1,0.1,0.1,0.3,0.1,0.5v2.8h1.3v-2.8
		c0-0.2,0.1-0.4,0.2-0.5c0.1-0.1,0.3-0.2,0.4-0.2c0.4,0,0.6,0.2,0.6,0.7v2.8H39v-2.8c0-0.3,0-0.5-0.1-0.7c-0.1-0.2-0.2-0.4-0.3-0.5
		c-0.1-0.1-0.3-0.2-0.5-0.3c-0.2-0.1-0.4-0.1-0.7-0.1c-0.1,0-0.3,0-0.4,0c-0.1,0-0.3,0.1-0.4,0.1s-0.2,0.1-0.3,0.2
		c-0.1,0.1-0.2,0.2-0.3,0.3c-0.1-0.2-0.2-0.4-0.4-0.5c-0.2-0.1-0.4-0.2-0.7-0.2c-0.1,0-0.2,0-0.3,0c-0.1,0-0.2,0.1-0.3,0.1
		c-0.1,0-0.2,0.1-0.3,0.2c-0.1,0.1-0.2,0.1-0.2,0.2l-0.1-0.2c-0.1-0.1-0.2-0.2-0.3-0.2h-0.8v4.3H34.1L34.1,541.2z"/>
	<path class="st50" d="M43.5,540.6c-0.2-0.1-0.3-0.1-0.4-0.2c-0.1-0.1-0.2-0.2-0.2-0.4c-0.1-0.1-0.1-0.3-0.1-0.5
		c0-0.2,0-0.4,0.1-0.5c0.1-0.1,0.2-0.3,0.3-0.4c0.1-0.1,0.2-0.2,0.4-0.2c0.2,0,0.3-0.1,0.5-0.1c0.2,0,0.3,0,0.5,0.1
		c0.2,0,0.3,0.1,0.4,0.2c0.1,0.1,0.2,0.2,0.3,0.4c0.1,0.1,0.1,0.3,0.1,0.5c0,0.2,0,0.3-0.1,0.5c-0.1,0.1-0.1,0.3-0.2,0.4
		c-0.1,0.1-0.2,0.2-0.4,0.2c-0.2,0.1-0.3,0.1-0.5,0.1C43.8,540.7,43.6,540.7,43.5,540.6L43.5,540.6z M44.5,535.8
		c0.1,0.1,0.2,0.1,0.3,0.2c0.1,0.1,0.2,0.2,0.2,0.3c0,0.1,0.1,0.3,0.1,0.4c0,0.1,0,0.3-0.1,0.4c0,0.1-0.1,0.2-0.2,0.3
		c-0.1,0.1-0.2,0.2-0.3,0.2c-0.1,0.1-0.3,0.1-0.5,0.1c-0.2,0-0.4,0-0.5-0.1c-0.1-0.1-0.3-0.1-0.3-0.2c-0.1-0.1-0.1-0.2-0.2-0.3
		c0-0.1-0.1-0.3-0.1-0.4c0-0.1,0-0.3,0.1-0.4s0.1-0.2,0.2-0.3c0.1-0.1,0.2-0.2,0.3-0.2c0.1-0.1,0.3-0.1,0.5-0.1
		C44.2,535.7,44.4,535.8,44.5,535.8L44.5,535.8z M45.6,537.6c0.2-0.2,0.2-0.5,0.2-0.8c0-0.2,0-0.4-0.1-0.6c-0.1-0.2-0.2-0.4-0.4-0.5
		c-0.2-0.1-0.4-0.3-0.6-0.3c-0.2-0.1-0.5-0.1-0.7-0.1c-0.3,0-0.5,0-0.7,0.1c-0.2,0.1-0.4,0.2-0.6,0.3c-0.2,0.1-0.3,0.3-0.4,0.5
		c-0.1,0.2-0.1,0.4-0.1,0.6c0,0.3,0.1,0.6,0.2,0.8c0.2,0.2,0.4,0.4,0.7,0.5c-0.4,0.1-0.7,0.3-0.9,0.5c-0.2,0.2-0.3,0.6-0.3,1
		c0,0.3,0,0.5,0.1,0.7c0.1,0.2,0.2,0.4,0.4,0.5c0.2,0.1,0.4,0.3,0.6,0.3c0.2,0.1,0.5,0.1,0.8,0.1c0.3,0,0.6,0,0.8-0.1
		c0.2-0.1,0.5-0.2,0.6-0.3c0.2-0.1,0.3-0.3,0.4-0.5c0.1-0.2,0.1-0.4,0.1-0.7c0-0.4-0.1-0.7-0.3-1c-0.2-0.2-0.5-0.4-0.9-0.5
		C45.2,538,45.4,537.8,45.6,537.6L45.6,537.6z M50.9,536.9c-0.1-0.4-0.3-0.7-0.5-1c-0.2-0.3-0.4-0.4-0.7-0.6
		c-0.3-0.1-0.6-0.2-0.9-0.2c-0.3,0-0.6,0.1-0.9,0.2c-0.3,0.1-0.5,0.3-0.7,0.6c-0.2,0.3-0.3,0.6-0.5,1c-0.1,0.4-0.2,0.8-0.2,1.4
		c0,0.5,0.1,1,0.2,1.4c0.1,0.4,0.3,0.7,0.5,1c0.2,0.3,0.4,0.4,0.7,0.6c0.3,0.1,0.5,0.2,0.9,0.2c0.3,0,0.6-0.1,0.9-0.2
		c0.3-0.1,0.5-0.3,0.7-0.6c0.2-0.3,0.3-0.6,0.5-1c0.1-0.4,0.2-0.8,0.2-1.4C51.1,537.7,51,537.3,50.9,536.9L50.9,536.9z M50.2,539.4
		c-0.1,0.3-0.2,0.6-0.3,0.7c-0.1,0.2-0.3,0.3-0.5,0.4c-0.2,0.1-0.3,0.1-0.5,0.1c-0.2,0-0.4,0-0.5-0.1c-0.2-0.1-0.3-0.2-0.4-0.4
		c-0.1-0.2-0.2-0.4-0.3-0.7c-0.1-0.3-0.1-0.7-0.1-1.2c0-0.5,0-0.8,0.1-1.2c0.1-0.3,0.2-0.6,0.3-0.8c0.1-0.2,0.3-0.3,0.4-0.4
		c0.2-0.1,0.3-0.1,0.5-0.1c0.2,0,0.4,0,0.5,0.1c0.2,0.1,0.3,0.2,0.5,0.4c0.1,0.2,0.2,0.4,0.3,0.8c0.1,0.3,0.1,0.7,0.1,1.2
		C50.3,538.7,50.2,539.1,50.2,539.4L50.2,539.4z M54.8,538.2c0.2-0.2,0.3-0.4,0.5-0.5c0.2-0.1,0.4-0.2,0.6-0.2c0.2,0,0.3,0,0.5,0.1
		c0.1,0.1,0.2,0.2,0.3,0.3c0.1,0.1,0.2,0.3,0.2,0.5c0,0.2,0.1,0.4,0.1,0.7c0,0.5-0.1,0.9-0.3,1.2c-0.2,0.3-0.5,0.4-0.9,0.4
		c-0.2,0-0.4,0-0.5-0.1c-0.2-0.1-0.3-0.2-0.4-0.4V538.2L54.8,538.2z M54.7,537.1c0-0.1-0.1-0.2-0.2-0.2H54v5.7h0.7v-1.9
		c0.1,0.2,0.3,0.3,0.5,0.4c0.2,0.1,0.4,0.1,0.7,0.1c0.3,0,0.5-0.1,0.8-0.2c0.2-0.1,0.4-0.3,0.6-0.5c0.2-0.2,0.3-0.4,0.4-0.7
		c0.1-0.3,0.1-0.6,0.1-0.9c0-0.4,0-0.7-0.1-0.9c-0.1-0.3-0.2-0.5-0.3-0.7c-0.1-0.2-0.3-0.3-0.5-0.4c-0.2-0.1-0.4-0.1-0.7-0.1
		c-0.3,0-0.6,0.1-0.8,0.2s-0.4,0.3-0.6,0.5L54.7,537.1L54.7,537.1z M58.8,537v4.2h0.7V537H58.8L58.8,537z M59.6,535.5
		c0-0.1-0.1-0.1-0.1-0.2c0,0-0.1-0.1-0.2-0.1c-0.1,0-0.1,0-0.2,0c-0.1,0-0.1,0-0.2,0c-0.1,0-0.1,0.1-0.2,0.1c0,0-0.1,0.1-0.1,0.2
		c0,0.1,0,0.1,0,0.2s0,0.1,0,0.2c0,0.1,0.1,0.1,0.1,0.2c0,0,0.1,0.1,0.2,0.1c0.1,0,0.1,0,0.2,0c0.1,0,0.1,0,0.2,0
		c0.1,0,0.1-0.1,0.2-0.1c0,0,0.1-0.1,0.1-0.2c0-0.1,0-0.1,0-0.2S59.7,535.5,59.6,535.5L59.6,535.5z M62.7,539l1.4-2h-0.7
		c0,0-0.1,0-0.1,0c0,0-0.1,0.1-0.1,0.1l-0.9,1.3c0,0.1-0.1,0.2-0.1,0.2l-1-1.6c0,0,0-0.1-0.1-0.1c0,0-0.1,0-0.1,0h-0.7l1.4,2.1
		l-1.5,2.2h0.7c0.1,0,0.1,0,0.1,0c0,0,0.1-0.1,0.1-0.1l1-1.4c0,0,0-0.1,0.1-0.1c0,0,0-0.1,0-0.1l1.1,1.7c0,0,0.1,0.1,0.1,0.1
		c0,0,0.1,0,0.1,0h0.7L62.7,539L62.7,539z"/>
	<path class="st50" d="M65.3,538.7c0.1-0.4,0.2-0.7,0.4-0.9c0.2-0.2,0.5-0.3,0.8-0.3c0.2,0,0.3,0,0.5,0.1c0.1,0.1,0.2,0.1,0.3,0.2
		c0.1,0.1,0.2,0.2,0.2,0.4c0,0.1,0.1,0.3,0.1,0.5H65.3L65.3,538.7z M68,540.4c0,0-0.1-0.1-0.1-0.1c0,0-0.1,0-0.2,0.1
		c-0.1,0-0.1,0.1-0.2,0.1c-0.1,0.1-0.2,0.1-0.3,0.1c-0.1,0-0.3,0.1-0.5,0.1c-0.2,0-0.4,0-0.5-0.1c-0.2-0.1-0.3-0.2-0.4-0.3
		s-0.2-0.3-0.3-0.5c-0.1-0.2-0.1-0.4-0.1-0.7h2.8c0.1,0,0.1,0,0.1-0.1s0-0.1,0-0.2c0-0.3,0-0.6-0.1-0.8c-0.1-0.2-0.2-0.4-0.4-0.6
		c-0.2-0.2-0.3-0.3-0.6-0.4c-0.2-0.1-0.5-0.1-0.7-0.1c-0.3,0-0.6,0.1-0.8,0.2c-0.2,0.1-0.5,0.3-0.6,0.4c-0.2,0.2-0.3,0.4-0.4,0.7
		c-0.1,0.3-0.1,0.5-0.1,0.8c0,0.4,0.1,0.7,0.2,1c0.1,0.3,0.2,0.5,0.4,0.7c0.2,0.2,0.4,0.3,0.6,0.4c0.2,0.1,0.5,0.1,0.8,0.1
		c0.2,0,0.3,0,0.5,0c0.2,0,0.3-0.1,0.5-0.1c0.1-0.1,0.3-0.1,0.4-0.2c0.1-0.1,0.2-0.2,0.3-0.3L68,540.4L68,540.4z M69.2,535.1v6.2
		h0.7v-6.2H69.2L69.2,535.1z"/>
	<g>
		<defs>
			<rect id="SVGID_123_" x="8.1" y="580.8" width="118.7" height="18.6"/>
		</defs>
		<defs>
			<path id="SVGID_124_" d="M20,580.8h-5.3c-0.7,0-1.4,0.3-1.9,0.8l-4,4c-0.5,0.5-0.8,1.2-0.8,1.9v5.3c0,0.3,0.1,0.6,0.2,0.9
				L20.9,581C20.6,580.9,20.3,580.8,20,580.8"/>
		</defs>
		<clipPath id="SVGID_125_">
			<use xlink:href="#SVGID_123_"  style="overflow:visible;"/>
		</clipPath>
		<clipPath id="SVGID_126_" class="st63">
			<use xlink:href="#SVGID_124_"  style="overflow:visible;"/>
		</clipPath>
		<rect x="5.7" y="578.5" class="st64" width="17.5" height="17.5"/>
	</g>
	<g>
		<defs>
			<rect id="SVGID_127_" x="8.1" y="580.8" width="118.7" height="18.6"/>
		</defs>
		<defs>
			<path id="SVGID_128_" d="M25.9,585.6l-3.9-3.9l-3.7,3.7l8.2,8.2c0.1-0.3,0.2-0.6,0.2-0.9v-5.3C26.7,586.8,26.4,586.1,25.9,585.6"
				/>
		</defs>
		<clipPath id="SVGID_129_">
			<use xlink:href="#SVGID_127_"  style="overflow:visible;"/>
		</clipPath>
		<clipPath id="SVGID_130_" class="st65">
			<use xlink:href="#SVGID_128_"  style="overflow:visible;"/>
		</clipPath>
		<rect x="16" y="579.4" class="st66" width="13" height="16.6"/>
	</g>
	<g>
		<defs>
			<rect id="SVGID_131_" x="8.1" y="580.8" width="118.7" height="18.6"/>
		</defs>
		<defs>
			<path id="SVGID_132_" d="M20,590.1h-5.3c-0.3,0-0.6,0.1-0.9,0.2l8.2,8.2l3.7-3.7l-3.9-3.9C21.4,590.4,20.7,590.1,20,590.1"/>
		</defs>
		<clipPath id="SVGID_133_">
			<use xlink:href="#SVGID_131_"  style="overflow:visible;"/>
		</clipPath>
		<clipPath id="SVGID_134_" class="st67">
			<use xlink:href="#SVGID_132_"  style="overflow:visible;"/>
		</clipPath>
		<rect x="11.5" y="587.8" class="st68" width="16.6" height="13"/>
	</g>
	<g>
		<defs>
			<rect id="SVGID_135_" x="8.1" y="580.8" width="118.7" height="18.6"/>
		</defs>
		<defs>
			<polygon id="SVGID_136_" points="12.7,591 9,594.8 12.7,598.5 16.4,594.8 12.7,591 			"/>
		</defs>
		<clipPath id="SVGID_137_">
			<use xlink:href="#SVGID_135_"  style="overflow:visible;"/>
		</clipPath>
		<clipPath id="SVGID_138_" class="st69">
			<use xlink:href="#SVGID_136_"  style="overflow:visible;"/>
		</clipPath>
		<rect x="6.7" y="588.7" class="st70" width="12.1" height="12.1"/>
	</g>
	<g>
		<defs>
			<rect id="SVGID_139_" x="8.1" y="580.8" width="118.7" height="18.6"/>
		</defs>
		<defs>
			<path id="SVGID_140_" d="M13.8,599.2c0.3,0.1,0.6,0.2,0.9,0.2H20c0.3,0,0.6-0.1,0.9-0.2l-3.6-3.6L13.8,599.2L13.8,599.2z"/>
		</defs>
		<clipPath id="SVGID_141_">
			<use xlink:href="#SVGID_139_"  style="overflow:visible;"/>
		</clipPath>
		<clipPath id="SVGID_142_" class="st71">
			<use xlink:href="#SVGID_140_"  style="overflow:visible;"/>
		</clipPath>
		<rect x="11.5" y="593.4" class="st72" width="11.8" height="8.4"/>
	</g>
	<g>
		<defs>
			<rect id="SVGID_143_" x="8.1" y="580.8" width="118.7" height="18.6"/>
		</defs>
		<defs>
			<path id="SVGID_144_" d="M88.1,580.8c1.4,0,2.5,0.4,3.3,1.2c0.8,0.8,1.2,1.9,1.2,3.3v0.6c0,0.3-0.2,0.5-0.5,0.5h-1.9
				c-0.3,0-0.5-0.2-0.5-0.5v-0.4c0-0.8-0.2-1.4-0.5-1.8c-0.4-0.4-0.9-0.5-1.8-0.5h-1.8c-0.8,0-1.4,0.2-1.8,0.6
				c-0.4,0.4-0.5,1-0.5,1.9v0.9c0,0.9,0.6,1.5,1.9,1.8c0.6,0.1,1.2,0.3,1.8,0.3c0.7,0.1,1.3,0.2,2,0.4c0.7,0.2,1.3,0.4,1.9,0.8
				c0.6,0.3,1,0.8,1.4,1.4c0.3,0.6,0.5,1.4,0.5,2.4v1.1c0,1.4-0.4,2.5-1.2,3.3c-0.8,0.8-1.9,1.2-3.3,1.2h-3.2
				c-1.4,0-2.5-0.4-3.3-1.2c-0.8-0.8-1.2-1.9-1.2-3.3v-0.8c0-0.3,0.2-0.5,0.5-0.5h1.8c0.3,0,0.5,0.2,0.5,0.5v0.5
				c0,0.8,0.2,1.4,0.5,1.8c0.4,0.4,0.9,0.5,1.8,0.5h2c0.8,0,1.4-0.2,1.8-0.6c0.4-0.4,0.5-1,0.5-1.8v-0.7c0-0.6-0.2-1.1-0.7-1.5
				c-0.5-0.4-1.1-0.6-1.7-0.7c-0.7-0.1-1.5-0.3-2.3-0.4c-0.8-0.2-1.6-0.4-2.3-0.7c-0.7-0.3-1.3-0.7-1.7-1.4
				c-0.5-0.7-0.7-1.6-0.7-2.7v-1.2c0-1.4,0.4-2.5,1.2-3.3c0.8-0.8,1.9-1.2,3.3-1.2H88.1L88.1,580.8z M40,580.8
				c0.4,0,0.6,0.2,0.7,0.5l5,17.6c0.1,0.3,0,0.5-0.3,0.5h-2.1c-0.2,0-0.3,0-0.4-0.1c-0.1-0.1-0.1-0.2-0.2-0.4l-1.1-3.8h-6.4
				l-1.1,3.8c-0.1,0.3-0.2,0.5-0.5,0.5h-2.1c-0.3,0-0.4-0.2-0.3-0.5l5-17.6c0.1-0.3,0.3-0.5,0.7-0.5H40L40,580.8z M71.2,580.8
				c0.4,0,0.6,0.2,0.7,0.5l5,17.6c0.1,0.3,0,0.5-0.3,0.5h-2.1c-0.2,0-0.3,0-0.4-0.1c-0.1-0.1-0.1-0.2-0.2-0.4l-1.1-3.8h-6.4
				l-1.1,3.8c-0.1,0.3-0.2,0.5-0.5,0.5h-2.1c-0.3,0-0.4-0.2-0.3-0.5l5-17.6c0.1-0.3,0.3-0.5,0.7-0.5H71.2L71.2,580.8z M52,580.8
				c0.3,0,0.5,0.2,0.5,0.5v15.3c0,0.2,0.1,0.3,0.3,0.3h6.7c0.3,0,0.5,0.2,0.5,0.5v1.5c0,0.3-0.2,0.5-0.5,0.5h-9.4
				c-0.3,0-0.5-0.2-0.5-0.5v-17.6c0-0.3,0.2-0.5,0.5-0.5H52L52,580.8z M105.5,580.8c1.4,0,2.5,0.4,3.3,1.2c0.8,0.8,1.2,1.9,1.2,3.3
				v1.4c0,0.3-0.2,0.5-0.5,0.5h-1.8c-0.3,0-0.5-0.2-0.5-0.5v-1.3c0-1.4-0.7-2.1-2.1-2.1h-2.5c-1.4,0-2.1,0.7-2.1,2.1v9.4
				c0,1.4,0.7,2.1,2.1,2.1h2.5c1.4,0,2.1-0.7,2.1-2.1v-1.3c0-0.3,0.2-0.5,0.5-0.5h1.8c0.3,0,0.5,0.2,0.5,0.5v1.4
				c0,1.4-0.4,2.5-1.2,3.3c-0.8,0.8-1.9,1.2-3.3,1.2h-3.4c-1.4,0-2.5-0.4-3.3-1.2c-0.8-0.8-1.2-1.9-1.2-3.3v-9.6
				c0-1.4,0.4-2.5,1.2-3.3c0.8-0.8,1.9-1.2,3.3-1.2H105.5L105.5,580.8z M122.2,580.8c1.4,0,2.5,0.4,3.3,1.2c0.8,0.8,1.2,1.9,1.2,3.3
				v9.6c0,1.4-0.4,2.5-1.2,3.3c-0.8,0.8-1.9,1.2-3.3,1.2h-3.4c-1.4,0-2.5-0.4-3.3-1.2c-0.8-0.8-1.2-1.9-1.2-3.3v-9.6
				c0-1.4,0.4-2.5,1.2-3.3c0.8-0.8,1.9-1.2,3.3-1.2H122.2L122.2,580.8z M121.8,583.3h-2.5c-1.4,0-2.1,0.7-2.1,2.1v9.4
				c0,1.4,0.7,2.1,2.1,2.1h2.5c1.4,0,2.1-0.7,2.1-2.1v-9.4C123.9,584,123.2,583.3,121.8,583.3L121.8,583.3z M38.6,583.6h-0.1
				l-2.5,9.3h5.2L38.6,583.6L38.6,583.6z M69.8,583.6h-0.1l-2.5,9.3h5.2L69.8,583.6L69.8,583.6z"/>
		</defs>
		<clipPath id="SVGID_145_">
			<use xlink:href="#SVGID_143_"  style="overflow:visible;"/>
		</clipPath>
		<clipPath id="SVGID_146_" class="st73">
			<use xlink:href="#SVGID_144_"  style="overflow:visible;"/>
		</clipPath>
		<rect x="29" y="578.5" class="st74" width="100.1" height="23.3"/>
	</g>
	<path class="st50" d="M12.4,612c-0.1-0.1-0.2-0.2-0.4-0.3c-0.1-0.1-0.3-0.1-0.4-0.2c-0.2-0.1-0.3-0.1-0.5-0.1c-0.2,0-0.4,0-0.5,0
		c-0.3,0-0.6,0.1-0.9,0.2c-0.3,0.1-0.5,0.2-0.7,0.4c-0.2,0.2-0.3,0.4-0.4,0.6c-0.1,0.2-0.1,0.4-0.1,0.7c0,0.3,0,0.5,0.1,0.7
		c0.1,0.2,0.2,0.4,0.3,0.5c0.1,0.1,0.3,0.2,0.4,0.3c0.2,0.1,0.3,0.1,0.5,0.2c0.2,0.1,0.3,0.1,0.5,0.1c0.2,0,0.3,0.1,0.4,0.2
		c0.1,0.1,0.2,0.1,0.3,0.2c0.1,0.1,0.1,0.2,0.1,0.3c0,0.2-0.1,0.4-0.2,0.5s-0.3,0.2-0.6,0.2c-0.2,0-0.4,0-0.5-0.1
		c-0.1-0.1-0.3-0.1-0.4-0.2c-0.1-0.1-0.2-0.1-0.3-0.2C9.1,616,9,616,8.9,616c-0.1,0-0.1,0-0.2,0c-0.1,0-0.1,0.1-0.1,0.1l-0.4,0.7
		c0.1,0.1,0.3,0.2,0.4,0.3c0.2,0.1,0.3,0.2,0.5,0.3c0.2,0.1,0.4,0.1,0.6,0.2c0.2,0,0.4,0.1,0.6,0.1c0.3,0,0.7-0.1,0.9-0.2
		c0.3-0.1,0.5-0.2,0.7-0.4c0.2-0.2,0.3-0.4,0.4-0.6c0.1-0.2,0.1-0.5,0.1-0.8c0-0.3,0-0.5-0.1-0.7c-0.1-0.2-0.2-0.3-0.3-0.5
		c-0.1-0.1-0.3-0.2-0.4-0.3c-0.2-0.1-0.3-0.2-0.5-0.2c-0.2-0.1-0.3-0.1-0.5-0.2c-0.2,0-0.3-0.1-0.4-0.2c-0.1-0.1-0.2-0.1-0.3-0.2
		c-0.1-0.1-0.1-0.2-0.1-0.3c0-0.2,0.1-0.3,0.2-0.5c0.1-0.1,0.3-0.2,0.6-0.2c0.2,0,0.3,0,0.4,0.1c0.1,0,0.2,0.1,0.3,0.1
		c0.1,0.1,0.2,0.1,0.3,0.1c0.1,0,0.1,0.1,0.2,0.1c0.1,0,0.1,0,0.2-0.1c0,0,0.1-0.1,0.1-0.2L12.4,612L12.4,612z M14.4,617.6v-3.1
		c0.1-0.1,0.2-0.2,0.3-0.2c0.1-0.1,0.2-0.1,0.3-0.1c0.2,0,0.3,0.1,0.4,0.2c0.1,0.1,0.1,0.3,0.1,0.5v2.8h1.3v-2.8
		c0-0.2,0.1-0.4,0.2-0.5c0.1-0.1,0.3-0.2,0.4-0.2c0.4,0,0.6,0.2,0.6,0.7v2.8h1.3v-2.8c0-0.3,0-0.5-0.1-0.7c-0.1-0.2-0.2-0.4-0.3-0.5
		c-0.1-0.1-0.3-0.2-0.5-0.3c-0.2-0.1-0.4-0.1-0.7-0.1c-0.1,0-0.3,0-0.4,0c-0.1,0-0.3,0.1-0.4,0.1c-0.1,0.1-0.2,0.1-0.3,0.2
		c-0.1,0.1-0.2,0.2-0.3,0.3c-0.1-0.2-0.2-0.4-0.4-0.5c-0.2-0.1-0.4-0.2-0.7-0.2c-0.1,0-0.2,0-0.3,0c-0.1,0-0.2,0.1-0.3,0.1
		c-0.1,0-0.2,0.1-0.3,0.2c-0.1,0.1-0.2,0.1-0.2,0.2l-0.1-0.2c-0.1-0.1-0.2-0.2-0.3-0.2h-0.8v4.3H14.4L14.4,617.6z M22.5,616.4
		c-0.1,0.1-0.3,0.2-0.4,0.3c-0.1,0.1-0.3,0.1-0.4,0.1c-0.2,0-0.3,0-0.4-0.1c-0.1-0.1-0.1-0.2-0.1-0.3c0-0.1,0-0.1,0.1-0.2
		c0-0.1,0.1-0.1,0.2-0.2c0.1-0.1,0.2-0.1,0.4-0.1s0.4-0.1,0.6-0.1V616.4L22.5,616.4z M20.4,614.2c0,0.1,0.1,0.1,0.2,0.2
		c0.1,0,0.1,0.1,0.2,0.1c0.1,0,0.2,0,0.3-0.1c0.1,0,0.1-0.1,0.2-0.1c0.1,0,0.2-0.1,0.3-0.1c0.1,0,0.2-0.1,0.4-0.1
		c0.2,0,0.3,0.1,0.4,0.2c0.1,0.1,0.2,0.3,0.2,0.6v0.2c-0.5,0-0.9,0.1-1.2,0.2c-0.3,0.1-0.6,0.2-0.8,0.3c-0.2,0.1-0.3,0.3-0.4,0.4
		c-0.1,0.2-0.1,0.3-0.1,0.5c0,0.2,0,0.4,0.1,0.5c0.1,0.1,0.1,0.3,0.3,0.4c0.1,0.1,0.3,0.2,0.4,0.2c0.2,0.1,0.3,0.1,0.5,0.1
		c0.1,0,0.3,0,0.4,0c0.1,0,0.2-0.1,0.3-0.1c0.1,0,0.2-0.1,0.3-0.2c0.1-0.1,0.2-0.2,0.3-0.2l0.1,0.2c0,0.1,0.1,0.2,0.2,0.2
		c0.1,0,0.2,0.1,0.3,0.1h0.6v-2.7c0-0.2,0-0.5-0.1-0.7c-0.1-0.2-0.2-0.4-0.3-0.5c-0.1-0.2-0.3-0.3-0.5-0.4c-0.2-0.1-0.4-0.1-0.7-0.1
		c-0.4,0-0.7,0.1-1,0.2c-0.3,0.1-0.6,0.3-0.9,0.5L20.4,614.2L20.4,614.2z M24.6,611.3v6.3h1.3v-6.3H24.6L24.6,611.3z M26.8,611.3
		v6.3h1.3v-6.3H26.8L26.8,611.3z"/>
	<path class="st50" d="M31.5,615.4l2.2-3c0,0.1,0,0.2,0,0.3c0,0.1,0,0.2,0,0.2v2.5H31.5L31.5,615.4z M34.3,615.4v-3.8h-0.7l-2.9,3.9
		l0.1,0.4c0,0,0,0.1,0.1,0.1c0,0,0.1,0,0.1,0h2.7v1.6h0.7V616h0.7c0.1,0,0.1,0,0.1,0c0,0,0-0.1,0-0.1v-0.4H34.3L34.3,615.4z
		 M39.9,613.2c-0.1-0.4-0.3-0.7-0.5-1c-0.2-0.3-0.4-0.4-0.7-0.6c-0.3-0.1-0.6-0.2-0.9-0.2c-0.3,0-0.6,0.1-0.9,0.2
		c-0.3,0.1-0.5,0.3-0.7,0.6c-0.2,0.3-0.3,0.6-0.5,1c-0.1,0.4-0.2,0.8-0.2,1.4c0,0.5,0.1,1,0.2,1.4c0.1,0.4,0.3,0.7,0.5,1
		c0.2,0.3,0.4,0.4,0.7,0.6c0.3,0.1,0.5,0.2,0.9,0.2c0.3,0,0.6-0.1,0.9-0.2c0.3-0.1,0.5-0.3,0.7-0.6c0.2-0.3,0.3-0.6,0.5-1
		c0.1-0.4,0.2-0.8,0.2-1.4C40.1,614,40,613.6,39.9,613.2L39.9,613.2z M39.2,615.7c-0.1,0.3-0.2,0.6-0.3,0.7
		c-0.1,0.2-0.3,0.3-0.5,0.4c-0.2,0.1-0.3,0.1-0.5,0.1c-0.2,0-0.4,0-0.5-0.1c-0.2-0.1-0.3-0.2-0.4-0.4c-0.1-0.2-0.2-0.4-0.3-0.7
		c-0.1-0.3-0.1-0.7-0.1-1.2c0-0.5,0-0.8,0.1-1.2c0.1-0.3,0.2-0.6,0.3-0.8c0.1-0.2,0.3-0.3,0.4-0.4c0.2-0.1,0.3-0.1,0.5-0.1
		c0.2,0,0.4,0,0.5,0.1c0.2,0.1,0.3,0.2,0.5,0.4c0.1,0.2,0.2,0.4,0.3,0.8c0.1,0.3,0.1,0.7,0.1,1.2C39.3,615,39.3,615.4,39.2,615.7
		L39.2,615.7z M43.8,614.5c0.2-0.2,0.3-0.4,0.5-0.5c0.2-0.1,0.4-0.2,0.6-0.2c0.2,0,0.3,0,0.5,0.1c0.1,0.1,0.2,0.2,0.3,0.3
		c0.1,0.1,0.2,0.3,0.2,0.5c0,0.2,0.1,0.4,0.1,0.7c0,0.5-0.1,0.9-0.3,1.2c-0.2,0.3-0.5,0.4-0.9,0.4c-0.2,0-0.4,0-0.5-0.1
		c-0.2-0.1-0.3-0.2-0.4-0.4V614.5L43.8,614.5z M43.7,613.5c0-0.1-0.1-0.2-0.2-0.2h-0.4v5.7h0.7v-1.9c0.1,0.2,0.3,0.3,0.5,0.4
		c0.2,0.1,0.4,0.1,0.7,0.1c0.3,0,0.5-0.1,0.8-0.2c0.2-0.1,0.4-0.3,0.6-0.5c0.2-0.2,0.3-0.4,0.4-0.7c0.1-0.3,0.1-0.6,0.1-0.9
		c0-0.4,0-0.7-0.1-0.9c-0.1-0.3-0.2-0.5-0.3-0.7c-0.1-0.2-0.3-0.3-0.5-0.4c-0.2-0.1-0.4-0.1-0.7-0.1c-0.3,0-0.6,0.1-0.8,0.2
		s-0.4,0.3-0.6,0.5L43.7,613.5L43.7,613.5z M47.8,613.3v4.2h0.7v-4.2H47.8L47.8,613.3z M48.6,611.8c0-0.1-0.1-0.1-0.1-0.2
		c0,0-0.1-0.1-0.2-0.1c-0.1,0-0.1,0-0.2,0c-0.1,0-0.1,0-0.2,0c-0.1,0-0.1,0.1-0.2,0.1c0,0-0.1,0.1-0.1,0.2c0,0.1,0,0.1,0,0.2
		c0,0.1,0,0.1,0,0.2c0,0.1,0.1,0.1,0.1,0.2c0,0,0.1,0.1,0.2,0.1c0.1,0,0.1,0,0.2,0c0.1,0,0.1,0,0.2,0c0.1,0,0.1-0.1,0.2-0.1
		c0,0,0.1-0.1,0.1-0.2c0-0.1,0-0.1,0-0.2C48.7,611.9,48.7,611.8,48.6,611.8L48.6,611.8z M51.8,615.3l1.4-2h-0.7c0,0-0.1,0-0.1,0
		c0,0-0.1,0.1-0.1,0.1l-0.9,1.3c0,0.1-0.1,0.2-0.1,0.2l-1-1.6c0,0,0-0.1-0.1-0.1c0,0-0.1,0-0.1,0h-0.7l1.4,2.1l-1.5,2.2h0.7
		c0.1,0,0.1,0,0.1,0c0,0,0.1-0.1,0.1-0.1l1-1.4c0,0,0-0.1,0.1-0.1c0,0,0-0.1,0-0.1l1.1,1.7c0,0,0.1,0.1,0.1,0.1c0,0,0.1,0,0.1,0h0.7
		L51.8,615.3L51.8,615.3z"/>
	<path class="st50" d="M54.3,615c0.1-0.4,0.2-0.7,0.4-0.9c0.2-0.2,0.5-0.3,0.8-0.3c0.2,0,0.3,0,0.5,0.1c0.1,0.1,0.2,0.1,0.3,0.2
		c0.1,0.1,0.2,0.2,0.2,0.4c0,0.1,0.1,0.3,0.1,0.5H54.3L54.3,615z M57,616.7c0,0-0.1-0.1-0.1-0.1c0,0-0.1,0-0.2,0.1
		c-0.1,0-0.1,0.1-0.2,0.1c-0.1,0.1-0.2,0.1-0.3,0.1c-0.1,0-0.3,0.1-0.5,0.1c-0.2,0-0.4,0-0.5-0.1c-0.2-0.1-0.3-0.2-0.4-0.3
		c-0.1-0.1-0.2-0.3-0.3-0.5c-0.1-0.2-0.1-0.4-0.1-0.7h2.8c0.1,0,0.1,0,0.1-0.1c0,0,0-0.1,0-0.2c0-0.3,0-0.6-0.1-0.8
		c-0.1-0.2-0.2-0.4-0.4-0.6c-0.2-0.2-0.3-0.3-0.6-0.4c-0.2-0.1-0.5-0.1-0.7-0.1c-0.3,0-0.6,0.1-0.8,0.2c-0.2,0.1-0.5,0.3-0.6,0.4
		c-0.2,0.2-0.3,0.4-0.4,0.7c-0.1,0.3-0.1,0.5-0.1,0.8c0,0.4,0.1,0.7,0.2,1c0.1,0.3,0.2,0.5,0.4,0.7c0.2,0.2,0.4,0.3,0.6,0.4
		c0.2,0.1,0.5,0.1,0.8,0.1c0.2,0,0.3,0,0.5,0c0.2,0,0.3-0.1,0.5-0.1c0.1-0.1,0.3-0.1,0.4-0.2c0.1-0.1,0.2-0.2,0.3-0.3L57,616.7
		L57,616.7z M58.2,611.4v6.2h0.7v-6.2H58.2L58.2,611.4z"/>
</g>
</svg>
