<?xml version="1.0" encoding="utf-8"?>
<!-- Generator: Adobe Illustrator 24.2.0, SVG Export Plug-In . SVG Version: 6.00 Build 0)  -->
<svg version="1.1" id="Ebene_1" focusable="false" xmlns="http://www.w3.org/2000/svg" xmlns:xlink="http://www.w3.org/1999/xlink"
	 x="0px" y="0px" viewBox="0 0 496 512" style="enable-background:new 0 0 496 512;" xml:space="preserve">
<style type="text/css">
	.st0{fill:#FFFFFF;}
</style>
<path class="st0" d="M248,8C111,8,0,119,0,256s111,248,248,248s248-111,248-248S385,8,248,8z M328,176c17.7,0,32,14.3,32,32
	s-14.3,32-32,32s-32-14.3-32-32S310.3,176,328,176z M168,176c17.7,0,32,14.3,32,32s-14.3,32-32,32s-32-14.3-32-32S150.3,176,168,176
	z M362.8,346.2C334.3,380.4,292.5,400,248,400s-86.3-19.6-114.8-53.8c-13.6-16.3,11-36.7,24.6-20.5c22.4,26.9,55.2,42.2,90.2,42.2
	s67.8-15.4,90.2-42.2C351.6,309.5,376.3,329.9,362.8,346.2L362.8,346.2z"/>
</svg>
